<?xml version="1.0" encoding="utf-8"?>
<!-- Generator: Adobe Illustrator 16.0.0, SVG Export Plug-In . SVG Version: 6.00 Build 0)  -->
<!DOCTYPE svg PUBLIC "-//W3C//DTD SVG 1.1//EN" "http://www.w3.org/Graphics/SVG/1.1/DTD/svg11.dtd">
<svg version="1.1" id="Layer_1" xmlns="http://www.w3.org/2000/svg" xmlns:xlink="http://www.w3.org/1999/xlink" x="0px" y="0px"
	 width="594.823px" height="181.141px" viewBox="0 0 594.823 181.141" enable-background="new 0 0 594.823 181.141"
	 xml:space="preserve">
<g>
	<rect x="-81.067" y="-81.067" fill="none" width="740.506" height="343.272"/>
	<g>
		<g>
			<path fill="#F79E1B" d="M51.466,123.297c-3.111-1.968-6.358-3.497-9.744-4.588c-3.386-1.087-6.928-1.63-10.625-1.63
				c-2.418,0-4.63,0.252-6.633,0.753c-2.005,0.497-3.724,1.223-5.158,2.178c-1.432,0.951-2.548,2.088-3.342,3.416
				c-0.795,1.331-1.193,2.829-1.193,4.486c0,1.518,0.347,2.813,1.038,3.885s1.685,1.979,2.981,2.722
				c1.294,0.744,2.876,1.354,4.741,1.839c1.867,0.485,3.974,0.901,6.322,1.246l5.028,0.672c2.936,0.415,5.805,1.056,8.603,1.921
				c2.798,0.861,5.294,2.069,7.489,3.626c2.193,1.552,3.957,3.509,5.286,5.856c1.332,2.348,1.997,5.2,1.997,8.551
				c0,3.698-0.778,6.963-2.333,9.796c-1.557,2.833-3.664,5.217-6.323,7.149c-2.663,1.938-5.746,3.408-9.251,4.409
				c-3.509,1.001-7.231,1.502-11.17,1.502c-2.455,0-5.001-0.206-7.644-0.625c-2.643-0.411-5.253-1.024-7.827-1.835
				c-2.573-0.815-5.036-1.825-7.387-3.032c-2.35-1.211-4.457-2.627-6.322-4.254l6.375-9.326c1.246,1.137,2.738,2.196,4.484,3.163
				c1.743,0.967,3.617,1.812,5.622,2.538c2.005,0.722,4.085,1.289,6.245,1.685c2.159,0.396,4.295,0.598,6.4,0.598
				c2.386,0,4.605-0.241,6.661-0.727c2.057-0.484,3.845-1.195,5.364-2.126c1.519-0.932,2.721-2.065,3.602-3.396
				c0.883-1.327,1.323-2.821,1.323-4.479c0-2.837-1.393-4.995-4.172-6.481c-2.783-1.486-6.833-2.592-12.154-3.318l-5.649-0.775
				c-2.696-0.382-5.331-1.003-7.904-1.868c-2.573-0.856-4.871-2.076-6.894-3.651c-2.022-1.572-3.646-3.54-4.871-5.908
				c-1.229-2.363-1.842-5.239-1.842-8.628c0-3.629,0.753-6.85,2.257-9.669c1.501-2.813,3.549-5.181,6.14-7.099
				c2.591-1.921,5.624-3.38,9.096-4.378c3.472-1.005,7.177-1.505,11.118-1.505c5.287,0,10.063,0.698,14.328,2.099
				c4.268,1.398,8.234,3.308,11.898,5.725L51.466,123.297z M91.011,128.844c3.453,0,6.624,0.633,9.509,1.891
				c2.884,1.265,5.354,3.042,7.411,5.341c2.056,2.298,3.662,5.045,4.821,8.239c1.155,3.198,1.735,6.73,1.735,10.601
				c0,0.689-0.018,1.381-0.051,2.072c-0.037,0.69-0.087,1.347-0.157,1.968H77.585c0.345,2.247,0.986,4.164,1.917,5.752
				c0.931,1.591,2.057,2.896,3.369,3.916c1.314,1.018,2.781,1.771,4.408,2.251c1.622,0.485,3.314,0.726,5.077,0.726
				c2.49,0,4.983-0.454,7.489-1.369c2.507-0.917,4.795-2.205,6.868-3.862l5.389,7.72c-3.039,2.593-6.26,4.409-9.664,5.441
				c-3.404,1.04-6.988,1.557-10.755,1.557c-3.732,0-7.154-0.625-10.262-1.863c-3.109-1.245-5.787-3.008-8.033-5.286
				c-2.247-2.282-3.992-5.03-5.234-8.244c-1.244-3.214-1.867-6.788-1.867-10.728c0-3.87,0.604-7.413,1.814-10.623
				c1.209-3.214,2.903-5.969,5.078-8.267c2.178-2.299,4.776-4.076,7.802-5.341C84.003,129.477,87.347,128.844,91.011,128.844z
				 M90.801,138.484c-1.935,0-3.652,0.291-5.156,0.878c-1.502,0.594-2.8,1.428-3.887,2.519c-1.087,1.087-1.978,2.383-2.668,3.885
				c-0.693,1.502-1.176,3.151-1.452,4.949h25.758c-0.588-3.87-1.969-6.878-4.147-9.017
				C97.073,139.557,94.257,138.484,90.801,138.484z M148.382,128.844c3.732,0,7.204,0.664,10.416,1.995
				c3.216,1.331,5.927,3.31,8.14,5.935l-6.948,7.409c-1.76-1.657-3.592-2.927-5.492-3.808c-1.9-0.881-4.042-1.319-6.426-1.319
				c-2.074,0-4.011,0.388-5.806,1.164c-1.797,0.776-3.352,1.867-4.664,3.264c-1.314,1.398-2.342,3.078-3.085,5.027
				c-0.741,1.956-1.114,4.106-1.114,6.454s0.373,4.503,1.114,6.454c0.743,1.953,1.771,3.629,3.085,5.027
				c1.312,1.396,2.866,2.483,4.664,3.264c1.795,0.776,3.732,1.164,5.806,1.164c2.383,0,4.611-0.492,6.684-1.475
				c2.074-0.982,3.906-2.221,5.494-3.707l6.688,7.464c-2.281,2.624-5.011,4.604-8.19,5.935s-6.633,1.995-10.365,1.995
				c-3.94,0-7.516-0.664-10.73-1.995c-3.211-1.331-5.959-3.163-8.24-5.492c-2.28-2.333-4.042-5.088-5.286-8.271
				c-1.244-3.175-1.867-6.629-1.867-10.363c0-3.729,0.623-7.188,1.867-10.367c1.244-3.179,3.006-5.935,5.286-8.263
				c2.28-2.333,5.028-4.165,8.24-5.496C140.866,129.508,144.442,128.844,148.382,128.844z M222.494,158.749
				c0,3.936-0.656,7.324-1.968,10.157c-1.314,2.833-3.043,5.151-5.184,6.947c-2.143,1.798-4.595,3.117-7.359,3.963
				c-2.765,0.847-5.599,1.27-8.502,1.27c-2.901,0-5.734-0.423-8.498-1.27c-2.766-0.846-5.226-2.165-7.387-3.963
				c-2.16-1.796-3.887-4.114-5.182-6.947c-1.298-2.833-1.944-6.222-1.944-10.157v-28.608h10.883v27.623
				c0,2.382,0.313,4.417,0.932,6.089c0.623,1.677,1.479,3.032,2.567,4.071c1.089,1.033,2.375,1.786,3.86,2.252
				c1.487,0.466,3.076,0.698,4.768,0.698c1.694,0,3.282-0.232,4.771-0.698c1.484-0.466,2.771-1.219,3.86-2.252
				c1.089-1.039,1.944-2.395,2.565-4.071c0.621-1.672,0.934-3.707,0.934-6.089v-27.623h10.883V158.749z M262.037,128.844
				c1.659,0,3.151,0.112,4.483,0.337c1.331,0.222,2.618,0.578,3.862,1.06l-2.591,10.732c-1.141-0.591-2.472-1.036-3.99-1.351
				c-1.521-0.311-2.94-0.466-4.252-0.466c-1.727,0-3.314,0.295-4.766,0.882c-1.452,0.589-2.698,1.451-3.732,2.592
				c-1.038,1.141-1.849,2.539-2.438,4.195c-0.588,1.662-0.881,3.544-0.881,5.652v27.312h-10.833v-49.648h10.73v5.596
				c1.657-2.387,3.714-4.13,6.167-5.235C256.25,129.395,258.998,128.844,262.037,128.844z M298.424,128.844
				c3.455,0,6.625,0.633,9.51,1.891c2.888,1.265,5.356,3.042,7.413,5.341c2.053,2.298,3.659,5.045,4.82,8.239
				c1.152,3.198,1.731,6.73,1.731,10.601c0,0.689-0.017,1.381-0.047,2.072c-0.039,0.69-0.089,1.347-0.159,1.968h-36.694
				c0.345,2.247,0.984,4.164,1.917,5.752c0.932,1.591,2.057,2.896,3.368,3.916c1.314,1.018,2.779,1.771,4.406,2.251
				c1.622,0.485,3.318,0.726,5.076,0.726c2.492,0,4.988-0.454,7.491-1.369c2.508-0.917,4.794-2.205,6.87-3.862l5.387,7.72
				c-3.039,2.593-6.261,4.409-9.664,5.441c-3.404,1.04-6.986,1.557-10.755,1.557c-3.73,0-7.153-0.625-10.263-1.863
				c-3.109-1.245-5.787-3.008-8.032-5.286c-2.248-2.282-3.992-5.03-5.234-8.244c-1.246-3.214-1.867-6.788-1.867-10.728
				c0-3.87,0.604-7.413,1.814-10.623c1.209-3.214,2.901-5.969,5.079-8.267c2.177-2.299,4.776-4.076,7.799-5.341
				C291.416,129.477,294.76,128.844,298.424,128.844z M298.214,138.484c-1.933,0-3.652,0.291-5.157,0.878
				c-1.501,0.594-2.799,1.428-3.888,2.519c-1.087,1.087-1.978,2.383-2.667,3.885c-0.692,1.502-1.176,3.151-1.451,4.949h25.762
				c-0.591-3.87-1.972-6.878-4.149-9.017C304.486,139.557,301.673,138.484,298.214,138.484z M368.648,105.882
				c3.214,0,6.327,0.345,9.33,1.036c3.009,0.695,5.804,1.692,8.396,3.008c2.589,1.316,4.945,2.911,7.049,4.798
				c2.107,1.882,3.874,3.994,5.286,6.346l-9.792,6.528c-2.217-3.249-5.054-5.803-8.527-7.669c-3.478-1.863-7.386-2.795-11.741-2.795
				c-3.699,0-7.119,0.637-10.262,1.913c-3.145,1.281-5.857,3.078-8.14,5.392c-2.278,2.313-4.067,5.097-5.359,8.345
				c-1.297,3.249-1.945,6.823-1.945,10.728s0.648,7.483,1.945,10.729c1.292,3.249,3.081,6.027,5.359,8.345
				c2.282,2.317,4.995,4.11,8.14,5.387c3.143,1.281,6.563,1.918,10.262,1.918c4.316,0,8.197-0.912,11.633-2.744
				c3.442-1.832,6.299-4.386,8.581-7.67l9.54,6.998c-1.557,2.278-3.376,4.316-5.468,6.113c-2.089,1.797-4.406,3.334-6.949,4.614
				c-2.542,1.277-5.271,2.255-8.189,2.928c-2.922,0.675-5.969,1.013-9.147,1.013c-5.563,0-10.678-0.943-15.339-2.829
				c-4.665-1.88-8.675-4.5-12.024-7.849c-3.354-3.354-5.961-7.324-7.829-11.92c-1.862-4.6-2.798-9.605-2.798-15.032
				s0.936-10.433,2.798-15.032c1.868-4.596,4.476-8.569,7.829-11.919c3.35-3.35,7.359-5.966,12.024-7.848
				C357.971,106.825,363.086,105.882,368.648,105.882z M432.659,128.844c3.834,0,7.382,0.664,10.646,1.995
				c3.268,1.331,6.09,3.163,8.473,5.496c2.387,2.328,4.25,5.084,5.601,8.263c1.347,3.179,2.019,6.638,2.019,10.367
				c0,3.734-0.672,7.188-2.019,10.363c-1.351,3.183-3.214,5.938-5.601,8.271c-2.383,2.329-5.205,4.161-8.473,5.492
				c-3.265,1.331-6.813,1.995-10.646,1.995c-3.839,0-7.391-0.664-10.654-1.995c-3.268-1.331-6.082-3.163-8.446-5.492
				c-2.371-2.333-4.222-5.088-5.573-8.271c-1.347-3.175-2.018-6.629-2.018-10.363c0-3.729,0.671-7.188,2.018-10.367
				c1.352-3.179,3.202-5.935,5.573-8.263c2.364-2.333,5.179-4.165,8.446-5.496C425.269,129.508,428.82,128.844,432.659,128.844z
				 M432.659,139.056c-2.217,0-4.271,0.388-6.172,1.164c-1.897,0.776-3.543,1.867-4.921,3.264c-1.386,1.398-2.473,3.078-3.268,5.027
				c-0.793,1.956-1.192,4.106-1.192,6.454s0.399,4.503,1.192,6.454c0.795,1.953,1.882,3.629,3.268,5.027
				c1.378,1.396,3.023,2.483,4.921,3.264c1.901,0.776,3.955,1.164,6.172,1.164c2.209,0,4.262-0.388,6.163-1.164
				c1.897-0.78,3.552-1.867,4.949-3.264c1.401-1.398,2.495-3.074,3.295-5.027c0.792-1.951,1.191-4.106,1.191-6.454
				s-0.399-4.498-1.191-6.454c-0.8-1.949-1.894-3.629-3.295-5.027c-1.397-1.396-3.052-2.487-4.949-3.264
				C436.921,139.443,434.868,139.056,432.659,139.056z M492,128.844c3.56,0,6.618,0.664,9.172,1.995
				c2.558,1.331,4.7,3.104,6.432,5.313v-30.996h10.832v74.633h-10.832v-5.957c-1.731,2.209-3.874,3.974-6.432,5.286
				c-2.554,1.313-5.612,1.968-9.172,1.968c-3.489,0-6.737-0.644-9.742-1.944c-3.008-1.297-5.632-3.101-7.878-5.418
				c-2.248-2.31-4.01-5.065-5.287-8.264c-1.28-3.195-1.917-6.695-1.917-10.495s0.637-7.301,1.917-10.495
				c1.277-3.194,3.039-5.954,5.287-8.268c2.246-2.313,4.87-4.118,7.878-5.414C485.263,129.492,488.511,128.844,492,128.844z
				 M493.297,139.056c-2.353,0-4.448,0.423-6.3,1.265c-1.848,0.85-3.408,1.991-4.688,3.423c-1.278,1.433-2.264,3.117-2.955,5.054
				c-0.69,1.937-1.036,3.99-1.036,6.168c0,2.174,0.346,4.231,1.036,6.168c0.691,1.937,1.677,3.621,2.955,5.054
				c1.279,1.432,2.84,2.573,4.688,3.423c1.852,0.846,3.947,1.265,6.3,1.265c2.243,0,4.28-0.403,6.117-1.219
				c1.832-0.808,3.403-1.925,4.715-3.342c1.313-1.412,2.329-3.089,3.055-5.025c0.726-1.934,1.091-4.041,1.091-6.323
				c0-2.278-0.365-4.39-1.091-6.323c-0.726-1.937-1.742-3.608-3.055-5.025c-1.312-1.417-2.883-2.531-4.715-3.346
				C497.577,139.463,495.54,139.056,493.297,139.056z M554.508,128.844c3.455,0,6.622,0.633,9.507,1.891
				c2.883,1.265,5.359,3.042,7.412,5.341c2.058,2.298,3.66,5.045,4.821,8.239c1.157,3.198,1.735,6.73,1.735,10.601
				c0,0.689-0.021,1.381-0.052,2.072c-0.034,0.69-0.089,1.347-0.154,1.968h-36.694c0.342,2.247,0.982,4.164,1.918,5.752
				c0.932,1.591,2.053,2.896,3.369,3.916c1.311,1.018,2.778,1.771,4.405,2.251c1.622,0.485,3.318,0.726,5.076,0.726
				c2.492,0,4.987-0.454,7.491-1.369c2.504-0.917,4.793-2.205,6.869-3.862l5.388,7.72c-3.043,2.593-6.265,4.409-9.669,5.441
				c-3.399,1.04-6.981,1.557-10.75,1.557c-3.73,0-7.154-0.625-10.263-1.863c-3.109-1.245-5.791-3.008-8.034-5.286
				c-2.243-2.282-3.99-5.03-5.232-8.244c-1.245-3.214-1.866-6.788-1.866-10.728c0-3.87,0.601-7.413,1.812-10.623
				c1.211-3.214,2.903-5.969,5.081-8.267c2.178-2.299,4.774-4.076,7.798-5.341C547.503,129.477,550.845,128.844,554.508,128.844z
				 M583.157,179.789v-2.495h1.008v-0.512h-2.564v0.512h1.005v2.495H583.157z M588.137,179.789v-3.012h-0.784l-0.904,2.072
				l-0.908-2.072h-0.784v3.012h0.555v-2.271l0.847,1.957h0.578l0.846-1.964v2.277H588.137z M554.3,138.484
				c-1.938,0-3.653,0.291-5.159,0.878c-1.502,0.594-2.798,1.428-3.889,2.519c-1.087,1.087-1.976,2.383-2.666,3.885
				c-0.695,1.502-1.177,3.151-1.452,4.949h25.757c-0.587-3.87-1.965-6.878-4.142-9.017
				C560.571,139.557,557.754,138.484,554.3,138.484z"/>
			<path fill="#EB001B" d="M87.129,77.412h-12.15V15.484L52.993,70.046H40.199L18.211,16.074v61.338H6.061V2.152h18.656
				L46.597,55.91L68.476,2.152h18.653V77.412z M151.099,77.412h-11.236v-6.181c-1.792,2.294-4.013,4.12-6.665,5.482
				c-2.652,1.364-5.826,2.045-9.515,2.045c-3.622,0-6.988-0.673-10.107-2.016c-3.119-1.345-5.843-3.217-8.172-5.62
				c-2.329-2.398-4.157-5.257-5.482-8.574c-1.328-3.316-1.989-6.944-1.989-10.885c0-3.944,0.662-7.573,1.989-10.887
				c1.326-3.313,3.154-6.175,5.482-8.574c2.329-2.403,5.053-4.273,8.172-5.62c3.119-1.343,6.485-2.017,10.107-2.017
				c3.689,0,6.862,0.693,9.515,2.072c2.651,1.38,4.873,3.216,6.665,5.508v-6.233h11.236V77.412z M125.026,35.158
				c-2.438,0-4.615,0.44-6.53,1.316c-1.917,0.881-3.54,2.065-4.866,3.549c-1.327,1.491-2.348,3.233-3.064,5.242
				c-0.718,2.009-1.075,4.139-1.075,6.398c0,2.257,0.356,4.39,1.075,6.396c0.716,2.008,1.737,3.757,3.064,5.242
				c1.326,1.488,2.948,2.668,4.866,3.55c1.915,0.875,4.092,1.315,6.53,1.315c2.331,0,4.444-0.421,6.344-1.263
				s3.53-1.997,4.893-3.468c1.362-1.469,2.418-3.206,3.173-5.215c0.751-2.007,1.127-4.192,1.127-6.557
				c0-2.368-0.376-4.553-1.127-6.56c-0.755-2.009-1.811-3.746-3.173-5.217c-1.362-1.465-2.993-2.624-4.893-3.466
				C129.471,35.58,127.357,35.158,125.026,35.158z M202.705,38.813c-0.786-0.462-1.754-0.958-2.901-1.477
				c-1.146-0.518-2.42-0.992-3.817-1.424c-1.399-0.429-2.876-0.786-4.435-1.075c-1.56-0.287-3.146-0.429-4.758-0.429
				c-3.082,0-5.475,0.563-7.177,1.693c-1.702,1.127-2.554,2.608-2.554,4.436c0,0.895,0.225,1.646,0.671,2.255
				c0.451,0.613,1.05,1.114,1.801,1.508c0.755,0.396,1.649,0.707,2.688,0.941c1.04,0.233,2.152,0.438,3.334,0.615l5.321,0.809
				c5.627,0.823,10.016,2.462,13.171,4.918c3.156,2.455,4.732,5.888,4.732,10.295c0,2.472-0.53,4.741-1.586,6.799
				c-1.058,2.061-2.581,3.837-4.57,5.322c-1.989,1.488-4.444,2.643-7.365,3.47c-2.92,0.823-6.228,1.232-9.918,1.232
				c-1.326,0-2.868-0.078-4.623-0.239c-1.756-0.163-3.62-0.485-5.589-0.966c-1.973-0.485-3.98-1.159-6.022-2.017
				c-2.043-0.859-3.998-1.993-5.86-3.386l5.214-8.442c0.931,0.718,1.944,1.387,3.037,2.014c1.095,0.629,2.329,1.186,3.709,1.667
				c1.38,0.485,2.905,0.872,4.57,1.157c1.667,0.287,3.558,0.429,5.673,0.429c3.87,0,6.791-0.563,8.762-1.692
				c1.97-1.127,2.958-2.66,2.958-4.597c0-1.467-0.718-2.676-2.152-3.629c-1.435-0.947-3.691-1.638-6.773-2.067l-5.376-0.7
				c-5.735-0.789-10.08-2.461-13.036-5.027c-2.957-2.56-4.436-5.92-4.436-10.08c0-2.546,0.493-4.84,1.479-6.879
				c0.984-2.043,2.4-3.773,4.246-5.189c1.846-1.415,4.078-2.508,6.694-3.278c2.616-0.772,5.574-1.155,8.871-1.155
				c4.05,0,7.865,0.474,11.452,1.424c3.583,0.947,6.719,2.282,9.406,4.004L202.705,38.813z M256.034,36.125h-19.73v22.42
				c0,1.717,0.217,3.188,0.644,4.407c0.431,1.216,1.015,2.214,1.749,2.985c0.734,0.771,1.595,1.335,2.579,1.692
				c0.986,0.357,2.051,0.537,3.2,0.537c1.756,0,3.538-0.337,5.349-1.022c1.811-0.681,3.485-1.504,5.028-2.471l4.459,8.976
				c-2.079,1.397-4.417,2.601-7.013,3.602c-2.601,1.004-5.529,1.508-8.792,1.508c-5.841,0-10.385-1.62-13.627-4.865
				c-3.245-3.245-4.865-8.287-4.865-15.135V36.125h-10.268V25.913h10.268V10.322h11.289v15.591h19.73V36.125z M290.599,24.566
				c3.583,0,6.875,0.656,9.866,1.964c2.993,1.308,5.555,3.154,7.689,5.539c2.131,2.383,3.796,5.234,4.999,8.545
				c1.199,3.317,1.802,6.982,1.802,10.996c0,0.718-0.02,1.436-0.055,2.15c-0.035,0.718-0.094,1.397-0.159,2.041h-38.064
				c0.357,2.331,1.021,4.321,1.989,5.97c0.966,1.647,2.133,3,3.493,4.058c1.362,1.056,2.886,1.837,4.57,2.338
				c1.685,0.505,3.441,0.751,5.268,0.751c2.58,0,5.169-0.473,7.77-1.424c2.601-0.947,4.973-2.282,7.123-4.003l5.592,8.007
				c-3.154,2.69-6.497,4.572-10.028,5.647c-3.532,1.075-7.25,1.614-11.153,1.614c-3.872,0-7.421-0.648-10.645-1.936
				c-3.226-1.291-6.004-3.117-8.333-5.483c-2.329-2.368-4.14-5.214-5.43-8.55c-1.289-3.33-1.935-7.041-1.935-11.125
				c0-4.016,0.627-7.689,1.88-11.023c1.255-3.33,3.012-6.189,5.269-8.572c2.259-2.385,4.955-4.23,8.092-5.539
				C283.333,25.222,286.802,24.566,290.599,24.566z M290.386,34.568c-2.008,0-3.79,0.305-5.351,0.914
				c-1.558,0.61-2.903,1.477-4.03,2.606c-1.13,1.131-2.054,2.472-2.77,4.032c-0.718,1.559-1.217,3.272-1.506,5.134h26.721
				c-0.609-4.012-2.041-7.132-4.301-9.354C296.891,35.679,293.969,34.568,290.386,34.568z M353.872,24.566
				c1.724,0,3.272,0.118,4.65,0.352c1.382,0.233,2.717,0.601,4.005,1.1l-2.686,11.129c-1.184-0.609-2.562-1.075-4.142-1.397
				c-1.576-0.32-3.047-0.481-4.405-0.481c-1.793,0-3.442,0.303-4.948,0.913c-1.506,0.609-2.795,1.503-3.87,2.688
				c-1.075,1.182-1.917,2.633-2.527,4.354c-0.608,1.718-0.911,3.674-0.911,5.859v28.33h-11.236V25.913h11.128v5.805
				c1.72-2.472,3.854-4.281,6.396-5.428C347.868,25.143,350.717,24.566,353.872,24.566z M392.309,24.566
				c3.874,0,7.476,0.693,10.806,2.072c3.335,1.38,6.144,3.434,8.438,6.156l-7.204,7.688c-1.828-1.723-3.722-3.039-5.689-3.953
				c-1.98-0.912-4.2-1.373-6.673-1.373c-2.146,0-4.152,0.404-6.02,1.211c-1.863,0.806-3.478,1.933-4.84,3.389
				c-1.358,1.452-2.426,3.189-3.194,5.211c-0.776,2.025-1.156,4.255-1.156,6.695c0,2.438,0.38,4.667,1.156,6.693
				c0.769,2.022,1.836,3.761,3.194,5.215c1.362,1.451,2.977,2.581,4.84,3.384c1.867,0.81,3.873,1.211,6.02,1.211
				c2.473,0,4.782-0.512,6.933-1.531c2.15-1.022,4.056-2.303,5.701-3.846l6.933,7.744c-2.36,2.725-5.198,4.773-8.488,6.153
				c-3.304,1.38-6.882,2.072-10.756,2.072c-4.083,0-7.794-0.692-11.124-2.072c-3.334-1.38-6.187-3.277-8.55-5.696
				c-2.364-2.422-4.192-5.279-5.48-8.576c-1.292-3.299-1.937-6.881-1.937-10.75c0-3.872,0.645-7.455,1.937-10.754
				c1.288-3.296,3.116-6.153,5.48-8.575c2.363-2.418,5.216-4.316,8.55-5.696C384.515,25.259,388.226,24.566,392.309,24.566z
				 M471.445,77.412h-11.237v-6.181c-1.792,2.294-4.013,4.12-6.663,5.482c-2.655,1.364-5.826,2.045-9.518,2.045
				c-3.621,0-6.99-0.673-10.107-2.016c-3.116-1.345-5.841-3.217-8.17-5.62c-2.332-2.398-4.157-5.257-5.483-8.574
				c-1.324-3.316-1.992-6.944-1.992-10.885c0-3.944,0.668-7.573,1.992-10.887c1.326-3.313,3.151-6.175,5.483-8.574
				c2.329-2.403,5.054-4.273,8.17-5.62c3.117-1.343,6.486-2.017,10.107-2.017c3.691,0,6.862,0.693,9.518,2.072
				c2.65,1.38,4.871,3.216,6.663,5.508v-6.233h11.237V77.412z M445.37,35.158c-2.437,0-4.614,0.44-6.532,1.316
				c-1.917,0.881-3.536,2.065-4.862,3.549c-1.324,1.491-2.35,3.233-3.067,5.242c-0.714,2.009-1.075,4.139-1.075,6.398
				c0,2.257,0.361,4.39,1.075,6.396c0.718,2.008,1.743,3.757,3.067,5.242c1.326,1.488,2.945,2.668,4.862,3.55
				c1.918,0.875,4.096,1.315,6.532,1.315c2.328,0,4.444-0.421,6.346-1.263c1.898-0.842,3.528-1.997,4.891-3.468
				c1.362-1.469,2.418-3.206,3.172-5.215c0.757-2.007,1.129-4.192,1.129-6.557c0-2.368-0.372-4.553-1.129-6.56
				c-0.754-2.009-1.81-3.746-3.172-5.217c-1.362-1.465-2.992-2.624-4.891-3.466C449.814,35.58,447.698,35.158,445.37,35.158z
				 M514.073,24.566c1.723,0,3.272,0.118,4.65,0.352c1.381,0.233,2.716,0.601,4.005,1.1l-2.689,11.129
				c-1.18-0.609-2.558-1.075-4.134-1.397c-1.58-0.32-3.051-0.481-4.413-0.481c-1.793,0-3.438,0.303-4.94,0.913
				c-1.51,0.609-2.8,1.503-3.874,2.688c-1.075,1.182-1.917,2.633-2.527,4.354c-0.609,1.718-0.915,3.674-0.915,5.859v28.33h-11.232
				V25.913h11.127v5.805c1.72-2.472,3.851-4.281,6.396-5.428C508.073,25.143,510.921,24.566,514.073,24.566z M550.954,24.566
				c3.691,0,6.861,0.693,9.516,2.072c2.652,1.38,4.871,3.216,6.665,5.508V0h11.236v77.412h-11.236v-6.181
				c-1.794,2.294-4.013,4.12-6.665,5.482c-2.654,1.364-5.824,2.045-9.516,2.045c-3.622,0-6.99-0.673-10.107-2.016
				c-3.116-1.345-5.842-3.217-8.17-5.62c-2.329-2.398-4.157-5.257-5.485-8.574c-1.323-3.316-1.99-6.944-1.99-10.885
				c0-3.944,0.667-7.573,1.99-10.887c1.328-3.313,3.156-6.175,5.485-8.574c2.328-2.403,5.054-4.273,8.17-5.62
				C543.964,25.24,547.332,24.566,550.954,24.566z M591.489,72.65c0.463,0,0.893,0.085,1.297,0.258
				c0.403,0.171,0.757,0.404,1.06,0.702c0.303,0.297,0.544,0.645,0.714,1.042c0.176,0.4,0.264,0.823,0.264,1.273
				c0,0.449-0.088,0.871-0.264,1.268c-0.17,0.396-0.411,0.743-0.714,1.04s-0.656,0.532-1.06,0.704
				c-0.404,0.175-0.834,0.262-1.297,0.262c-0.47,0-0.908-0.087-1.319-0.262c-0.407-0.172-0.765-0.407-1.063-0.704
				s-0.536-0.645-0.71-1.04c-0.175-0.396-0.26-0.819-0.26-1.268c0-0.45,0.085-0.873,0.26-1.273c0.174-0.398,0.411-0.745,0.71-1.042
				c0.299-0.298,0.656-0.531,1.063-0.702C590.581,72.735,591.02,72.65,591.489,72.65z M591.489,78.478c0.354,0,0.684-0.068,0.99-0.2
				c0.303-0.136,0.57-0.316,0.799-0.547c0.233-0.229,0.412-0.501,0.544-0.81c0.132-0.311,0.198-0.642,0.198-0.996
				c0-0.353-0.066-0.685-0.198-0.996c-0.132-0.31-0.311-0.58-0.544-0.811c-0.229-0.231-0.496-0.41-0.799-0.542
				c-0.307-0.132-0.636-0.196-0.99-0.196c-0.356,0-0.694,0.063-1.005,0.196c-0.314,0.132-0.586,0.311-0.814,0.542
				c-0.229,0.231-0.412,0.501-0.544,0.811c-0.128,0.311-0.194,0.643-0.194,0.996c0,0.354,0.066,0.685,0.194,0.996
				c0.132,0.308,0.314,0.58,0.544,0.81c0.229,0.23,0.5,0.411,0.814,0.547C590.795,78.41,591.133,78.478,591.489,78.478z
				 M591.684,74.393c0.393,0,0.691,0.085,0.905,0.26c0.209,0.175,0.314,0.411,0.314,0.71c0,0.252-0.082,0.459-0.253,0.623
				c-0.167,0.164-0.407,0.262-0.718,0.301l0.997,1.147h-0.78l-0.924-1.14h-0.295v1.14h-0.652v-3.041H591.684z M590.931,74.963v0.809
				h0.745c0.171,0,0.307-0.033,0.408-0.101c0.104-0.066,0.155-0.169,0.155-0.308c0-0.134-0.051-0.233-0.155-0.301
				c-0.102-0.066-0.237-0.099-0.408-0.099H590.931z M552.296,35.158c-2.438,0-4.615,0.44-6.531,1.316
				c-1.918,0.881-3.536,2.065-4.864,3.549c-1.323,1.491-2.348,3.233-3.065,5.242c-0.714,2.009-1.075,4.139-1.075,6.398
				c0,2.257,0.361,4.39,1.075,6.396c0.718,2.008,1.742,3.757,3.065,5.242c1.328,1.488,2.946,2.668,4.864,3.55
				c1.916,0.875,4.094,1.315,6.531,1.315c2.329,0,4.444-0.421,6.347-1.263c1.897-0.842,3.528-1.997,4.891-3.468
				c1.362-1.469,2.418-3.206,3.17-5.215c0.757-2.007,1.134-4.192,1.134-6.557c0-2.368-0.377-4.553-1.134-6.56
				c-0.752-2.009-1.808-3.746-3.17-5.217c-1.362-1.465-2.993-2.624-4.891-3.466C556.74,35.58,554.625,35.158,552.296,35.158z"/>
		</g>
	</g>
</g>
<g>
</g>
<g>
</g>
<g>
</g>
<g>
</g>
<g>
</g>
<g>
</g>
</svg>
