<?xml version="1.0" encoding="UTF-8"?>
<!DOCTYPE svg PUBLIC "-//W3C//DTD SVG 1.1//EN" "http://www.w3.org/Graphics/SVG/1.1/DTD/svg11.dtd">
<!-- Creator: CorelDRAW X8 -->
<svg xmlns="http://www.w3.org/2000/svg" xml:space="preserve" width="400px" height="109px" version="1.1" style="shape-rendering:geometricPrecision; text-rendering:geometricPrecision; image-rendering:optimizeQuality; fill-rule:evenodd; clip-rule:evenodd"
viewBox="0 0 410 112"
 xmlns:xlink="http://www.w3.org/1999/xlink">
 <defs>
  <style type="text/css">
   <![CDATA[
    .fil2 {fill:#293352}
    .fil0 {fill:#3BB0C8;fill-rule:nonzero}
    .fil1 {fill:#293352;fill-rule:nonzero}
   ]]>
  </style>
 </defs>
 <g id="Layer_x0020_1">
  <metadata id="CorelCorpID_0Corel-Layer"/>
  <g id="_2483613349584">
   <path class="fil0" d="M28 85l3 0 0 0 -3 0 0 0zm6 -3l0 0 1 -3 3 0 0 3 -4 0 0 0 0 0 0 0zm-13 10l0 0 3 0 0 0 0 0 0 -3 0 0 0 0 3 0 0 0 0 0 1 -4 3 0 0 4 3 0 0 -4 3 0 4 0 0 -3 3 0 0 0 0 -1 1 -2 3 0 0 0 0 -6c-3,-3 -6,-5 -8,-8 0,-1 -1,-2 -1,-2l-9 2 -12 30 2 0 1 -3 0 0z"/>
   <path class="fil1" d="M65 45l2 1 0 1c-1,2 -1,3 -1,5 0,2 0,4 -1,6l9 3 33 -22 -39 0 -4 6c1,0 1,0 1,0z"/>
   <path class="fil1" d="M53 41l0 0 1 0c2,1 3,1 5,2 0,0 0,0 0,0l6 -6 -8 -37 -15 37 5 6c2,-1 4,-1 6,-2z"/>
   <path class="fil1" d="M38 58c0,-2 0,-4 1,-6 0,-1 0,-3 0,-5l0 -1 1 -1c1,0 1,0 2,0l-4 -6 -38 0 29 22 9 -3z"/>
   <polygon class="fil0" points="26,93 29,93 29,89 26,89 "/>
   <polygon class="fil0" points="29,95 32,95 32,92 29,92 "/>
   <polygon class="fil0" points="22,98 26,98 26,95 23,95 "/>
   <polygon class="fil0" points="16,101 19,101 19,97 16,97 "/>
   <path class="fil1" d="M63 62c0,1 0,2 -1,2 -3,3 -6,6 -9,8l-1 6 29 23 -9 -36 -9 -3z"/>
   <path class="fil2" d="M131 80c1,-6 2,-15 5,-27 0,11 0,20 0,27l-5 0zm16 -41l-21 0 0 0 -12 0 0 1c4,1 8,2 11,5l-11 57 14 0 2 -11 5 0 0 11 14 0 -2 -63z"/>
   <polygon class="fil2" points="171,39 167,90 175,90 174,102 152,102 157,39 "/>
   <polygon class="fil2" points="198,39 193,90 202,90 200,102 178,102 184,39 "/>
   <path class="fil2" d="M237 58l-13 0 1 -5c0,-2 0,-3 0,-4 -1,0 -1,-1 -2,-1 -1,0 -1,1 -2,2 0,0 -1,2 -1,3 0,2 0,4 0,5 1,1 2,2 4,4 6,4 9,8 11,11 1,2 2,7 1,13 0,5 -1,8 -2,10 -1,2 -3,4 -6,5 -3,2 -6,3 -9,3 -4,0 -7,-1 -9,-3 -3,-2 -4,-4 -5,-6 -1,-3 -1,-7 0,-11l0 -4 13 0 -1 7c0,3 0,4 1,5 0,1 1,1 1,1 1,0 2,-1 3,-1 0,-1 1,-3 1,-4 0,-4 0,-6 -1,-8 -1,-1 -3,-3 -6,-5 -3,-3 -5,-5 -6,-6 -1,-1 -2,-3 -3,-5 0,-2 0,-5 0,-9 0,-4 1,-8 2,-10 2,-2 3,-4 6,-5 2,-2 5,-2 9,-2 3,0 6,0 9,2 2,1 4,3 4,5 1,2 1,6 1,11l-1 2z"/>
   <polygon class="fil2" points="245,39 268,39 267,52 258,52 257,64 265,64 264,76 256,76 255,90 265,90 264,102 239,102 "/>
   <path class="fil2" d="M304 67l-14 0 1 -11c0,-4 0,-6 0,-6 0,-1 -1,-2 -2,-2 -1,0 -2,1 -2,2 -1,1 -1,3 -1,6l-3 29c0,4 0,6 0,6 0,1 1,2 2,2 1,0 2,-1 2,-2 1,0 1,-3 1,-6l1 -8 14 0 0 2c-1,7 -2,12 -3,14 -1,3 -3,5 -5,7 -3,3 -7,4 -11,4 -4,0 -7,-1 -10,-3 -2,-2 -4,-4 -4,-7 -1,-3 -1,-8 0,-14l1 -19c1,-4 1,-8 2,-10 0,-2 1,-4 3,-7 1,-2 3,-3 5,-4 3,-2 6,-2 9,-2 4,0 7,1 10,3 2,1 4,4 4,7 1,2 1,7 0,13l0 6z"/>
   <path class="fil2" d="M343 39l-3 42c-1,5 -1,8 -1,10 -1,2 -2,4 -3,6 -2,2 -4,4 -6,5 -2,1 -5,2 -8,2 -3,0 -6,-1 -8,-2 -2,-2 -4,-3 -5,-5 -1,-2 -2,-4 -2,-7 0,-2 1,-6 1,-14l4 -37 14 0 -5 47c0,3 0,5 0,6 0,0 1,1 2,1 1,0 1,-1 2,-1 0,-1 0,-3 0,-6l4 -47 14 0z"/>
   <path class="fil2" d="M349 39l10 0c7,0 11,0 14,1 2,0 4,2 5,4 1,3 2,7 1,12 0,5 -1,8 -2,10 -2,2 -4,3 -7,3 3,1 5,2 6,3 0,2 1,3 1,4 0,1 0,4 -1,10l-1 16 -13 0 2 -21c0,-3 0,-5 0,-6 -1,-1 -2,-1 -4,-1l-2 28 -14 0 5 -63zm13 11l-1 14c2,0 3,0 4,-1 0,0 1,-2 1,-5l0 -3c0,-2 0,-4 0,-4 -1,-1 -2,-1 -4,-1z"/>
   <polygon class="fil2" points="386,39 410,39 409,52 399,52 398,64 407,64 406,76 397,76 396,90 406,90 405,102 381,102 "/>
   <polygon class="fil0" points="22,107 18,107 19,103 22,103 "/>
   <polygon class="fil0" points="13,112 10,112 10,108 13,108 "/>
  </g>
 </g>
</svg>
