<?xml version="1.0" encoding="UTF-8"?>
<!DOCTYPE svg PUBLIC "-//W3C//DTD SVG 1.1//EN" "http://www.w3.org/Graphics/SVG/1.1/DTD/svg11.dtd">
<!-- Creator: CorelDRAW X8 -->
<svg xmlns="http://www.w3.org/2000/svg" xml:space="preserve" width="163px" height="103px" version="1.1" style="shape-rendering:geometricPrecision; text-rendering:geometricPrecision; image-rendering:optimizeQuality; fill-rule:evenodd; clip-rule:evenodd"
viewBox="0 0 223 141"
 xmlns:xlink="http://www.w3.org/1999/xlink">
 <defs>
  <style type="text/css">
   <![CDATA[
    .fil0 {fill:#3086C8}
   ]]>
  </style>
 </defs>
 <g id="Layer_x0020_1">
  <metadata id="CorelCorpID_0Corel-Layer"/>
  <path class="fil0" d="M14 0c-8,0 -14,5 -14,12l0 117c0,7 6,12 14,12l195 0c8,0 14,-5 14,-12l0 -117c0,-7 -6,-12 -14,-12l-195 0zm89 78l-9 -19 -13 0 0 28 -12 -28 -10 0 -13 29 8 0 3 -7 15 0 2 7 15 0 0 -22 10 22 7 0 9 -21 0 21 9 0 0 -29 -12 0 -9 19zm-43 -3l4 -10 5 10 -9 0zm101 -7l-8 -9 -24 0 0 29 23 0 9 -9 8 9 7 0 0 -3 -10 -12 10 -11 0 -3 -7 0 -8 9zm-13 14l-11 0 0 -6 10 0 0 -5 -10 0 0 -6 12 0 7 8 -8 9 0 0zm34 -19l-10 11 10 10 0 10 -6 0 0 0 -10 0 -5 -6 -6 6 -28 0 0 0 -15 0 0 0 -1 0 0 -3 -1 3 -13 0 -2 -4 0 4 -25 0 -3 -7 -5 0 -3 7 -13 0 0 0 -5 0 0 -11 5 -9 0 0 9 -21 19 0 2 6 0 -6 22 0 5 10 5 -10 17 0 0 0 3 0 0 0 -3 0 0 0 31 0 5 6 6 -6 9 0 0 0 6 0 0 10 0 0z"/>
 </g>
</svg>
