<?xml version="1.0" encoding="UTF-8"?>
<!DOCTYPE svg PUBLIC "-//W3C//DTD SVG 1.1//EN" "http://www.w3.org/Graphics/SVG/1.1/DTD/svg11.dtd">
<!-- Creator: CorelDRAW X8 -->
<svg xmlns="http://www.w3.org/2000/svg" xml:space="preserve" width="226px" height="143px" version="1.1" style="shape-rendering:geometricPrecision; text-rendering:geometricPrecision; image-rendering:optimizeQuality; fill-rule:evenodd; clip-rule:evenodd"
viewBox="0 0 431 272"
 xmlns:xlink="http://www.w3.org/1999/xlink">
 <defs>
  <style type="text/css">
   <![CDATA[
    .fil2 {fill:#3086C8}
    .fil1 {fill:white}
    .fil0 {fill:black;fill-opacity:0.070588}
   ]]>
  </style>
 </defs>
 <g id="Layer_x0020_1">
  <metadata id="CorelCorpID_0Corel-Layer"/>
  <path class="fil0" d="M397 0l-363 0c-19,0 -34,15 -34,34l0 204c0,19 16,34 34,34l363 0c19,0 34,-15 34,-34l0 -204c0,-19 -16,-34 -34,-34l0 0z"/>
  <path class="fil1" d="M397 11c12,0 23,11 23,23l0 204c0,13 -11,23 -23,23l-363 0c-12,0 -23,-10 -23,-23l0 -204c0,-12 11,-23 23,-23l363 0z"/>
  <path class="fil2" d="M136 136l0 42c0,3 -2,3 -6,2 -21,-9 -34,-37 -26,-61 5,-12 14,-23 26,-27 5,-2 6,-1 6,2l0 42zm23 0l0 -42c0,-3 0,-3 3,-2 24,9 37,37 27,61 -4,13 -13,23 -26,27 -4,3 -4,1 -4,-2l0 -42zm81 -79l-93 0c44,0 78,35 78,79 0,44 -34,80 -78,80l93 0c44,0 78,-36 78,-80 0,-44 -34,-79 -78,-79z"/>
 </g>
</svg>
