<?xml version="1.0" encoding="UTF-8"?>
<!DOCTYPE svg PUBLIC "-//W3C//DTD SVG 1.1//EN" "http://www.w3.org/Graphics/SVG/1.1/DTD/svg11.dtd">
<!-- Creator: CorelDRAW 2020 (64-Bit) -->
<svg xmlns="http://www.w3.org/2000/svg" xml:space="preserve" width="115.346mm" height="86.4608mm" version="1.1" style="shape-rendering:geometricPrecision; text-rendering:geometricPrecision; image-rendering:optimizeQuality; fill-rule:evenodd; clip-rule:evenodd"
viewBox="0 0 11534.56 8646.08"
 xmlns:xlink="http://www.w3.org/1999/xlink"
 xmlns:xodm="http://www.corel.com/coreldraw/odm/2003">
 <defs>
  <style type="text/css">
   <![CDATA[
    .fil0 {fill:none;fill-rule:nonzero}
    .fil5 {fill:#2B2A29;fill-rule:nonzero}
    .fil4 {fill:#F59F0D;fill-rule:nonzero}
    .fil2 {fill:#EA5E20;fill-rule:nonzero}
    .fil3 {fill:#DE1E26;fill-rule:nonzero}
    .fil1 {fill:black;fill-rule:nonzero}
   ]]>
  </style>
 </defs>
 <g id="__x0023_Layer_x0020_1">
  <metadata id="CorelCorpID_0Corel-Layer"/>
  <g id="_3012925020976">
   <polygon class="fil0" points="-0,0 11534.56,0 11534.56,8646.08 -0,8646.08 "/>
   <path class="fil1" d="M1714.81 7376.08l-131.99 0 0 -1514.58 131.99 0 0 1514.58zm962.83 -1514.58l0 0c126.19,0 239.81,17.67 340.79,53 100.97,35.35 186.79,85.83 257.49,151.46 70.65,65.63 125.12,145.14 163.33,238.54 38.24,93.42 57.36,198.16 57.36,314.28 0,116.13 -19.12,220.88 -57.36,314.28 -38.21,93.41 -92.68,172.93 -163.33,238.55 -70.7,65.63 -156.52,116.14 -257.49,151.47 -100.98,35.34 -214.6,53 -340.79,53l-552.83 0 0 -1514.58 552.83 0zm-420.85 125.48l0 0 0 1263.61 420.85 0c110.35,0 207.71,-14.97 292.11,-44.9 84.37,-29.92 155.41,-72.3 213.11,-127.11 57.71,-54.81 101.32,-121.18 130.92,-199.08 29.56,-77.89 44.34,-164.79 44.34,-260.72 0,-95.91 -14.78,-182.83 -44.34,-260.72 -29.6,-77.9 -73.21,-144.42 -130.92,-199.6 -57.7,-55.17 -128.74,-97.54 -213.11,-127.12 -84.4,-29.56 -181.76,-44.36 -292.11,-44.36l-420.85 0zm2773.85 -142.8l0 0c64.94,0 127.68,7.22 188.28,21.64 60.56,14.44 117.37,35.16 170.36,62.2 53.02,27.05 100.97,59.69 143.9,97.91 42.89,38.24 79.51,81.51 109.79,129.83l-110.34 73.55c-25.95,-39.65 -56.78,-75.34 -92.51,-107.09 -35.69,-31.73 -75,-58.77 -117.92,-81.15 -42.89,-22.34 -89.06,-39.48 -138.46,-51.38 -49.4,-11.9 -100.46,-17.85 -153.1,-17.85 -90.16,0 -173.98,15.52 -251.53,46.51 -77.51,31.02 -144.97,75.02 -202.29,132 -57.33,56.98 -102.42,125.13 -135.22,204.47 -32.83,79.34 -49.23,167.33 -49.23,263.96 0,96.67 16.4,184.64 49.23,263.98 32.8,79.34 77.89,147.5 135.22,204.47 57.32,56.98 124.78,100.97 202.29,131.98 77.55,31.02 161.37,46.52 251.53,46.52 52.64,0 103.49,-5.77 152.55,-17.31 49.06,-11.52 95.02,-28.49 137.94,-50.85 42.89,-22.34 82.24,-49.38 117.93,-81.13 35.69,-31.73 66.52,-67.78 92.5,-108.19l108.17 78.98c-31.73,47.59 -69.07,90.16 -111.96,127.65 -42.93,37.52 -90.54,69.61 -142.8,96.3 -52.3,26.68 -108.38,47.06 -168.23,61.11 -59.87,14.07 -121.88,21.1 -186.1,21.1 -110.35,0 -212.94,-19.1 -307.78,-57.34 -94.85,-38.22 -176.88,-91.42 -246.12,-159.58 -69.21,-68.14 -123.51,-149.64 -162.82,-244.5 -39.31,-94.82 -58.94,-199.23 -58.94,-313.19 0,-113.22 19.63,-217.45 58.94,-312.64 39.31,-95.21 93.61,-176.89 162.82,-245.05 69.24,-68.16 151.27,-121.34 246.12,-159.58 94.84,-38.2 197.43,-57.33 307.78,-57.33zm1018.02 690.21l0 0c20.18,-33.16 43.82,-62.01 70.86,-86.54 27.05,-24.51 56.43,-44.53 88.16,-60.05 31.73,-15.5 64.94,-27.04 99.53,-34.6 34.62,-7.58 69.25,-11.37 103.87,-11.37 63.46,0 121.51,9.58 174.18,28.66 52.65,19.12 97.91,46.36 135.78,81.69 37.86,35.34 67.07,78.44 87.64,129.27 20.53,50.85 30.83,107.66 30.83,170.4l0 624.23 -123.33 0 0 -586.35c0,-51.22 -7.24,-97.38 -21.64,-138.5 -14.43,-41.1 -35.72,-75.89 -63.83,-104.38 -28.15,-28.49 -62.4,-50.32 -102.77,-65.46 -40.41,-15.14 -86.58,-22.72 -138.49,-22.72 -47.62,0 -92.16,8.11 -133.61,24.34 -41.47,16.23 -77.54,39.32 -108.17,69.25 -30.7,29.93 -54.85,65.62 -72.49,107.09 -17.7,41.49 -26.52,87.09 -26.52,136.85l0 579.88 -123.34 0 0 -1557.87 123.34 0 0 716.18zm1524.35 -192.56l0 0c67.76,0 130.7,12.81 188.75,38.41 58.05,25.6 108.21,61.31 150.38,107.09 42.21,45.82 75.55,100.62 100.08,164.45 24.53,63.82 37.14,133.6 37.86,209.35 0,9.37 -0.17,18.22 -0.51,26.49 -0.38,8.3 -0.93,16.41 -1.62,24.35l-853.59 0c4.3,59.14 17.46,111.8 39.48,157.95 21.98,46.16 50.68,85.3 86.02,117.37 35.31,32.11 75.9,56.45 121.68,73.04 45.82,16.58 94.67,24.87 146.59,24.87 71.42,0 135.26,-12.97 191.51,-38.95 56.26,-25.96 107.11,-61.29 152.52,-106.02l66.01 84.39c-32.46,32.45 -65.46,59.51 -98.98,81.15 -33.56,21.63 -67.8,38.94 -102.8,51.91 -34.97,12.99 -70.49,22 -106.56,27.05 -36.07,5.05 -72.48,7.58 -109.24,7.58 -74.31,0 -142.84,-12.82 -205.57,-38.42 -62.74,-25.58 -116.83,-61.47 -162.27,-107.64 -45.44,-46.14 -80.78,-101.32 -106.04,-165.52 -25.25,-64.18 -37.86,-135.23 -37.86,-213.13 0,-76.43 12.82,-146.93 38.42,-211.49 25.59,-64.55 60.94,-120.08 106,-166.61 45.06,-46.52 98.46,-82.77 160.13,-108.72 61.67,-25.96 128.19,-38.95 199.61,-38.95zm-2.17 109.26l0 0c-51.92,0 -99.36,8.85 -142.29,26.51 -42.89,17.69 -80.58,42.2 -113.03,73.57 -32.45,31.37 -58.98,68.7 -79.51,111.97 -20.57,43.27 -33.73,90.88 -39.48,142.81l728.08 0c-4.34,-52.64 -16.22,-100.78 -35.72,-144.43 -19.47,-43.64 -44.89,-80.96 -76.28,-111.97 -31.35,-31 -67.59,-55.17 -108.72,-72.48 -41.1,-17.32 -85.44,-25.98 -133.05,-25.98zm1188.9 -109.26l0 0c75.72,0 145.87,13.52 210.43,40.56 64.52,27.05 119.54,66.19 164.98,117.4l-80.06 83.3c-39.66,-39.67 -84.2,-70.49 -133.6,-92.5 -49.41,-22 -104.39,-33.01 -164.99,-33.01 -55.53,0 -107.28,10.29 -155.23,30.84 -47.99,20.56 -89.65,49.06 -124.96,85.47 -35.34,36.43 -62.94,79.7 -82.78,129.81 -19.85,50.15 -29.74,104.78 -29.74,163.9 0,59.15 9.89,113.79 29.74,163.9 19.84,50.15 47.44,93.24 82.78,129.3 35.31,36.07 76.97,64.37 124.96,84.92 47.95,20.55 99.7,30.83 155.23,30.83 60.6,0 116.31,-11.52 167.16,-34.62 50.85,-23.07 95.74,-53.73 134.67,-91.95l76.82 84.39c-46.16,51.21 -101.35,90.33 -165.54,117.37 -64.18,27.05 -134.15,40.57 -209.87,40.57 -76.45,0 -146.59,-13.35 -210.43,-40.03 -63.8,-26.67 -118.82,-63.46 -164.98,-110.35 -46.17,-46.87 -82.03,-102.23 -107.63,-166.05 -25.59,-63.84 -38.41,-133.24 -38.41,-208.28 0,-75 12.82,-144.59 38.41,-208.79 25.6,-64.18 61.46,-119.71 107.63,-166.6 46.16,-46.87 101.18,-83.67 164.98,-110.35 63.84,-26.68 133.98,-40.03 210.43,-40.03zm746.45 445.73l0 0 165.54 0 428.39 -429.5 155.79 0 -484.66 480.34 493.31 537.68 -156.86 0 -435.97 -477.09 -165.54 0 0 477.09 -123.34 0 0 -1557.87 123.34 0 0 969.35z"/>
   <polygon class="fil2" points="3880.39,3538.48 2769.14,3538.48 2769.14,1541.53 3880.39,1541.53 "/>
   <path class="fil3" d="M2839.7 2540c0,-405.12 189.69,-765.93 485.07,-998.47 -216.03,-170.06 -488.6,-271.53 -784.86,-271.53 -701.35,0 -1269.91,568.6 -1269.91,1270 0,701.39 568.56,1270 1269.91,1270 296.26,0 568.83,-101.46 784.86,-271.52 -295.38,-232.56 -485.07,-593.36 -485.07,-998.48z"/>
   <path class="fil4" d="M5379.53 2540c0,701.39 -568.56,1270 -1269.91,1270 -296.26,0 -568.83,-101.46 -784.85,-271.52 295.38,-232.56 485.06,-593.36 485.06,-998.48 0,-405.12 -189.68,-765.93 -485.06,-998.47 216.02,-170.06 488.59,-271.53 784.85,-271.53 701.35,0 1269.91,568.6 1269.91,1270z"/>
   <path class="fil5" d="M5258.36 3326.97l0 -40.89 16.49 0 0 -8.33 -41.99 0 0 8.33 16.5 0 0 40.89 9 0zm81.51 0l0 0 0 -49.3 -12.87 0 -14.8 33.91 -14.81 -33.91 -12.87 0 0 49.3 9.08 0 0 -37.19 13.89 32.06 9.42 0 13.88 -32.14 0 37.27 9.08 0z"/>
  </g>
 </g>
</svg>
