<?xml version="1.0" encoding="UTF-8"?>
<!DOCTYPE svg PUBLIC "-//W3C//DTD SVG 1.1//EN" "http://www.w3.org/Graphics/SVG/1.1/DTD/svg11.dtd">
<!-- Creator: CorelDRAW X8 -->
<svg xmlns="http://www.w3.org/2000/svg" xml:space="preserve" width="104.615mm" height="104.916mm" version="1.1" style="shape-rendering:geometricPrecision; text-rendering:geometricPrecision; image-rendering:optimizeQuality; fill-rule:evenodd; clip-rule:evenodd"
viewBox="0 0 12900 12937"
 xmlns:xlink="http://www.w3.org/1999/xlink">
 <defs>
  <style type="text/css">
   <![CDATA[
    .fil3 {fill:#F9A132;fill-rule:nonzero}
    .fil1 {fill:#F26B35;fill-rule:nonzero}
    .fil2 {fill:#E63237;fill-rule:nonzero}
    .fil0 {fill:black;fill-rule:nonzero}
   ]]>
  </style>
 </defs>
 <g id="__x0023_Layer_x0020_1">
  <metadata id="CorelCorpID_0Corel-Layer"/>
  <path class="fil0" d="M12445 12850l-25 0 0 65 -12 0 0 -65 -25 0 0 -12 62 0 0 12zm95 65l0 0 -12 0 0 -63 -22 56 -14 0 -22 -55 0 62 -12 0 0 -77 19 0 22 55 22 -55 19 0 0 77zm-11664 0l0 0 -169 0 0 -1938 169 0 0 1938zm1288 -1938l0 0c161,0 306,23 436,68 129,45 239,110 329,194 91,84 160,186 209,305 49,120 74,254 74,402 0,149 -25,283 -74,402 -49,120 -118,222 -209,306 -90,84 -200,148 -329,193 -130,46 -275,68 -436,68l-708 0 0 -1938 708 0zm-539 161l0 0 0 1617 539 0c141,0 266,-19 373,-58 108,-38 199,-92 273,-162 74,-71 130,-155 168,-255 37,-100 56,-211 56,-334 0,-122 -19,-234 -56,-333 -38,-100 -94,-185 -168,-256 -74,-70 -165,-125 -273,-162 -107,-38 -232,-57 -373,-57l-539 0zm3660 -183l0 0c83,0 164,9 241,28 77,18 150,45 218,79 68,35 129,77 184,126 55,49 102,104 141,166l-141 94c-34,-51 -73,-96 -119,-137 -46,-41 -96,-75 -151,-104 -55,-28 -114,-51 -177,-66 -63,-15 -129,-23 -196,-23 -115,0 -222,20 -322,60 -99,40 -185,96 -259,169 -73,73 -131,160 -173,262 -42,101 -63,214 -63,337 0,124 21,237 63,338 42,102 100,189 173,262 74,73 160,129 259,169 100,39 207,59 322,59 67,0 133,-7 195,-22 63,-15 122,-36 177,-65 55,-29 105,-63 151,-104 45,-41 85,-87 118,-138l139 101c-41,61 -89,115 -144,163 -55,48 -116,89 -183,123 -66,34 -138,60 -215,78 -76,18 -156,27 -238,27 -141,0 -272,-24 -394,-73 -121,-49 -226,-117 -315,-204 -88,-87 -158,-192 -208,-313 -50,-121 -75,-255 -75,-401 0,-145 25,-278 75,-400 50,-122 120,-226 208,-313 89,-88 194,-156 315,-205 122,-48 253,-73 394,-73zm1358 883l0 0c26,-42 56,-79 91,-111 34,-31 72,-56 113,-76 40,-20 83,-35 127,-45 44,-9 88,-14 133,-14 81,0 155,12 223,37 67,24 125,59 173,104 49,45 86,100 113,166 26,65 39,137 39,218l0 798 -158 0 0 -750c0,-65 -9,-125 -28,-177 -18,-53 -45,-97 -81,-134 -36,-36 -80,-64 -132,-83 -51,-20 -110,-30 -177,-30 -61,0 -118,11 -171,31 -53,21 -99,51 -138,89 -40,38 -70,84 -93,137 -23,53 -34,112 -34,175l0 742 -158 0 0 -1993 158 0 0 916zm2042 -246l0 0c87,0 167,16 241,49 75,33 139,78 193,137 54,59 97,129 128,211 31,81 47,170 48,267 0,12 0,24 0,34 -1,11 -1,21 -2,31l-1093 0c6,76 23,143 51,202 28,60 65,110 110,151 45,41 97,72 156,93 58,21 121,32 187,32 92,0 173,-17 245,-50 72,-33 137,-78 196,-136l84 108c-42,42 -84,77 -127,104 -43,28 -87,50 -131,67 -45,16 -90,28 -137,34 -46,7 -92,10 -139,10 -95,0 -183,-16 -263,-49 -81,-33 -150,-79 -208,-138 -58,-59 -103,-130 -136,-212 -32,-82 -48,-173 -48,-272 0,-98 16,-188 49,-271 33,-83 78,-154 136,-213 57,-60 126,-106 205,-139 78,-33 164,-50 255,-50zm-3 140l0 0c-66,0 -127,11 -182,34 -55,22 -103,54 -145,94 -41,40 -75,88 -101,143 -27,55 -43,116 -51,183l932 0c-6,-68 -21,-129 -46,-185 -25,-56 -57,-104 -97,-143 -41,-40 -87,-71 -140,-93 -52,-22 -109,-33 -170,-33zm1577 -140l0 0c97,0 186,17 269,52 83,34 153,84 211,150l-102 107c-51,-51 -108,-91 -171,-119 -64,-28 -134,-42 -211,-42 -71,0 -138,13 -199,39 -61,27 -115,63 -160,110 -45,46 -80,102 -106,166 -25,64 -38,134 -38,210 0,75 13,145 38,209 26,65 61,120 106,166 45,46 99,82 160,108 61,27 128,40 199,40 77,0 148,-15 213,-44 66,-30 123,-69 173,-118l98 108c-59,65 -130,116 -212,150 -82,35 -171,52 -268,52 -98,0 -188,-17 -269,-51 -82,-34 -152,-81 -212,-141 -59,-60 -105,-131 -137,-213 -33,-82 -49,-170 -49,-266 0,-96 16,-185 49,-268 32,-82 78,-153 137,-213 60,-60 130,-107 212,-141 81,-34 171,-51 269,-51zm1010 570l0 0 212 0 548 -549 200 0 -621 614 632 688 -201 0 -558 -610 -212 0 0 610 -158 0 0 -1993 158 0 0 1240zm-8922 -2184l0 0 0 -664c0,-251 -160,-419 -417,-421 -135,-2 -274,40 -372,188 -73,-117 -188,-188 -350,-188 -113,0 -223,33 -310,157l0 -130 -230 0 0 1058 232 0 0 -587c0,-184 102,-281 260,-281 152,0 230,100 230,279l0 589 232 0 0 -587c0,-184 107,-281 259,-281 158,0 233,100 233,279l0 589 233 0zm3441 -1058l0 0 -377 0 0 -322 -232 0 0 322 -215 0 0 210 215 0 0 483c0,245 95,392 368,392 99,0 214,-31 287,-82l-66 -197c-69,39 -144,59 -204,59 -115,0 -153,-70 -153,-177l0 -478 377 0 0 -210zm1964 -27l0 0c-133,0 -219,62 -279,155l0 -128 -228 0 0 1058 230 0 0 -593c0,-175 76,-273 226,-273 47,0 95,7 144,27l71 -217c-51,-20 -117,-29 -164,-29zm-2969 111l0 0c-111,-73 -264,-111 -432,-111 -268,0 -441,128 -441,339 0,173 128,279 365,312l109 16c126,17 186,50 186,110 0,82 -84,129 -241,129 -160,0 -275,-51 -353,-111l-108 179c126,93 286,138 458,138 306,0 483,-144 483,-346 0,-186 -139,-283 -370,-317l-108 -15c-100,-13 -180,-33 -180,-104 0,-78 76,-124 202,-124 135,0 266,51 330,91l100 -186zm6169 -111l0 0c-133,0 -219,62 -279,155l0 -128 -228 0 0 1058 230 0 0 -593c0,-175 76,-273 226,-273 47,0 95,7 144,27l71 -217c-51,-20 -117,-29 -164,-29zm-2967 556l0 0c0,321 223,556 564,556 160,0 266,-36 381,-127l-110 -186c-87,62 -178,96 -277,96 -184,-3 -319,-135 -319,-339 0,-204 135,-337 319,-339 99,0 190,33 277,95l110 -186c-115,-91 -221,-126 -381,-126 -341,0 -564,235 -564,556zm2157 0l0 0 0 -529 -231 0 0 128c-73,-95 -183,-155 -334,-155 -297,0 -529,232 -529,556 0,323 232,556 529,556 151,0 261,-60 334,-155l0 128 231 0 0 -529zm-857 0l0 0c0,-186 121,-339 321,-339 190,0 319,146 319,339 0,192 -129,339 -319,339 -200,0 -321,-153 -321,-339zm-2780 -556l0 0c-310,0 -527,226 -527,556 0,336 226,556 543,556 159,0 306,-40 434,-149l-113 -170c-89,71 -202,110 -308,110 -148,0 -283,-68 -316,-259l786 0c2,-28 4,-57 4,-88 -2,-330 -206,-556 -503,-556zm-4 206l0 0c148,0 244,93 268,257l-549 0c24,-153 117,-257 281,-257zm5778 350l0 0 0 -955 -231 0 0 554c-73,-95 -183,-155 -334,-155 -297,0 -529,232 -529,556 0,323 232,556 529,556 151,0 261,-60 334,-155l0 128 231 0 0 -529zm-857 0l0 0c0,-186 121,-339 321,-339 190,0 319,146 319,339 0,192 -129,339 -319,339 -200,0 -321,-153 -321,-339zm-7778 0l0 0 0 -529 -230 0 0 128c-73,-95 -184,-155 -334,-155 -297,0 -530,232 -530,556 0,323 233,556 530,556 150,0 261,-60 334,-155l0 128 230 0 0 -529zm-857 0l0 0c0,-186 122,-339 321,-339 191,0 319,146 319,339 0,192 -128,339 -319,339 -199,0 -321,-153 -321,-339zm9876 376l0 0c14,0 28,2 41,8 13,5 25,13 34,22 10,10 18,21 23,34 6,13 9,26 9,41 0,14 -3,28 -9,41 -5,12 -13,23 -23,33 -9,10 -21,17 -34,23 -13,5 -27,8 -41,8 -16,0 -30,-3 -43,-8 -13,-6 -24,-13 -34,-23 -10,-10 -17,-21 -23,-33 -5,-13 -8,-27 -8,-41 0,-15 3,-28 8,-41 6,-13 13,-24 23,-34 10,-9 21,-17 34,-22 13,-6 27,-8 43,-8zm0 187l0 0c11,0 22,-2 31,-7 10,-4 19,-10 26,-17 8,-7 13,-16 18,-26 4,-10 6,-21 6,-32 0,-11 -2,-22 -6,-32 -5,-10 -10,-19 -18,-26 -7,-8 -16,-13 -26,-18 -9,-4 -20,-6 -31,-6 -12,0 -23,2 -33,6 -10,5 -19,10 -26,18 -7,7 -13,16 -17,26 -5,10 -7,21 -7,32 0,11 2,22 7,32 4,10 10,19 17,26 7,7 16,13 26,17 10,5 21,7 33,7zm6 -131l0 0c12,0 22,2 29,8 7,6 10,13 10,23 0,8 -3,15 -8,20 -6,5 -13,8 -23,10l32 36 -25 0 -30 -36 -9 0 0 36 -21 0 0 -97 45 0zm-24 18l0 0 0 26 24 0c5,0 9,-1 13,-3 3,-2 5,-6 5,-10 0,-4 -2,-8 -5,-10 -4,-2 -8,-3 -13,-3l-24 0z"/>
  <polygon class="fil1" points="8194,7121 4706,7121 4706,852 8194,852 "/>
  <path class="fil2" d="M4927 3987c0,-1272 596,-2405 1523,-3135 -678,-534 -1534,-852 -2464,-852 -2201,0 -3986,1785 -3986,3987 0,2201 1785,3986 3986,3986 930,0 1786,-318 2464,-852 -927,-730 -1523,-1863 -1523,-3134z"/>
  <path class="fil0" d="M12520 6457l0 -128 52 0 0 -26 -132 0 0 26 52 0 0 128 28 0zm256 0l0 0 0 -155 -41 0 -46 107 -47 -107 -40 0 0 155 29 0 0 -117 43 101 30 0 43 -101 0 117 29 0z"/>
  <path class="fil3" d="M12900 3987c0,2201 -1784,3986 -3986,3986 -930,0 -1786,-318 -2464,-852 927,-730 1523,-1863 1523,-3134 0,-1272 -596,-2405 -1523,-3135 678,-534 1534,-852 2464,-852 2202,0 3986,1785 3986,3987z"/>
 </g>
</svg>
