<?xml version="1.0" encoding="UTF-8"?>
<!DOCTYPE svg PUBLIC "-//W3C//DTD SVG 1.1//EN" "http://www.w3.org/Graphics/SVG/1.1/DTD/svg11.dtd">
<!-- Creator: CorelDRAW X8 -->
<svg xmlns="http://www.w3.org/2000/svg" xml:space="preserve" width="226px" height="143px" version="1.1" style="shape-rendering:geometricPrecision; text-rendering:geometricPrecision; image-rendering:optimizeQuality; fill-rule:evenodd; clip-rule:evenodd"
viewBox="0 0 431 272"
 xmlns:xlink="http://www.w3.org/1999/xlink"
 enable-background="new 0 0 400 300">
 <defs>
  <style type="text/css">
   <![CDATA[
    .fil2 {fill:#179BD7}
    .fil4 {fill:#222D65}
    .fil3 {fill:#253B80}
    .fil1 {fill:white}
    .fil0 {fill:black;fill-opacity:0.070588}
   ]]>
  </style>
 </defs>
 <g id="Layer_x0020_1">
  <metadata id="CorelCorpID_0Corel-Layer"/>
  <path class="fil0" d="M397 0l-363 0c-19,0 -34,15 -34,34l0 204c0,19 16,34 34,34l363 0c19,0 34,-15 34,-34l0 -204c0,-19 -16,-34 -34,-34l0 0z"/>
  <path class="fil1" d="M397 11c12,0 23,11 23,23l0 204c0,13 -11,23 -23,23l-363 0c-12,0 -23,-10 -23,-23l0 -204c0,-12 11,-23 23,-23l363 0z"/>
  <g id="PayPal_logo.svg">
   <path class="fil2" d="M331 115c-2,-3 -8,-5 -15,-5l-20 0c-2,0 -3,1 -3,2l-9 54c0,1 1,2 2,2l11 0c1,0 2,-1 2,-2l2 -15c0,-2 1,-3 3,-3l6 0c14,0 22,-6 24,-19 1,-6 0,-11 -3,-14zm-12 14c-1,8 -7,8 -13,8l-3 0 2 -14c1,-1 1,-2 2,-2l2 0c3,0 7,0 9,3 1,1 1,3 1,5z"/>
   <path class="fil2" d="M378 129l-9 0c-1,0 -2,1 -2,2l-1 2 0 -1c-2,-3 -7,-4 -12,-4 -11,0 -20,9 -22,20 -1,6 0,12 3,15 3,4 8,6 13,6 9,0 14,-6 14,-6l-1 3c0,1 1,2 2,2l9 0c1,0 3,-1 3,-3l5 -34c0,-1 0,-2 -2,-2zm-13 19c-1,6 -6,10 -12,10 -3,0 -5,-1 -6,-3 -2,-1 -2,-4 -2,-7 1,-5 6,-9 11,-9 3,0 5,1 7,2 1,2 2,5 2,7z"/>
   <path class="fil2" d="M402 110l-10 0c-1,0 -2,1 -2,1l-8 55c-1,1 0,2 1,2l9 0c1,0 3,-1 3,-3l8 -53c0,-1 0,-2 -1,-2z"/>
   <path class="fil3" d="M183 115c-3,-3 -8,-5 -15,-5l-21 0c-1,0 -2,1 -2,2l-9 54c0,1 1,2 2,2l10 0c1,0 2,-1 3,-3l2 -14c0,-2 1,-3 3,-3l6 0c14,0 22,-6 24,-19 1,-6 0,-11 -3,-14zm-12 14c-2,8 -7,8 -13,8l-3 0 2 -14c0,-1 1,-2 2,-2l1 0c4,0 8,0 10,3 1,1 1,3 1,5z"/>
   <path class="fil3" d="M230 129l-10 0c-1,0 -1,1 -1,2l-1 2 -1 -1c-2,-3 -6,-4 -11,-4 -11,0 -21,9 -23,20 0,6 1,12 4,15 3,4 8,6 13,6 9,0 14,-6 14,-6l-1 3c0,1 1,2 2,2l9 0c1,0 2,-1 3,-3l5 -34c0,-1 -1,-2 -2,-2zm-14 19c-1,6 -5,10 -11,10 -3,0 -5,-1 -7,-3 -1,-1 -2,-4 -1,-7 1,-5 5,-9 11,-9 3,0 5,1 7,2 1,2 2,5 1,7z"/>
   <path class="fil3" d="M283 129l-10 0c-1,0 -2,1 -2,1l-14 21 -6 -20c0,-1 -1,-2 -3,-2l-9 0c-2,0 -2,1 -2,2l11 33 -10 14c-1,1 0,3 1,3l10 0c1,0 2,0 2,-1l34 -48c0,-1 0,-3 -2,-3z"/>
   <path class="fil2" d="M102 116c-1,-1 -3,-2 -4,-3l0 0c0,0 0,1 -1,1 0,1 0,1 0,2 -3,16 -14,23 -27,24 -1,0 -2,0 -3,0 -1,0 -2,0 -3,0l-8 0c-2,0 -4,2 -4,4l-4 24 0 3 -1 8c-1,1 0,2 2,2l15 0c1,0 3,-1 3,-3l0 -1 3 -17 0 -1c0,-2 2,-3 4,-3l2 0c14,0 26,-6 29,-23 1,-7 0,-13 -3,-17z"/>
   <path class="fil3" d="M52 144l0 -1 5 -30c0,-1 1,-2 2,-3 0,0 1,0 1,0l23 0c2,0 5,0 7,0 1,0 1,1 2,1 1,0 1,0 2,0 0,0 0,0 0,0 1,0 1,0 1,0 0,0 0,0 0,0 1,1 2,1 3,2 0,0 0,0 0,0 1,-7 0,-12 -4,-17 -4,-5 -12,-7 -22,-7l-28 0c-2,0 -4,2 -4,4l-12 75c0,2 1,3 2,3l18 0 0 -3 4 -24z"/>
   <path class="fil4" d="M98 113c-1,-1 -2,-1 -3,-2 0,0 0,0 0,0 0,0 0,0 -1,0 0,0 0,0 0,0 -1,0 -1,0 -2,0 -1,0 -1,-1 -2,-1 -2,0 -5,0 -7,0l-23 0c0,0 -1,0 -1,0 -1,1 -2,2 -2,3l-5 30 0 1c0,-2 2,-4 4,-4l8 0c1,0 2,0 3,0 1,0 2,0 3,0 13,-1 24,-8 27,-24 0,-1 0,-1 0,-2 1,0 1,-1 1,-1 0,0 0,0 0,0z"/>
  </g>
 </g>
</svg>
