<?xml version="1.0" encoding="UTF-8"?>
<!DOCTYPE svg PUBLIC "-//W3C//DTD SVG 1.1//EN" "http://www.w3.org/Graphics/SVG/1.1/DTD/svg11.dtd">
<!-- Creator: CorelDRAW X8 -->
<svg xmlns="http://www.w3.org/2000/svg" xml:space="preserve" width="119px" height="75px" version="1.1" style="shape-rendering:geometricPrecision; text-rendering:geometricPrecision; image-rendering:optimizeQuality; fill-rule:evenodd; clip-rule:evenodd"
viewBox="0 0 119 75"
 xmlns:xlink="http://www.w3.org/1999/xlink">
 <defs>
  <style type="text/css">
   <![CDATA[
    .fil1 {fill:white}
    .fil2 {fill:#10298E;fill-rule:nonzero}
    .fil3 {fill:#FFBE00;fill-rule:nonzero}
    .fil0 {fill:black;fill-opacity:0.070588}
   ]]>
  </style>
 </defs>
 <g id="Layer_x0020_1">
  <metadata id="CorelCorpID_0Corel-Layer"/>
  <g id="_1535073787856">
   <path class="fil0" d="M110 0l-101 0c-5,0 -9,4 -9,9l0 57c0,5 4,9 9,9l101 0c5,0 9,-4 9,-9l0 -57c0,-5 -4,-9 -9,-9l0 0z"/>
   <path class="fil1" d="M110 3c3,0 6,3 6,6l0 57c0,3 -3,6 -6,6l-101 0c-3,0 -6,-3 -6,-6l0 -57c0,-3 3,-6 6,-6l101 0z"/>
   <g>
    <path id="path5689" class="fil2" d="M32 34l-7 0c0,-1 0,-2 0,-3 -1,0 -2,0 -3,0 -2,0 -3,0 -4,0 -1,0 -1,1 -1,2 0,1 0,2 1,2 0,0 1,0 1,0l2 1c3,0 5,0 5,0 3,0 4,1 5,2 1,1 2,2 2,3 0,1 0,2 0,3 0,2 0,3 -1,4 0,2 -2,3 -5,4 -1,0 -3,0 -5,0 -4,0 -6,0 -8,-1 -2,0 -3,-1 -4,-3 0,-1 0,-2 0,-5l7 0c0,1 0,1 0,1 0,1 0,2 1,2 0,0 1,1 1,1l3 0c1,0 2,-1 2,-1 1,0 1,0 2,-1 0,0 0,-1 0,-1 0,-1 -1,-2 -1,-2 -1,0 -2,-1 -5,-1 -2,0 -4,0 -5,0 -2,-1 -3,-1 -4,-3 -1,-1 -1,-3 -1,-5 0,-2 0,-3 1,-4 0,-1 0,-2 1,-2 1,-1 3,-2 5,-2 1,0 3,0 5,0 2,0 4,0 6,1 3,0 4,3 4,6 0,1 0,1 0,2z"/>
    <path id="path5693" class="fil2" d="M62 52l0 -27 11 0 1 0 2 0c2,0 3,0 4,0 2,1 4,3 5,5 0,1 0,3 0,5 0,3 0,5 0,6 -1,2 -3,4 -6,4 0,0 -2,0 -4,0l-1 0 -5 0 0 7 -7 0zm7 -13l5 0c1,0 2,0 3,-1 0,0 0,0 1,-1 0,0 0,-1 0,-2 0,-1 0,-2 -1,-3 0,0 0,-1 -2,-1 0,0 0,0 -1,0l-5 0 0 8z"/>
    <path id="path5697" class="fil2" d="M101 47l-10 0 -1 5 -8 0 8 -27 11 0 9 27 -8 0 -1 -5zm-2 -5l-3 -12 -3 12 6 0z"/>
    <path id="path5701" class="fil3" d="M52 29c3,0 6,1 7,3l2 -3c-2,-2 -6,-4 -9,-4 -6,0 -11,4 -13,9l-3 0 -2 4 4 0c0,0 0,0 0,1 0,0 0,0 0,1l-2 0 -2 4 5 0c2,5 7,8 13,8 2,0 5,-1 7,-2l0 -5c-2,2 -4,3 -7,3 -3,0 -6,-2 -8,-4l10 0 2 -4 -14 0c0,-1 0,-1 0,-2 0,0 0,0 0,0l15 0 2 -4 -15 0c1,-3 4,-5 8,-5z"/>
    <g>
     <path id="path5705" class="fil2" d="M52 29c3,0 6,1 7,3l1 1 0 -1 1 -3 0 0 0 0c-2,-3 -6,-4 -9,-4 -3,0 -6,1 -8,2 -3,2 -4,4 -5,7l0 -1 -3 0 0 0 0 1 -2 3 0 1 0 0 4 0 0 -1c0,1 0,1 0,2 0,0 0,0 0,1l0 0 -2 0 0 0 0 0 -2 4 0 0 0 0 5 0 0 0c2,5 7,8 13,8 2,0 5,-1 7,-2l0 0 0 0 0 -5 0 0 0 0c-2,2 -4,3 -7,3 -3,0 -6,-2 -8,-4l0 0 10 0 0 0 0 0 2 -4 0 0 0 0 -14 0 1 0c-1,-1 -1,-1 -1,-2 0,0 0,0 0,0l0 0 15 0 0 0 0 0 2 -4 0 -1 0 0 -15 0 0 1c1,-3 5,-5 8,-5l0 0zm-8 5l15 0 0 0 -2 3 0 0 -15 0 0 0 0 0c0,1 0,1 0,1 0,1 0,1 0,2l0 0 0 0 14 0 0 0 -2 4 0 0 -10 0 0 0 0 0c2,3 5,4 8,4 3,0 5,-1 7,-3l0 0 0 5 0 0c-2,1 -5,2 -7,2 -6,0 -11,-3 -13,-8l0 0 0 0 -5 0 0 0 2 -4 0 0 2 0 0 0 0 0c0,-1 0,-1 0,-1 0,-1 0,-1 0,-1l0 -1 0 0 -4 0 0 1 2 -4 0 0 3 0 0 0 0 0c1,-3 3,-5 5,-6 2,-2 5,-3 8,-3 3,0 6,2 9,4l0 0 -2 3 1 0c-2,-2 -5,-3 -8,-3 -3,0 -7,2 -8,5l-1 0 1 0z"/>
    </g>
   </g>
  </g>
 </g>
</svg>
