<?xml version="1.0" encoding="UTF-8"?>
<!DOCTYPE svg PUBLIC "-//W3C//DTD SVG 1.1//EN" "http://www.w3.org/Graphics/SVG/1.1/DTD/svg11.dtd">
<!-- Creator: CorelDRAW X8 -->
<svg xmlns="http://www.w3.org/2000/svg" xml:space="preserve" width="118.858mm" height="15.445mm" version="1.1" style="shape-rendering:geometricPrecision; text-rendering:geometricPrecision; image-rendering:optimizeQuality; fill-rule:evenodd; clip-rule:evenodd"
viewBox="0 0 11878 1543"
 xmlns:xlink="http://www.w3.org/1999/xlink">
 <defs>
  <style type="text/css">
   <![CDATA[
    .fil2 {fill:#FEFEFE;fill-rule:nonzero}
    .fil0 {fill:#EA3339;fill-rule:nonzero}
    .fil3 {fill:#4D5050;fill-rule:nonzero}
    .fil5 {fill:#2F3031;fill-rule:nonzero}
    .fil4 {fill:url(#id7)}
    .fil1 {fill:url(#id8)}
   ]]>
  </style>
   <clipPath id="id0">
    <path d="M1460 238l-130 0c-13,-13 -26,-25 -39,-37 17,0 32,1 46,3 69,7 105,20 123,34l0 0z"/>
   </clipPath>
   <clipPath id="id1">
    <path d="M1330 239l0 0c-13,-14 -26,-26 -39,-38 0,0 0,0 0,0 13,12 26,24 39,38l0 0z"/>
   </clipPath>
   <clipPath id="id2">
    <path d="M1330 239l-638 0c6,-4 13,-7 22,-9 38,-7 314,-31 504,-31 26,0 51,1 73,2 13,12 26,24 39,38l0 0z"/>
   </clipPath>
   <clipPath id="id3">
    <path d="M772 1543c422,0 765,-338 772,-759 -7,421 -350,759 -772,759zm772 -771c0,-146 -41,-282 -111,-399 0,0 0,0 0,0 70,117 111,253 111,399zm-1462 -347l0 0c35,-69 79,-132 132,-186l0 0c-53,54 -97,117 -132,186l0 0z"/>
   </clipPath>
   <clipPath id="id4">
    <path d="M159 1407c-8,0 -16,-3 -22,-9 -26,-26 0,-55 12,-72 2,-3 16,-22 37,-52 23,27 47,52 73,75 -18,14 -31,23 -34,25 -13,10 -42,33 -66,33zm1274 -1034c-30,-48 -64,-94 -103,-134l130 0c24,19 17,43 17,64 1,19 -16,42 -44,70l0 0z"/>
   </clipPath>
   <clipPath id="id5">
    <path d="M1433 373c-30,-48 -64,-94 -103,-135l0 0c39,41 73,87 103,135 0,0 0,0 0,0l0 0z"/>
   </clipPath>
   <clipPath id="id6">
    <path d="M259 1349c-26,-23 -50,-48 -73,-75 121,-168 497,-693 529,-731 0,0 90,-116 99,-130 8,-14 12,-26 -12,-41 -25,-15 -107,-62 -123,-75 -13,-10 -14,-42 13,-59l638 0c39,41 74,87 103,135 -27,28 -65,60 -108,99 0,0 -146,133 -251,225 -106,91 -445,375 -511,426 -53,41 -228,170 -304,226l0 0z"/>
   </clipPath>
  <linearGradient id="id7" gradientUnits="userSpaceOnUse" x1="82.283" y1="1282.69" x2="1568.53" y2="431.819">
   <stop offset="0" style="stop-opacity:1; stop-color:#494B4C"/>
   <stop offset="0.0392157" style="stop-opacity:1; stop-color:#494B4C"/>
   <stop offset="0.0784314" style="stop-opacity:1; stop-color:#898C8D"/>
   <stop offset="0.14902" style="stop-opacity:1; stop-color:#494B4C"/>
   <stop offset="0.909804" style="stop-opacity:1; stop-color:#494B4C"/>
   <stop offset="0.968627" style="stop-opacity:1; stop-color:#898C8D"/>
   <stop offset="1" style="stop-opacity:1; stop-color:#4D5050"/>
  </linearGradient>
  <radialGradient id="id8" gradientUnits="userSpaceOnUse" gradientTransform="matrix(2.29014 -0 -0 -2.29015 -383 1041)" cx="296.881" cy="316.408" r="645.398" fx="296.881" fy="316.408">
   <stop offset="0" style="stop-opacity:1; stop-color:#E83339"/>
   <stop offset="0.65098" style="stop-opacity:1; stop-color:#E83339"/>
   <stop offset="1" style="stop-opacity:1; stop-color:#9C3234"/>
  </radialGradient>
 </defs>
 <g id="Layer_x0020_1">
  <metadata id="CorelCorpID_0Corel-Layer"/>
  <path class="fil0" d="M1543 772c0,426 -345,771 -771,771 -426,0 -772,-345 -772,-771 0,-427 346,-772 772,-772 426,0 771,345 771,772z"/>
  <path class="fil1" d="M0 772c0,-125 30,-243 82,-347l0 0c-52,104 -82,222 -82,347zm214 -534l0 0c137,-143 329,-234 543,-238 -214,4 -406,95 -543,238zm1077 -37c0,0 0,0 0,0 -137,-125 -319,-201 -519,-201 200,0 382,76 519,201z"/>
  <g style="clip-path:url(#id0)">
   <image x="1278" y="193" width="191.078" height="57.1125" xlink:href="ucbs_Images\ucbs_ImgID1.png"/>
  </g>
  <g style="clip-path:url(#id1)">
   <image x="1278" y="186" width="71.2131" height="71.2141" xlink:href="ucbs_Images\ucbs_ImgID2.png"/>
  </g>
  <g style="clip-path:url(#id2)">
   <image x="672" y="186" width="677.585" height="71.2141" xlink:href="ucbs_Images\ucbs_ImgID3.png"/>
  </g>
  <g style="clip-path:url(#id3)">
   <image x="45" y="200" width="1520" height="1379" xlink:href="ucbs_Images\ucbs_ImgID4.png"/>
  </g>
  <g style="clip-path:url(#id4)">
   <image x="97" y="228" width="1400" height="1192" xlink:href="ucbs_Images\ucbs_ImgID5.png"/>
  </g>
  <g style="clip-path:url(#id5)">
   <image x="1317" y="228" width="131" height="156" xlink:href="ucbs_Images\ucbs_ImgID6.png"/>
  </g>
  <g style="clip-path:url(#id6)">
   <image x="175" y="228" width="1273" height="1132" xlink:href="ucbs_Images\ucbs_ImgID7.png"/>
  </g>
  <path class="fil2" d="M723 557c0,0 89,-115 98,-129 8,-14 11,-26 -13,-41 -24,-15 -105,-62 -121,-74 -16,-13 -13,-58 34,-68 47,-9 458,-43 618,-26 159,17 138,62 138,99 1,37 -64,90 -151,169 0,0 -143,133 -248,225 -105,91 -441,374 -506,425 -65,51 -318,239 -335,251 -16,13 -62,50 -87,24 -25,-26 0,-54 13,-72 12,-18 522,-737 560,-783z"/>
  <path class="fil3" d="M706 363c16,13 97,60 121,75 4,2 6,4 9,6l4 -6c8,-14 11,-26 -13,-41 -24,-15 -105,-62 -121,-74l-26 -22c10,28 17,55 26,62z"/>
  <path class="fil4" d="M1468 263c6,15 12,45 9,55 -9,36 -64,90 -151,169 0,0 -143,133 -248,225 -105,91 -441,374 -506,425 -65,51 -318,239 -335,251 -12,10 -68,18 -92,17 8,12 22,24 36,38 26,25 71,-11 88,-23 16,-13 269,-201 334,-252 65,-51 401,-334 506,-425 105,-92 248,-225 248,-225 87,-79 135,-121 144,-157 4,-17 10,-68 -33,-98z"/>
  <path class="fil2" d="M723 557c0,0 89,-115 98,-129 8,-14 11,-26 -13,-41 -24,-15 -105,-62 -121,-74 -16,-13 -13,-58 34,-68 47,-9 458,-43 618,-26 159,17 145,75 138,99 -9,36 -64,90 -151,169 0,0 -143,133 -248,225 -105,91 -441,374 -506,425 -65,51 -318,239 -335,251 -16,13 -62,50 -87,24 -25,-26 0,-54 13,-72 12,-18 522,-737 560,-783z"/>
  <path class="fil5" d="M2672 140l0 964c0,213 -186,374 -432,374 -246,0 -432,-161 -432,-374l0 -738c0,-124 100,-226 225,-226l16 0 0 963c0,114 102,184 200,184 95,0 197,-65 197,-184l0 -749c0,-118 96,-214 214,-214l12 0z"/>
  <path class="fil5" d="M3147 481c328,0 381,184 381,295l0 688 -11 0c-121,0 -225,-101 -225,-223l0 -462c0,-65 -26,-142 -154,-142 -60,0 -95,7 -134,21 0,16 0,806 0,806l-235 0 0 -911c100,-44 262,-72 378,-72z"/>
  <path class="fil5" d="M3864 481l0 762c0,121 -98,221 -221,221l-11 0 0 -983 232 0zm-116 -341c71,0 127,52 127,117 0,64 -56,115 -127,115 -70,0 -128,-51 -128,-115 0,-65 58,-117 128,-117z"/>
  <path class="fil5" d="M4533 120c111,0 215,25 301,78l0 232c-53,-69 -129,-116 -250,-116 -239,0 -386,235 -386,479 0,230 154,482 386,482 102,0 195,-30 250,-104l0 228c-69,51 -176,79 -303,79 -379,0 -579,-347 -579,-683 0,-330 200,-675 581,-675z"/>
  <path class="fil5" d="M5250 481c38,0 88,3 131,10l0 188c-80,-58 -188,-39 -235,-14l0 578c0,121 -100,221 -221,221l-13 0 0 -908c92,-44 185,-75 338,-75z"/>
  <path class="fil5" d="M5993 850c-7,-196 -128,-217 -193,-217l-9 0c-132,4 -193,97 -193,271l395 -54zm204 133l-585 81c19,160 100,244 247,244 164,0 246,-53 306,-95l0 195c-60,32 -170,70 -329,70 -286,0 -456,-193 -456,-502 0,-300 158,-495 418,-495 256,0 399,170 399,465l0 37z"/>
  <path class="fil5" d="M6810 670c-24,-7 -51,-10 -81,-10 -193,0 -233,186 -233,341 0,216 72,323 217,323 25,0 79,-5 97,-9l0 -645zm230 -530l0 1312c-56,12 -240,26 -318,26l-16 0c-286,-3 -442,-168 -442,-465 0,-300 163,-494 416,-494 49,0 91,6 128,14l0 -170c0,-123 99,-223 222,-223l10 0z"/>
  <path class="fil5" d="M7382 481l0 762c0,121 -99,221 -221,221l-11 0 0 -983 232 0zm-116 -341c70,0 126,52 126,117 0,64 -56,115 -126,115 -70,0 -128,-51 -128,-115 0,-65 58,-117 128,-117z"/>
  <path class="fil5" d="M7793 140l0 341 151 0 0 188 -151 0 0 521c0,64 21,83 89,83 18,0 44,-5 62,-12l0 195c-11,3 -56,22 -118,22 -172,0 -267,-84 -267,-237l0 -572 -102 0 0 -188 102 0 0 -120c0,-121 98,-221 220,-221l14 0z"/>
  <path class="fil5" d="M8713 818l-77 2 0 493c44,0 92,0 158,0 162,0 279,-62 279,-232 0,-184 -102,-270 -360,-263zm323 -347c0,-146 -85,-214 -249,-214 -59,0 -105,7 -151,21l0 419 77 1c242,8 323,-66 323,-227zm-13 279l0 5c127,24 302,135 302,329 0,264 -212,380 -522,380 -296,0 -403,-5 -403,-5l0 -1268c83,-42 222,-74 387,-74 328,0 492,143 492,338 0,182 -139,270 -256,295z"/>
  <path class="fil5" d="M9905 952c-206,19 -331,62 -331,225 0,122 74,177 201,177 49,0 107,-4 130,-9l0 -393zm0 -109l0 -65c0,-125 -78,-159 -190,-159 -94,0 -187,35 -291,90l0 -157c62,-30 178,-74 330,-74 199,0 364,101 364,347l0 627c-65,12 -217,27 -308,27l-49 0c-261,0 -397,-110 -397,-294 0,-254 247,-314 541,-342z"/>
  <path class="fil5" d="M10596 478c329,0 382,185 382,296l0 690 -10 0c-122,0 -226,-102 -226,-223l0 -463c0,-66 -26,-143 -155,-143 -60,0 -95,7 -134,21 0,16 0,808 0,808l-235 0 0 -914c100,-44 262,-72 378,-72z"/>
  <path class="fil5" d="M11314 1235c0,127 -98,229 -230,229l-2 0 0 -1098c0,-127 99,-229 231,-229l1 0 0 799 293 -433 220 0 -301 440 352 521 -247 0 -317 -487 0 258z"/>
 </g>
</svg>
