<?xml version="1.0" encoding="UTF-8"?>
<!DOCTYPE svg PUBLIC "-//W3C//DTD SVG 1.1//EN" "http://www.w3.org/Graphics/SVG/1.1/DTD/svg11.dtd">
<!-- Creator: CorelDRAW 2020 (64-Bit) -->
<svg xmlns="http://www.w3.org/2000/svg" xml:space="preserve" width="76.0942mm" height="43.2858mm" version="1.1" style="shape-rendering:geometricPrecision; text-rendering:geometricPrecision; image-rendering:optimizeQuality; fill-rule:evenodd; clip-rule:evenodd"
viewBox="0 0 7609.42 4328.58"
 xmlns:xlink="http://www.w3.org/1999/xlink"
 xmlns:xodm="http://www.corel.com/coreldraw/odm/2003">
 <defs>
  <style type="text/css">
   <![CDATA[
    .fil1 {fill:#1434CB;fill-rule:nonzero}
    .fil0 {fill:white;fill-rule:nonzero}
   ]]>
  </style>
 </defs>
 <g id="Layer_x0020_1">
  <metadata id="CorelCorpID_0Corel-Layer"/>
  <g id="_3012923403328">
   <path class="fil0" d="M156.11 0l7297.21 0c89.96,0 156.1,66.15 156.1,156.1l0 3995.21c0,111.13 -66.15,177.27 -156.1,177.27l-7297.21 0c-89.96,0 -156.1,-66.15 -156.1,-177.27l-0.01 -3995.2c0,-89.96 66.15,-156.11 156.11,-156.11z"/>
   <g>
    <path class="fil1" d="M3151.77 1318.95l-710.46 1695.09 -463.53 0 -349.62 -1352.76c-21.23,-83.32 -39.68,-113.85 -104.24,-148.96 -105.39,-57.17 -279.44,-110.82 -432.58,-144.11l10.4 -49.27 746.14 0.01c95.11,0 180.61,63.3 202.2,172.83l184.64 980.86 456.35 -1153.72 460.7 0 0 0.03zm1816.18 1141.66c1.86,-447.39 -618.64,-472.04 -614.37,-671.89 1.33,-60.82 59.24,-125.49 186,-142 62.83,-8.22 235.95,-14.5 432.3,75.86l77.02 -359.46c-105.51,-38.29 -241.26,-75.15 -410.17,-75.15 -433.42,0 -738.44,230.41 -741.01,560.33 -2.8,244.03 217.71,380.2 383.85,461.29 170.91,83.04 228.26,136.41 227.6,210.68 -1.21,113.71 -136.31,163.91 -262.57,165.88 -220.4,3.4 -348.29,-59.63 -450.24,-107.03l-79.48 371.35c102.45,47.01 291.57,88.02 487.63,90.08 460.68,0 762.02,-227.55 763.44,-579.94l0 0zm1144.51 553.43l405.56 0 -354.01 -1695.09 -374.32 0c-84.18,0 -155.17,49.01 -186.6,124.36l-658.01 1570.73 460.45 0 91.4 -253.19 562.59 0 52.94 253.19zm-489.28 -600.61l230.8 -636.44 132.84 636.44 -363.64 0zm-1844.88 -1094.48l-362.6 1695.09 -438.49 0 362.74 -1695.09 438.35 0z"/>
   </g>
  </g>
 </g>
</svg>
