<?xml version="1.0" encoding="UTF-8"?>
<!DOCTYPE svg PUBLIC "-//W3C//DTD SVG 1.1//EN" "http://www.w3.org/Graphics/SVG/1.1/DTD/svg11.dtd">
<!-- Creator: CorelDRAW X8 -->
<svg xmlns="http://www.w3.org/2000/svg" xml:space="preserve" width="139.785mm" height="139.539mm" version="1.1" style="shape-rendering:geometricPrecision; text-rendering:geometricPrecision; image-rendering:optimizeQuality; fill-rule:evenodd; clip-rule:evenodd"
viewBox="0 0 17839 17807"
 xmlns:xlink="http://www.w3.org/1999/xlink">
 <defs>
  <style type="text/css">
   <![CDATA[
    .str0 {stroke:#FEFEFE;stroke-width:9.72421}
    .fil0 {fill:#FEFEFE}
    .fil1 {fill:#1A1F71}
    .fil2 {fill:#FEFEFE;fill-rule:nonzero}
   ]]>
  </style>
 </defs>
 <g id="Layer_x0020_1">
  <metadata id="CorelCorpID_0Corel-Layer"/>
  <rect class="fil0" width="17839" height="8914"/>
  <rect class="fil1" y="8893" width="17839" height="8914"/>
  <path class="fil2 str0" d="M5254 12246c-94,-46 -251,-94 -458,-94 -433,0 -709,244 -709,568 0,278 219,463 544,587 259,101 370,209 370,383 0,185 -145,311 -404,311 -180,0 -356,-54 -473,-121l-74 260c106,67 322,123 527,123 489,0 759,-257 759,-600 0,-281 -168,-461 -517,-606 -276,-112 -399,-198 -399,-372 0,-131 108,-273 367,-273 179,0 316,53 387,91l80 -257zm1622 1728l-857 0 0 -681 763 0 0 -257 -763 0 0 -595 808 0 0 -260 -1138 0 0 2053 1187 0 0 -260zm1687 -46c-94,43 -245,73 -393,73 -449,0 -728,-282 -728,-786 0,-533 313,-801 734,-801 162,0 290,35 381,75l71 -254c-60,-30 -213,-81 -464,-81 -603,0 -1069,381 -1069,1078 0,653 406,1031 1013,1031 236,0 421,-43 512,-86l-57 -249zm1915 -1747l-331 0 0 1243c0,408 -170,585 -443,585 -251,0 -430,-175 -430,-585l0 -1243 -330 0 0 1224c0,612 302,858 748,858 464,0 786,-257 786,-866l0 -1216zm1382 1072c219,-78 390,-257 390,-520 0,-166 -60,-308 -174,-402 -136,-115 -335,-163 -620,-163 -196,0 -390,19 -529,43l0 2023 327 0 0 -868 199 0c231,0 336,104 396,377 54,252 105,432 136,491l342 0c-43,-78 -97,-290 -162,-558 -52,-217 -143,-361 -305,-418l0 -5zm-606 -121l0 -704c40,-11 120,-19 231,-19 236,0 435,91 435,356 0,220 -171,367 -444,367l-222 0zm2552 842l-856 0 0 -681 762 0 0 -257 -762 0 0 -595 808 0 0 -260 -1138 0 0 2053 1186 0 0 -260z"/>
  <g>
   <path class="fil1" d="M8499 2502l-855 3997 -1033 0 855 -3997 1033 0zm4353 2581l546 -1502 313 1502 -859 0zm1153 1416l956 0 -833 -3997 -883 0c-200,0 -365,117 -442,294l-1551 3707 1085 0 215 -598 1327 0 126 594zm-2698 -1305c3,-1055 -1459,-1113 -1450,-1585 3,-144 141,-295 439,-334 147,-19 554,-34 1020,177l181 -849c-248,-92 -570,-178 -968,-178 -1021,0 -1742,543 -1748,1322 -6,576 515,895 908,1088 401,196 536,322 536,497 -3,266 -322,386 -619,392 -521,9 -822,-141 -1064,-251l-187 876c242,111 687,209 1150,212 1088,3 1796,-537 1802,-1367l0 0zm-4285 -2692l-1677 3997 -1095 0 -824 -3191c-49,-196 -92,-269 -245,-352 -249,-135 -660,-261 -1021,-341l24 -116 1760 0c224,0 426,150 478,408l435 2314 1076 -2722 1089 0 0 3z"/>
  </g>
 </g>
</svg>
