<?xml version="1.0" encoding="UTF-8" standalone="no"?>
<!-- Created with Inkscape (http://www.inkscape.org/) -->
<svg
   xmlns:svg="http://www.w3.org/2000/svg"
   xmlns="http://www.w3.org/2000/svg"
   version="1.0"
   width="956.69287"
   height="247.67715"
   id="svg2327">
  <defs
     id="defs2329">
    <linearGradient
       id="linearGradient43900">
      <stop
         style="stop-color:#91acd7;stop-opacity:1"
         offset="0"
         id="stop43902" />
      <stop
         style="stop-color:#488ac5;stop-opacity:1"
         offset="0.57798165"
         id="stop43912" />
      <stop
         style="stop-color:#034d83;stop-opacity:1"
         offset="1"
         id="stop43908" />
    </linearGradient>
  </defs>
  <g
     transform="translate(-268.44996,466.25704)"
     id="layer1">
    <g
       transform="translate(35.433066,35.365337)"
       id="g44450">
      <path
         d="M 462.18057,-466.25704 L 489.76615,-466.25704 L 489.76615,-438.66714 L 462.18057,-438.66714 L 462.18057,-466.25704"
         style="fill:#bd0027;fill-rule:nonzero;stroke:none"
         id="path44123" />
      <path
         d="M 462.18057,-417.61224 L 462.18057,-292.71273 L 489.76615,-292.71273 L 489.76615,-417.61224 L 462.18057,-417.61224"
         style="fill:#43557e;fill-rule:nonzero;stroke:none"
         id="path44127" />
      <path
         d="M 268.44996,-418.26544 L 297.83783,-418.26544 L 322.36607,-324.5213 L 322.85245,-324.5213 L 346.40356,-418.26544 L 374.33658,-418.26544 L 396.92362,-324.5213 L 397.41,-324.5213 L 422.9067,-418.26544 L 451.08293,-418.26544 L 411.73262,-292.71446 L 383.31756,-292.71446 L 360.00962,-385.96784 L 359.5189,-385.96784 L 336.44983,-292.71446 L 307.30952,-292.71446 L 268.44996,-418.26544"
         style="fill:#43557e;fill-rule:nonzero;stroke:none"
         id="path44131" />
      <path
         d="M 505.02769,-418.26544 L 531.01078,-418.26544 L 531.01078,-393.97164 L 531.49719,-393.97164 C 534.65442,-407.33884 551.17018,-421.66154 568.17663,-421.66154 C 574.48242,-421.66154 576.18481,-421.17944 578.61244,-420.94064 L 578.61244,-394.22354 C 574.72997,-394.70994 570.6043,-395.43084 566.71311,-395.43084 C 547.76541,-395.43084 532.71316,-380.1311 532.71316,-352.44998 L 532.71316,-292.71446 L 505.02769,-292.71446 L 505.02769,-418.26544"
         style="fill:#43557e;fill-rule:nonzero;stroke:none"
         id="path44135" />
      <path
         d="M 665.11403,-366.53331 C 664.13692,-384.02184 652.23759,-399.79934 633.5374,-399.79934 C 614.34646,-399.79934 601.23984,-385.23354 600.5146,-366.53331 L 665.11403,-366.53331 z M 600.5146,-348.32385 C 600.5146,-328.65521 611.20227,-311.16234 634.27134,-311.16234 C 650.30068,-311.16234 660.01559,-318.20206 664.87085,-332.05129 L 691.09715,-332.05129 C 685.02588,-304.60903 661.71363,-289.31362 634.27134,-289.31362 C 594.92537,-289.31362 572.82913,-316.75157 572.82913,-355.36357 C 572.82913,-391.06154 596.14137,-421.66104 633.5374,-421.66104 C 673.12655,-421.66104 697.40724,-385.96744 692.79953,-348.32385 L 600.5146,-348.32385"
         style="fill:#43557e;fill-rule:nonzero;stroke:none"
         id="path44139" />
      <path
         d="M 791.4037,-376.25385 C 789.21924,-391.55364 778.04519,-399.80064 762.74109,-399.80064 C 748.41413,-399.80064 728.25473,-392.28324 728.25473,-354.14889 C 728.25473,-333.26862 737.48756,-311.16366 761.52509,-311.16366 C 777.55443,-311.16366 788.72852,-321.86001 791.4037,-339.82193 L 819.08048,-339.82193 C 813.98636,-307.28116 793.82699,-289.31056 761.52509,-289.31056 C 722.1835,-289.31056 700.56926,-317.23489 700.56926,-354.14889 C 700.56926,-392.03994 721.21504,-421.66234 762.50223,-421.66234 C 791.64257,-421.66234 816.40964,-407.09654 819.08048,-376.25385 L 791.4037,-376.25385"
         style="fill:#43557e;fill-rule:nonzero;stroke:none"
         id="path44143" />
      <path
         d="M 911.85618,-355.60852 C 903.36162,-350.01929 890.00308,-350.26684 877.85623,-348.08241 C 865.96124,-346.14116 855.27354,-341.77228 855.27354,-327.19342 C 855.27354,-314.80771 871.05971,-311.16408 880.77024,-311.16408 C 892.91278,-311.16408 911.85618,-317.47421 911.85618,-334.96274 L 911.85618,-355.60852 z M 939.54164,-320.62709 C 939.54164,-313.83492 941.00517,-311.16408 946.10364,-311.16408 C 947.79734,-311.16408 949.9861,-311.16408 952.90015,-311.65049 L 952.90015,-292.46823 C 948.77013,-291.00905 940.03237,-289.31101 935.41163,-289.31101 C 924.24189,-289.31101 916.22937,-293.18914 914.04929,-304.61077 C 903.11407,-293.92307 885.38668,-289.31101 870.56896,-289.31101 C 847.9863,-289.31101 827.58807,-301.44921 827.58807,-325.98614 C 827.58807,-357.30656 852.60274,-362.40069 875.91498,-365.08452 C 895.82679,-368.72382 913.55856,-366.53505 913.55856,-382.80323 C 913.55856,-397.13894 898.74518,-399.80104 887.5711,-399.80104 C 872.02817,-399.80104 861.09726,-393.49094 859.88563,-379.88922 L 832.2045,-379.88922 C 834.14138,-412.19114 861.57933,-421.66284 889.27349,-421.66284 C 913.80173,-421.66284 939.54164,-411.70904 939.54164,-385.23094 L 939.54164,-320.62709"
         style="fill:#43557e;fill-rule:nonzero;stroke:none"
         id="path44147" />
      <path
         d="M 962.1243,-418.26544 L 988.11173,-418.26544 L 988.11173,-393.97164 L 988.59814,-393.97164 C 991.75971,-407.33884 1008.2755,-421.66154 1025.2776,-421.66154 C 1031.5877,-421.66154 1033.2901,-421.17944 1035.7134,-420.94064 L 1035.7134,-394.22354 C 1031.8309,-394.70994 1027.7009,-395.43084 1023.8184,-395.43084 C 1004.875,-395.43084 989.81845,-380.1311 989.81845,-352.44998 L 989.81845,-292.71446 L 962.1243,-292.71446 L 962.1243,-418.26544"
         style="fill:#43557e;fill-rule:nonzero;stroke:none"
         id="path44151" />
      <path
         d="M 1092.3481,-311.16234 C 1117.1152,-311.16234 1127.5554,-333.74499 1127.5554,-355.60678 C 1127.5554,-383.29224 1114.2012,-399.79934 1092.8345,-399.79934 C 1066.8471,-399.79934 1057.6186,-376.7346 1057.6186,-354.14757 C 1057.6186,-332.53771 1068.3019,-311.16234 1092.3481,-311.16234 z M 1154.2767,-292.71405 L 1128.0461,-292.71405 L 1128.0461,-309.71185 L 1127.5554,-309.71185 C 1120.2768,-295.3762 1104.4863,-289.31362 1088.7002,-289.31362 C 1049.1153,-289.31362 1029.9288,-318.70147 1029.9288,-356.33203 C 1029.9288,-401.74924 1056.8933,-421.66104 1084.3313,-421.66104 C 1100.1174,-421.66104 1117.6016,-415.83294 1126.1048,-401.99674 L 1126.5869,-401.99674 L 1126.5869,-466.10984 L 1154.2767,-466.10984 L 1154.2767,-292.71405"
         style="fill:#43557e;fill-rule:nonzero;stroke:none"
         id="path44155" />
    </g>
  </g>
</svg>
