<?xml version="1.0" encoding="UTF-8"?>
<!DOCTYPE svg PUBLIC "-//W3C//DTD SVG 1.1//EN" "http://www.w3.org/Graphics/SVG/1.1/DTD/svg11.dtd">
<!-- Creator: CorelDRAW X8 -->
<svg xmlns="http://www.w3.org/2000/svg" xml:space="preserve" width="2314px" height="1073px" version="1.1" style="shape-rendering:geometricPrecision; text-rendering:geometricPrecision; image-rendering:optimizeQuality; fill-rule:evenodd; clip-rule:evenodd"
viewBox="0 0 2834 1314"
 xmlns:xlink="http://www.w3.org/1999/xlink">
 <defs>
  <style type="text/css">
   <![CDATA[
    .fil0 {fill:none}
    .fil1 {fill:#E6E7E8}
   ]]>
  </style>
 </defs>
 <g id="Layer_x0020_1">
  <metadata id="CorelCorpID_0Corel-Layer"/>
  <rect class="fil0" width="2834" height="1314"/>
  <g id="_1520428289616">
   <g>
    <path class="fil1" d="M507 782c-12,-7 -24,-13 -37,-18 -13,-4 -27,-6 -41,-6 -9,0 -17,1 -25,3 -8,2 -14,5 -20,8 -5,4 -10,8 -13,14 -3,5 -4,10 -4,17 0,6 1,10 4,15 2,4 6,7 11,10 5,3 11,5 18,7 7,2 15,3 24,5l20 2c11,2 22,4 33,8 10,3 20,8 28,14 9,6 15,13 21,22 5,9 7,20 7,33 0,14 -3,26 -9,37 -6,11 -14,20 -24,28 -10,7 -22,13 -35,16 -14,4 -28,6 -43,6 -10,0 -19,-1 -29,-2 -10,-2 -20,-4 -30,-7 -10,-3 -20,-7 -29,-12 -9,-4 -17,-10 -24,-16l25 -36c4,5 10,9 17,12 6,4 14,7 21,10 8,3 16,5 24,6 8,2 17,3 25,3 9,0 17,-1 25,-3 8,-2 15,-5 21,-8 5,-4 10,-8 13,-13 4,-5 6,-11 6,-17 0,-11 -6,-19 -16,-25 -11,-6 -27,-10 -47,-13l-22 -3c-10,-1 -20,-4 -30,-7 -10,-3 -18,-8 -26,-14 -8,-6 -14,-13 -19,-22 -5,-10 -7,-21 -7,-34 0,-13 3,-26 9,-37 6,-10 13,-19 23,-27 10,-7 22,-13 35,-16 13,-4 28,-6 43,-6 20,0 38,2 54,8 17,5 32,13 46,22l-23 36zm151 21c14,0 26,3 37,8 11,4 20,11 28,20 8,9 14,19 19,31 4,13 6,26 6,41 0,3 0,5 0,8 0,3 0,5 0,8l-141 0c1,8 4,15 7,22 4,6 8,11 13,14 5,4 11,7 17,9 6,2 13,3 20,3 9,0 19,-2 28,-5 10,-4 19,-9 27,-15l20 29c-11,10 -24,17 -37,21 -13,4 -27,6 -41,6 -14,0 -27,-2 -39,-7 -12,-5 -22,-11 -31,-20 -9,-9 -15,-19 -20,-32 -5,-12 -7,-26 -7,-41 0,-15 2,-28 7,-40 4,-13 11,-23 19,-32 9,-9 19,-16 30,-20 12,-5 24,-8 38,-8zm0 37c-8,0 -14,1 -20,4 -6,2 -11,5 -15,9 -4,4 -7,9 -10,15 -3,6 -5,12 -6,19l99 0c-2,-15 -8,-26 -16,-35 -8,-8 -19,-12 -32,-12zm220 -37c14,0 28,3 40,8 12,5 23,13 31,23l-27 28c-6,-6 -13,-11 -21,-15 -7,-3 -15,-5 -24,-5 -8,0 -15,2 -22,5 -7,3 -13,7 -18,12 -5,6 -9,12 -12,20 -3,7 -4,15 -4,24 0,9 1,17 4,25 3,7 7,14 12,19 5,6 11,10 18,13 7,3 14,4 22,4 9,0 17,-2 25,-6 8,-3 15,-8 21,-14l26 29c-9,10 -19,17 -31,23 -12,5 -26,7 -40,7 -15,0 -29,-2 -41,-7 -12,-6 -23,-13 -32,-21 -8,-9 -15,-20 -20,-32 -5,-12 -7,-25 -7,-40 0,-14 2,-27 7,-39 5,-13 12,-23 20,-32 9,-9 20,-16 32,-21 12,-5 26,-8 41,-8zm284 115c0,15 -3,28 -8,39 -5,10 -12,19 -20,26 -8,7 -17,12 -28,15 -10,4 -21,5 -32,5 -12,0 -22,-1 -33,-5 -11,-3 -20,-8 -28,-15 -8,-7 -15,-16 -20,-26 -5,-11 -7,-24 -7,-39l0 -110 41 0 0 106c0,9 1,17 4,23 2,7 5,12 10,16 4,4 9,7 14,8 6,2 12,3 19,3 6,0 12,-1 18,-3 6,-1 10,-4 15,-8 4,-4 7,-9 9,-16 3,-6 4,-14 4,-23l0 -106 42 0 0 110 0 0zm151 -115c6,0 12,1 17,2 5,0 10,2 15,4l-10 41c-4,-3 -9,-4 -15,-5 -6,-2 -12,-2 -17,-2 -6,0 -12,1 -18,3 -5,2 -10,6 -14,10 -4,4 -7,10 -9,16 -3,6 -4,14 -4,22l0 104 -41 0 0 -190 41 0 0 22c6,-9 14,-16 23,-20 10,-5 20,-7 32,-7zm139 0c13,0 26,3 37,8 11,4 20,11 28,20 8,9 14,19 18,31 5,13 7,26 7,41 0,3 0,5 0,8 0,3 0,5 -1,8l-140 0c1,8 4,15 7,22 4,6 8,11 13,14 5,4 11,7 17,9 6,2 13,3 19,3 10,0 19,-2 29,-5 10,-4 18,-9 26,-15l21 29c-12,10 -24,17 -37,21 -13,4 -27,6 -41,6 -15,0 -28,-2 -40,-7 -11,-5 -22,-11 -30,-20 -9,-9 -16,-19 -20,-32 -5,-12 -7,-26 -7,-41 0,-15 2,-28 7,-40 4,-13 11,-23 19,-32 8,-9 18,-16 30,-20 11,-5 24,-8 38,-8zm-1 37c-7,0 -14,1 -19,4 -6,2 -11,5 -15,9 -4,4 -8,9 -10,15 -3,6 -5,12 -6,19l99 0c-3,-15 -8,-26 -16,-35 -9,-8 -19,-12 -33,-12zm270 -125c12,0 24,2 36,4 11,3 22,7 32,12 10,5 19,11 27,18 8,7 15,16 20,25l-38 25c-8,-13 -19,-23 -32,-30 -13,-7 -28,-11 -45,-11 -14,0 -27,3 -39,8 -12,5 -23,12 -31,20 -9,9 -16,20 -21,32 -5,13 -7,26 -7,41 0,15 2,29 7,41 5,13 12,24 21,32 8,9 19,16 31,21 12,5 25,7 39,7 16,0 31,-3 44,-10 14,-7 25,-17 33,-30l37 27c-6,9 -13,17 -21,24 -8,7 -17,12 -27,17 -9,5 -20,9 -31,12 -11,2 -23,3 -35,3 -21,0 -41,-3 -59,-10 -18,-8 -33,-18 -46,-30 -13,-13 -23,-28 -30,-46 -7,-18 -10,-37 -10,-58 0,-20 3,-40 10,-57 7,-18 17,-33 30,-46 13,-13 28,-23 46,-30 18,-7 38,-11 59,-11zm245 88c15,0 28,3 41,8 12,5 23,12 32,21 9,9 16,19 21,32 6,12 8,25 8,39 0,15 -2,28 -8,40 -5,12 -12,23 -21,32 -9,8 -20,15 -32,21 -13,5 -26,7 -41,7 -15,0 -28,-2 -41,-7 -12,-6 -23,-13 -32,-21 -9,-9 -16,-20 -22,-32 -5,-12 -7,-25 -7,-40 0,-14 2,-27 7,-39 6,-13 13,-23 22,-32 9,-9 20,-16 32,-21 13,-5 26,-8 41,-8zm0 39c-9,0 -16,2 -24,5 -7,3 -13,7 -19,12 -5,6 -9,12 -12,20 -3,7 -5,15 -5,24 0,9 2,17 5,25 3,7 7,14 12,19 6,6 12,10 19,13 8,3 15,4 24,4 8,0 16,-1 23,-4 8,-3 14,-7 19,-13 6,-5 10,-12 13,-19 3,-8 5,-16 5,-25 0,-9 -2,-17 -5,-24 -3,-8 -7,-14 -13,-20 -5,-5 -11,-9 -19,-12 -7,-3 -15,-5 -23,-5zm227 -39c14,0 25,3 35,8 10,5 18,12 25,20l0 -118 41 0 0 285 -41 0 0 -23c-7,9 -15,16 -25,21 -10,5 -21,7 -35,7 -13,0 -26,-2 -37,-7 -12,-5 -22,-12 -30,-21 -9,-9 -16,-19 -21,-32 -5,-12 -7,-25 -7,-40 0,-14 2,-28 7,-40 5,-12 12,-23 21,-32 8,-8 18,-15 30,-20 11,-5 24,-8 37,-8zm5 39c-9,0 -17,2 -24,5 -7,3 -13,8 -18,13 -5,6 -9,12 -11,20 -3,7 -4,15 -4,23 0,9 1,16 4,24 2,7 6,14 11,19 5,6 11,10 18,13 7,4 15,5 24,5 9,0 16,-1 23,-5 7,-3 13,-7 18,-12 5,-6 9,-12 12,-20 3,-7 4,-15 4,-24 0,-8 -1,-17 -4,-24 -3,-7 -7,-14 -12,-19 -5,-6 -11,-10 -18,-13 -7,-3 -14,-5 -23,-5zm234 -39c13,0 26,3 37,8 11,4 20,11 28,20 8,9 14,19 18,31 5,13 7,26 7,41 0,3 0,5 0,8 0,3 -1,5 -1,8l-140 0c1,8 4,15 7,22 4,6 8,11 13,14 5,4 11,7 17,9 6,2 13,3 19,3 10,0 19,-2 29,-5 10,-4 18,-9 26,-15l21 29c-12,10 -24,17 -37,21 -13,4 -27,6 -41,6 -15,0 -28,-2 -40,-7 -11,-5 -22,-11 -30,-20 -9,-9 -16,-19 -20,-32 -5,-12 -7,-26 -7,-41 0,-15 2,-28 6,-40 5,-13 12,-23 20,-32 8,-9 18,-16 30,-20 11,-5 24,-8 38,-8zm110 195l0 -9 4 0 0 -2 -10 0 0 2 4 0 0 9 2 0zm19 0l0 -11 -3 0 -4 8 -3 -8 -3 0 0 11 2 0 0 -8 3 7 2 0 4 -7 0 8 2 0 0 0zm-130 -158c-7,0 -14,1 -19,4 -6,2 -11,5 -15,9 -4,4 -8,9 -10,15 -3,6 -5,12 -6,19l99 0c-3,-15 -8,-26 -16,-35 -9,-8 -19,-12 -33,-12z"/>
    <path class="fil1" d="M644 606l-47 0 0 -237 -84 209 -49 0 -84 -206 0 234 -47 0 0 -288 72 0 84 206 83 -206 72 0 0 288zm244 0l-43 0 0 -23c-6,9 -15,16 -25,21 -10,5 -22,8 -36,8 -14,0 -27,-3 -39,-8 -12,-5 -23,-12 -31,-22 -9,-9 -16,-20 -21,-32 -5,-13 -8,-27 -8,-42 0,-15 3,-29 8,-42 5,-12 12,-23 21,-33 8,-9 19,-16 31,-21 12,-5 25,-8 39,-8 14,0 26,3 36,8 10,5 19,12 25,21l0 -24 43 0 0 197zm-99 -161c-10,0 -18,1 -25,5 -8,3 -14,8 -19,13 -5,6 -9,13 -12,20 -2,8 -4,16 -4,25 0,9 2,17 4,24 3,8 7,15 12,20 5,6 11,11 19,14 7,3 15,5 25,5 9,0 17,-2 24,-5 7,-3 13,-7 19,-13 5,-6 9,-12 12,-20 3,-8 4,-16 4,-25 0,-9 -1,-18 -4,-25 -3,-8 -7,-15 -12,-20 -6,-6 -12,-10 -19,-13 -7,-4 -15,-5 -24,-5zm297 14c-3,-2 -7,-4 -11,-6 -5,-2 -9,-4 -15,-5 -5,-2 -11,-3 -17,-4 -6,-2 -12,-2 -18,-2 -12,0 -21,2 -27,6 -7,5 -10,10 -10,17 0,4 1,7 2,9 2,2 4,4 7,6 3,1 7,2 11,3 4,1 8,2 12,3l21 3c21,3 38,9 50,19 12,9 18,22 18,39 0,9 -2,18 -6,26 -4,8 -10,15 -17,20 -8,6 -17,11 -29,14 -11,3 -23,4 -38,4 -5,0 -11,0 -17,-1 -7,0 -14,-1 -22,-3 -7,-2 -15,-5 -23,-8 -7,-3 -15,-8 -22,-13l20 -32c3,3 7,5 11,8 5,2 9,4 15,6 5,2 11,3 17,4 7,1 14,2 22,2 15,0 26,-2 33,-7 8,-4 12,-10 12,-17 0,-6 -3,-10 -9,-14 -5,-4 -14,-6 -25,-8l-21 -3c-22,-3 -39,-9 -50,-19 -11,-10 -17,-22 -17,-38 0,-10 2,-19 6,-27 4,-8 9,-14 16,-20 7,-5 16,-9 26,-12 10,-3 21,-5 34,-5 15,0 30,2 43,6 14,4 26,9 36,15l-18 34zm204 -11l-76 0 0 86c0,7 1,12 3,17 2,5 4,9 7,12 2,2 6,5 10,6 3,1 7,2 12,2 6,0 13,-1 20,-4 7,-2 14,-6 19,-9l18 34c-8,5 -17,10 -27,14 -10,4 -21,6 -34,6 -22,0 -40,-7 -52,-19 -13,-12 -19,-32 -19,-58l0 -87 -39 0 0 -39 39 0 0 -59 43 0 0 59 76 0 0 39zm132 -44c14,0 27,3 38,8 11,5 21,12 29,21 9,9 15,20 20,33 4,12 6,26 6,42 0,2 0,5 0,8 0,3 0,5 0,8l-146 0c1,9 4,16 8,23 3,6 8,11 13,15 5,4 11,7 17,9 7,2 14,3 21,3 9,0 19,-2 29,-5 10,-4 19,-9 28,-16l21 31c-12,10 -25,17 -38,21 -14,5 -28,7 -43,7 -15,0 -28,-3 -41,-8 -12,-5 -23,-12 -32,-21 -9,-9 -16,-20 -20,-32 -5,-13 -8,-27 -8,-43 0,-15 3,-29 7,-42 5,-13 12,-24 20,-33 9,-9 19,-16 31,-21 12,-5 26,-8 40,-8zm-1 39c-7,0 -14,1 -20,3 -6,2 -11,6 -15,10 -5,4 -8,9 -11,15 -3,6 -5,13 -6,20l102 0c-2,-15 -7,-27 -16,-36 -9,-8 -20,-12 -34,-12zm243 -39c7,0 13,1 18,2 5,0 11,2 16,4l-11 42c-4,-2 -10,-4 -16,-5 -6,-1 -11,-2 -16,-2 -7,0 -14,1 -19,4 -6,2 -11,5 -15,10 -4,4 -8,10 -10,17 -2,6 -3,14 -3,22l0 108 -43 0 0 -197 42 0 0 23c7,-10 15,-17 25,-21 9,-5 20,-7 32,-7zm147 0c15,0 29,3 42,8 13,5 23,13 32,24l-27 29c-7,-6 -15,-11 -22,-15 -8,-3 -16,-5 -26,-5 -8,0 -16,1 -23,4 -7,3 -13,8 -18,13 -6,6 -10,13 -13,20 -3,8 -4,17 -4,26 0,9 1,18 4,26 3,7 7,14 13,19 5,6 11,10 18,13 7,4 15,5 23,5 10,0 19,-2 27,-6 8,-4 15,-9 22,-15l26 30c-9,11 -20,18 -32,24 -13,5 -27,8 -42,8 -15,0 -29,-3 -42,-8 -13,-6 -24,-13 -33,-22 -9,-9 -16,-20 -21,-33 -5,-13 -7,-26 -7,-41 0,-15 2,-29 7,-41 5,-13 12,-24 21,-33 9,-9 20,-17 33,-22 13,-5 27,-8 42,-8zm303 202l-43 0 0 -23c-7,9 -15,16 -25,21 -10,5 -22,8 -37,8 -13,0 -26,-3 -38,-8 -12,-5 -23,-12 -32,-22 -8,-9 -15,-20 -21,-32 -5,-13 -7,-27 -7,-42 0,-15 2,-29 7,-42 6,-12 13,-23 21,-33 9,-9 20,-16 32,-21 12,-5 25,-8 38,-8 15,0 27,3 37,8 10,5 18,12 25,21l0 -24 43 0 0 197zm-99 -161c-10,0 -18,1 -25,5 -8,3 -14,8 -19,13 -5,6 -9,13 -12,20 -3,8 -4,16 -4,25 0,9 1,17 4,24 3,8 7,15 12,20 5,6 11,11 19,14 7,3 15,5 25,5 8,0 17,-2 24,-5 7,-3 13,-7 19,-13 5,-6 9,-12 12,-20 3,-8 4,-16 4,-25 0,-9 -1,-18 -4,-25 -3,-8 -7,-15 -12,-20 -6,-6 -12,-10 -19,-13 -7,-4 -16,-5 -24,-5zm262 -41c7,0 13,1 18,2 6,0 11,2 16,4l-11 42c-4,-2 -10,-4 -16,-5 -6,-1 -11,-2 -16,-2 -7,0 -14,1 -19,4 -6,2 -11,5 -15,10 -4,4 -8,10 -10,17 -2,6 -3,14 -3,22l0 108 -43 0 0 -197 42 0 0 23c7,-10 15,-17 25,-21 9,-5 20,-7 32,-7zm142 0c14,0 26,3 36,8 10,5 19,12 25,21l0 -123 43 0 0 296 -43 0 0 -23c-6,9 -15,16 -25,21 -10,5 -22,8 -36,8 -14,0 -27,-3 -39,-8 -12,-5 -22,-12 -31,-22 -9,-9 -16,-20 -21,-32 -5,-13 -8,-27 -8,-42 0,-15 3,-29 8,-42 5,-12 12,-23 21,-33 9,-9 19,-16 31,-21 12,-5 25,-8 39,-8zm155 184c1,0 3,1 5,1 1,1 3,2 4,3 1,1 2,2 2,4 1,1 1,3 1,5 0,1 0,3 -1,5 0,1 -1,2 -2,4 -1,1 -3,2 -4,2 -2,1 -4,1 -5,1 -2,0 -4,0 -5,-1 -2,0 -3,-1 -4,-2 -2,-2 -2,-3 -3,-4 -1,-2 -1,-4 -1,-5 0,-2 0,-4 1,-5 1,-2 1,-3 3,-4 1,-1 2,-2 4,-3 1,0 3,-1 5,-1zm0 23c1,0 2,-1 3,-1 2,-1 3,-1 4,-2 0,-1 1,-2 2,-3 0,-2 0,-3 0,-4 0,-2 0,-3 0,-4 -1,-1 -2,-2 -2,-3 -1,-1 -2,-2 -4,-2 -1,-1 -2,-1 -3,-1 -2,0 -3,0 -4,1 -1,0 -2,1 -3,2 -1,1 -2,2 -2,3 -1,1 -1,2 -1,4 0,1 0,2 1,4 0,1 1,2 2,3 1,1 2,1 3,2 1,0 2,1 4,1zm0 -16c2,0 3,0 4,1 1,1 1,1 1,3 0,1 0,1 -1,2 -1,1 -1,1 -3,1l4 5 -3 0 -3 -5 -1 0 0 5 -3 0 0 -12 5 0zm-2 2l0 3 2 0c1,0 2,0 2,0 0,0 1,-1 1,-1 0,-1 -1,-1 -1,-2 0,0 -1,0 -2,0l-2 0zm-148 -152c-10,0 -18,1 -25,5 -8,3 -14,8 -19,13 -5,6 -9,13 -12,20 -2,8 -4,16 -4,25 0,9 2,17 4,24 3,8 7,15 12,20 5,6 11,11 19,14 7,3 15,5 25,5 9,0 17,-2 24,-5 7,-3 13,-7 19,-13 5,-6 9,-12 12,-20 3,-8 4,-16 4,-25 0,-9 -1,-18 -4,-25 -3,-8 -7,-15 -12,-20 -6,-6 -12,-10 -19,-13 -7,-4 -15,-5 -24,-5z"/>
   </g>
  </g>
  <g id="_1520428289904">
  </g>
  <g id="_1520428288528">
  </g>
  <g id="_1520428289264">
  </g>
  <g id="_1520428275728">
  </g>
  <g id="_1520428275824">
  </g>
  <g id="_1520428274992">
  </g>
 </g>
</svg>
