<?xml version="1.0" encoding="UTF-8"?>
<!DOCTYPE svg PUBLIC "-//W3C//DTD SVG 1.1//EN" "http://www.w3.org/Graphics/SVG/1.1/DTD/svg11.dtd">
<!-- Creator: CorelDRAW X8 -->
<svg xmlns="http://www.w3.org/2000/svg" xml:space="preserve" width="1731px" height="864px" version="1.1" style="shape-rendering:geometricPrecision; text-rendering:geometricPrecision; image-rendering:optimizeQuality; fill-rule:evenodd; clip-rule:evenodd"
viewBox="0 0 5316 2652"
 xmlns:xlink="http://www.w3.org/1999/xlink"
 baseProfile="tiny">
 <defs>
  <style type="text/css">
   <![CDATA[
    .fil0 {fill:#E6E7E8}
   ]]>
  </style>
 </defs>
 <g id="Layer_x0020_1">
  <metadata id="CorelCorpID_0Corel-Layer"/>
  <g id="_1520431752144">
   <g>
    <g>
     <path class="fil0" d="M283 930l-283 -869 121 0 136 427c38,119 69,223 93,327l2 0c24,-101 61,-211 99,-324l147 -430 121 0 -312 869 -124 0 0 0z"/>
     <path class="fil0" d="M780 638c3,154 101,217 214,217 81,0 130,-14 173,-32l20 81c-40,18 -109,38 -208,38 -193,0 -306,-127 -306,-315 0,-188 110,-338 292,-338 205,0 257,179 257,295 0,23 -3,40 -3,52l-439 2 0 0zm332 -80c3,-73 -29,-185 -159,-185 -115,0 -164,107 -173,185l332 0z"/>
     <path class="fil0" d="M1312 500c0,-72 0,-136 -6,-194l98 0 3 122 6 0c29,-84 98,-136 173,-136 12,0 23,0 32,3l0 107c-12,-3 -23,-3 -38,-3 -81,0 -135,60 -153,144 -3,15 -6,35 -6,52l0 332 -112 0 0 -427 3 0z"/>
     <g>
      <path class="fil0" d="M1814 130c0,38 -26,69 -72,69 -40,0 -69,-31 -69,-69 0,-40 29,-72 72,-72 40,0 69,32 69,72l0 0zm-127 176l113 0 0 624 -113 0 0 -624z"/>
     </g>
     <path class="fil0" d="M1950 930l0 -537 -87 0 0 -87 87 0 0 -29c0,-86 20,-167 72,-219 44,-41 99,-58 153,-58 41,0 76,9 99,17l-15 87c-17,-9 -40,-14 -72,-14 -95,0 -121,83 -121,182l0 34 150 0 0 87 -150 0 0 537 -116 0z"/>
     <g>
      <path class="fil0" d="M2450 130c3,38 -26,69 -72,69 -41,0 -70,-31 -70,-69 0,-40 29,-72 73,-72 43,0 69,32 69,72l0 0zm-127 176l113 0 0 624 -113 0 0 -624z"/>
     </g>
     <path class="fil0" d="M2638 638c3,154 101,217 214,217 80,0 130,-14 173,-32l20 81c-40,18 -110,38 -208,38 -193,0 -306,-127 -306,-315 0,-188 110,-338 292,-338 205,0 257,179 257,295 0,23 -3,40 -3,52l-439 2 0 0zm332 -80c0,-73 -29,-185 -159,-185 -115,0 -165,107 -173,185l332 0z"/>
     <path class="fil0" d="M3710 14l0 755c0,54 0,118 5,161l-101 0 -6 -109 -2 0c-35,69 -110,121 -214,121 -150,0 -266,-127 -266,-318 0,-208 127,-335 280,-335 96,0 159,46 188,95l3 0 0 -370 113 0zm-113 546c0,-14 0,-34 -6,-49 -17,-72 -78,-133 -165,-133 -118,0 -187,104 -187,243 0,127 60,231 185,231 75,0 144,-49 167,-136 3,-14 6,-31 6,-49l0 -107z"/>
     <path class="fil0" d="M4129 930c2,-43 5,-107 5,-161l0 -755 113 0 0 393 3 0c40,-69 113,-115 214,-115 156,0 265,130 263,318 0,222 -142,335 -281,335 -89,0 -161,-35 -208,-119l-3 0 -5 104 -101 0zm118 -251c0,14 3,29 6,40 23,78 86,133 170,133 119,0 191,-98 191,-240 0,-124 -64,-231 -185,-231 -78,0 -150,52 -173,139 -3,12 -6,29 -6,46l0 113 -3 0z"/>
     <path class="fil0" d="M4851 306l136 370c14,40 28,90 40,127l3 0c11,-37 23,-87 40,-130l125 -367 121 0 -170 445c-81,214 -136,324 -214,390 -55,49 -110,70 -139,72l-29 -95c29,-9 67,-26 98,-55 32,-23 70,-69 96,-127 5,-11 8,-20 8,-26 0,-6 -3,-14 -8,-29l-231 -575 124 0 0 0z"/>
    </g>
    <g id="_1520431752080">
     <path class="fil0" d="M1884 1355l-344 870 -139 -740c-17,-84 -81,-130 -153,-130l-563 0 -9 38c116,26 246,66 327,109 49,26 63,49 78,113l262 1020 353 0 537 -1280 -349 0z"/>
     <polygon class="fil0" points="2375,1355 2100,2635 2433,2635 2704,1355 "/>
     <path class="fil0" d="M3140 1710c0,-46 47,-95 142,-107 46,-5 179,-11 326,58l58 -271c-81,-29 -182,-58 -309,-58 -326,0 -557,173 -560,425 -3,184 164,286 289,346 130,64 173,101 170,159 0,87 -104,124 -196,124 -168,3 -263,-46 -341,-80l-61 280c78,34 220,66 367,66 347,0 575,-170 575,-439 6,-332 -462,-352 -460,-503z"/>
     <path class="fil0" d="M4097 2181l176 -479 98 479 -274 0zm127 -826c-64,0 -119,38 -142,92l-497 1185 347 0 69 -191 425 0 41 191 306 0 -266 -1280 -283 0 0 3z"/>
    </g>
   </g>
  </g>
 </g>
</svg>
