<?xml version="1.0" encoding="UTF-8"?>
<!DOCTYPE svg PUBLIC "-//W3C//DTD SVG 1.1//EN" "http://www.w3.org/Graphics/SVG/1.1/DTD/svg11.dtd">
<!-- Creator: CorelDRAW X8 -->
<svg xmlns="http://www.w3.org/2000/svg" xml:space="preserve" width="1247px" height="341px" version="1.1" style="shape-rendering:geometricPrecision; text-rendering:geometricPrecision; image-rendering:optimizeQuality; fill-rule:evenodd; clip-rule:evenodd"
viewBox="0 0 772 211"
 xmlns:xlink="http://www.w3.org/1999/xlink">
 <defs>
  <style type="text/css">
   <![CDATA[
    .fil1 {fill:#E6E7E8}
    .fil0 {fill:#E6E7E8;fill-rule:nonzero}
   ]]>
  </style>
 </defs>
 <g id="Layer_x0020_1">
  <metadata id="CorelCorpID_0Corel-Layer"/>
  <g id="_1520431756432">
   <g id="_2483613349584">
    <path class="fil0" d="M53 160l5 0 0 0 -5 0 0 0zm11 -6l0 0 2 -5 6 0 0 5 -8 0 0 0 0 0 0 0zm-24 19l0 0 5 0 0 0 0 0 0 -5 0 0 0 0 6 0 0 0 0 0 2 -8 5 0 0 8 6 0 0 -8 6 0 7 0 0 -6 6 0 0 0 0 -1 2 -4 5 0 0 0 0 -11c-5,-6 -11,-10 -15,-16 0,-1 -2,-3 -2,-3l-16 3 -23 57 4 0 2 -6 0 0 0 0z"/>
    <path class="fil0" d="M122 85l4 2 0 2c-2,3 -2,5 -2,9 0,4 0,7 -2,11l17 6 63 -42 -74 0 -7 12c1,0 1,0 1,0l0 0z"/>
    <path class="fil0" d="M100 77l0 0 2 0c3,2 5,2 9,4 0,0 0,0 0,0l11 -11 -15 -70 -28 70 10 11c3,-2 7,-2 11,-4l0 0z"/>
    <path class="fil0" d="M72 109c0,-4 0,-7 1,-11 0,-2 0,-6 0,-9l0 -2 2 -2c2,0 2,0 4,0l-7 -12 -72 0 55 42 17 -6 0 0z"/>
    <polygon class="fil0" points="49,175 55,175 55,168 49,168 "/>
    <polygon class="fil0" points="55,179 60,179 60,173 55,173 "/>
    <polygon class="fil0" points="41,185 49,185 49,179 43,179 "/>
    <polygon class="fil0" points="30,190 36,190 36,183 30,183 "/>
    <path class="fil0" d="M119 117c0,2 0,4 -2,4 -6,5 -12,11 -17,15l-2 11 55 43 -17 -68 -17 -5 0 0z"/>
    <path class="fil1" d="M247 151c2,-12 4,-29 9,-51 0,21 0,38 0,51l-9 0zm30 -78l-40 0 0 0 -22 0 0 2c7,2 15,4 20,10l-20 107 26 0 4 -21 9 0 0 21 27 0 -4 -119 0 0z"/>
    <polygon class="fil1" points="322,73 315,170 330,170 328,192 286,192 296,73 "/>
    <polygon class="fil1" points="373,73 364,170 380,170 377,192 335,192 347,73 "/>
    <path class="fil1" d="M446 109l-24 0 2 -9c0,-4 0,-6 0,-8 -2,0 -2,-2 -4,-2 -2,0 -2,2 -4,4 0,0 -2,4 -2,6 0,4 0,7 0,9 2,2 4,4 8,8 11,7 17,15 21,21 2,3 3,13 2,24 0,9 -2,15 -4,19 -2,4 -6,7 -12,9 -5,4 -11,6 -16,6 -8,0 -14,-2 -17,-6 -6,-4 -8,-7 -10,-11 -2,-6 -2,-13 0,-21l0 -7 25 0 -2 13c0,6 0,7 2,9 0,2 2,2 2,2 1,0 3,-2 5,-2 0,-2 2,-5 2,-7 0,-8 0,-12 -2,-15 -2,-2 -5,-6 -11,-10 -6,-5 -10,-9 -11,-11 -2,-2 -4,-6 -6,-9 0,-4 0,-10 0,-17 0,-8 2,-15 4,-19 3,-4 5,-8 11,-10 4,-3 9,-3 17,-3 6,0 11,0 17,3 4,2 7,6 7,10 2,4 2,11 2,20l-2 4z"/>
    <polygon class="fil1" points="461,73 505,73 503,98 486,98 484,121 499,121 497,143 482,143 480,170 499,170 497,192 450,192 "/>
    <path class="fil1" d="M573 126l-27 0 2 -21c0,-7 0,-11 0,-11 0,-2 -2,-4 -4,-4 -2,0 -3,2 -3,4 -2,2 -2,6 -2,11l-6 55c0,8 0,11 0,11 0,2 2,4 4,4 2,0 4,-2 4,-4 1,0 1,-5 1,-11l2 -15 27 0 0 4c-2,13 -4,22 -6,26 -2,6 -6,10 -9,13 -6,6 -14,8 -21,8 -8,0 -13,-2 -19,-6 -4,-4 -7,-7 -7,-13 -2,-6 -2,-15 0,-26l1 -36c2,-8 2,-15 4,-19 0,-4 2,-7 6,-13 2,-4 6,-6 9,-8 6,-3 12,-3 17,-3 8,0 13,1 19,5 4,2 8,8 8,13 2,4 2,14 0,25l0 11z"/>
    <path class="fil1" d="M646 73l-6 80c-1,9 -1,15 -1,18 -2,4 -4,8 -6,12 -4,3 -8,7 -11,9 -4,2 -10,4 -15,4 -6,0 -12,-2 -16,-4 -3,-4 -7,-6 -9,-9 -2,-4 -4,-8 -4,-13 0,-4 2,-12 2,-27l8 -70 26 0 -9 89c0,6 0,9 0,11 0,0 2,2 3,2 2,0 2,-2 4,-2 0,-2 0,-5 0,-11l8 -89 26 0 0 0z"/>
    <path class="fil1" d="M657 73l19 0c13,0 21,0 27,2 3,0 7,4 9,8 2,6 4,13 2,22 0,10 -2,16 -4,19 -4,4 -7,6 -13,6 6,2 9,4 11,6 0,3 2,5 2,7 0,2 0,8 -2,19l-2 30 -24 0 4 -39c0,-6 0,-10 0,-12 -2,-2 -4,-2 -8,-2l-4 53 -26 0 9 -119 0 0zm25 21l-2 27c4,0 6,0 8,-2 0,0 1,-4 1,-10l0 -5c0,-4 0,-8 0,-8 -1,-2 -3,-2 -7,-2l0 0z"/>
    <polygon class="fil1" points="727,73 772,73 770,98 752,98 750,121 767,121 765,143 748,143 746,170 765,170 763,192 718,192 "/>
    <polygon class="fil0" points="41,202 34,202 36,194 41,194 "/>
    <polygon class="fil0" points="24,211 19,211 19,203 24,203 "/>
   </g>
  </g>
 </g>
</svg>
