<?xml version="1.0" encoding="UTF-8"?>
<!DOCTYPE svg PUBLIC "-//W3C//DTD SVG 1.1//EN" "http://www.w3.org/Graphics/SVG/1.1/DTD/svg11.dtd">
<!-- Creator: CorelDRAW X8 -->
<svg xmlns="http://www.w3.org/2000/svg" xml:space="preserve" width="690px" height="436px" version="1.1" style="shape-rendering:geometricPrecision; text-rendering:geometricPrecision; image-rendering:optimizeQuality; fill-rule:evenodd; clip-rule:evenodd"
viewBox="0 0 261 165"
 xmlns:xlink="http://www.w3.org/1999/xlink">
 <defs>
  <style type="text/css">
   <![CDATA[
    .fil1 {fill:#E6E7E8}
    .fil0 {fill:#D2D3D5;fill-opacity:0.070588}
   ]]>
  </style>
 </defs>
 <g id="Layer_x0020_1">
  <metadata id="CorelCorpID_0Corel-Layer"/>
  <path class="fil0" d="M240 0l-219 0c-12,0 -21,9 -21,21l0 123c0,12 10,21 21,21l219 0c12,0 21,-9 21,-21l0 -123c0,-12 -10,-21 -21,-21l0 0zm0 7c8,0 14,6 14,14l0 123c0,8 -6,14 -14,14l-219 0c-8,0 -14,-6 -14,-14l0 -123c0,-8 6,-14 14,-14l219 0z"/>
  <polygon class="fil1" points="87,100 87,94 66,94 66,120 87,120 87,114 72,114 72,110 87,110 87,104 72,104 72,100 "/>
  <polygon class="fil1" points="108,120 117,120 106,107 117,94 108,94 102,102 96,94 88,94 98,107 88,120 96,120 102,112 108,120 "/>
  <path class="fil1" d="M119 94l0 26 7 0 0 -9 8 0c6,0 9,-3 9,-8 0,-6 -3,-9 -9,-9l-15 0zm17 8c0,0 0,0 0,0 0,2 -1,3 -2,3 -1,0 -1,0 -1,0l-7 0 0 -5 7 0c0,0 1,0 1,0 1,0 2,1 2,2 0,1 0,1 0,0z"/>
  <path class="fil1" d="M151 111l2 0 8 9 9 0 -9 -10c4,0 7,-4 7,-8 0,0 0,0 0,0 0,-5 -4,-8 -9,-8l-15 0 0 26 7 0 0 -9 0 0zm7 -11c0,0 0,0 0,0 2,0 3,1 3,2 0,0 0,0 0,0 0,2 -1,3 -3,3l-7 0 0 -5 7 0z"/>
  <polygon class="fil1" points="192,100 192,94 171,94 171,120 192,120 192,114 177,114 177,110 192,110 192,104 177,104 177,100 "/>
  <g>
   <path class="fil1" d="M214 72l8 0 0 -27 -7 0 0 17 -10 -17 -9 0 0 27 7 0 0 -17 11 17zm-38 -11l4 -9 4 9 -8 0zm12 11l8 0 -12 -27 -8 0 -12 27 8 0 2 -6 12 0 2 6zm-27 0l0 0 3 -6 -2 0c-4,0 -7,-3 -7,-7l0 -1c0,-4 3,-7 7,-7l7 0 0 -6 -8 0c-8,0 -12,6 -12,13l0 1c0,8 4,13 12,13l0 0zm-22 0l6 0 0 -27 -6 0 0 27zm-13 -21c2,0 3,2 3,3 0,2 -1,3 -3,3l-7 0 0 -6 7 0zm-7 11l3 0 7 10 9 0 -9 -10c4,-1 7,-4 7,-8 0,-4 -4,-9 -9,-9l-15 0 0 27 7 0 0 -10zm-11 -11l0 -6 -21 0 0 27 21 0 0 -6 -14 0 0 -5 14 0 0 -5 -14 0 0 -5 14 0zm-45 21l6 0 7 -20 0 20 6 0 0 -27 -10 0 -6 17 -6 -17 -11 0 0 27 7 0 0 -20 7 20zm-34 -11l4 -9 4 9 -8 0zm12 11l8 0 -12 -27 -8 0 -12 27 8 0 2 -6 12 0 2 6z"/>
  </g>
  <path class="fil1" d="M208 104c6,0 9,2 9,8 0,5 -4,8 -9,8l-14 0 0 -6 14 0c1,0 2,-1 2,-2l0 0c0,-1 -1,-2 -2,-2 0,0 0,0 0,0l-7 0c-5,0 -8,-3 -8,-8 0,-5 4,-8 9,-8l14 0 -2 6 -12 0c0,0 0,0 0,0 -1,0 -2,1 -2,2l0 0 0 0c0,1 1,2 2,2 0,0 0,0 0,0l6 0z"/>
  <path class="fil1" d="M232 104c5,0 8,2 8,8 0,5 -3,8 -9,8l-14 0 0 -6 14 0c1,0 2,-1 2,-2l0 0c0,-1 -1,-2 -2,-2 0,0 0,0 0,0l-6 0c-5,0 -9,-3 -9,-8 0,-5 4,-8 10,-8l14 0 -3 6 -11 0c-1,0 -1,0 -1,0 -1,0 -2,1 -2,2l0 0 0 0c0,1 1,2 2,2 0,0 0,0 1,0l6 0z"/>
  <path class="fil0" d="M240 0l-219 0c-12,0 -21,9 -21,21l0 123c0,12 10,21 21,21l219 0c12,0 21,-9 21,-21l0 -123c0,-12 -10,-21 -21,-21l0 0zm0 7c8,0 14,6 14,14l0 123c0,8 -6,14 -14,14l-219 0c-8,0 -14,-6 -14,-14l0 -123c0,-8 6,-14 14,-14l219 0z"/>
 </g>
</svg>
