<?xml version="1.0" encoding="UTF-8"?>
<!DOCTYPE svg PUBLIC "-//W3C//DTD SVG 1.1//EN" "http://www.w3.org/Graphics/SVG/1.1/DTD/svg11.dtd">
<!-- Creator: CorelDRAW X8 -->
<svg xmlns="http://www.w3.org/2000/svg" xml:space="preserve" width="690px" height="436px" version="1.1" style="shape-rendering:geometricPrecision; text-rendering:geometricPrecision; image-rendering:optimizeQuality; fill-rule:evenodd; clip-rule:evenodd"
viewBox="0 0 265 167"
 xmlns:xlink="http://www.w3.org/1999/xlink">
 <defs>
  <style type="text/css">
   <![CDATA[
    .fil1 {fill:#E6E7E8}
    .fil0 {fill:#D2D3D5;fill-opacity:0.070588}
   ]]>
  </style>
 </defs>
 <g id="Layer_x0020_1">
  <metadata id="CorelCorpID_0Corel-Layer"/>
  <path class="fil0" d="M244 0l-223 0c-12,0 -21,9 -21,21l0 125c0,12 10,21 21,21l223 0c12,0 21,-9 21,-21l0 -125c0,-12 -10,-21 -21,-21l0 0zm0 7c7,0 14,6 14,14l0 125c0,8 -7,14 -14,14l-223 0c-8,0 -14,-6 -14,-14l0 -125c0,-8 6,-14 14,-14l223 0z"/>
  <path class="fil1" d="M110 110c0,7 -6,13 -13,13l-14 0 0 -68c0,-8 6,-14 14,-14l13 0 0 69z"/>
  <path class="fil1" d="M145 110c0,7 -7,13 -14,13l-14 0 0 -68c0,-8 6,-14 14,-14l14 0 0 69z"/>
  <path class="fil1" d="M179 110c0,7 -6,13 -14,13l-14 0 0 -68c0,-8 7,-14 14,-14l14 0 0 69z"/>
 </g>
</svg>
