<?xml version="1.0" encoding="UTF-8"?>
<!DOCTYPE svg PUBLIC "-//W3C//DTD SVG 1.1//EN" "http://www.w3.org/Graphics/SVG/1.1/DTD/svg11.dtd">
<!-- Creator: CorelDRAW X8 -->
<svg xmlns="http://www.w3.org/2000/svg" xml:space="preserve" width="690px" height="436px" version="1.1" style="shape-rendering:geometricPrecision; text-rendering:geometricPrecision; image-rendering:optimizeQuality; fill-rule:evenodd; clip-rule:evenodd"
viewBox="0 0 265 168"
 xmlns:xlink="http://www.w3.org/1999/xlink">
 <defs>
  <style type="text/css">
   <![CDATA[
    .fil1 {fill:#E6E7E8}
    .fil0 {fill:#D2D3D5}
    .fil2 {fill:#D2D3D5;fill-opacity:0.070588}
   ]]>
  </style>
 </defs>
 <g id="Layer_x0020_1">
  <metadata id="CorelCorpID_0Corel-Layer"/>
  <circle class="fil0" cx="98" cy="68" r="51"/>
  <circle class="fil1" cx="157" cy="68" r="51"/>
  <path class="fil1" d="M149 68c0,-18 -8,-33 -21,-42 -14,9 -22,25 -22,42 0,16 8,32 22,41 13,-9 21,-24 21,-41z"/>
  <path class="fil2" d="M244 0l-223 0c-12,0 -21,9 -21,21l0 126c0,11 10,21 21,21l223 0c12,0 21,-10 21,-21l0 -126c0,-12 -9,-21 -21,-21l0 0zm0 7c8,0 14,6 14,14l0 126c0,7 -6,14 -14,14l-223 0c-8,0 -14,-7 -14,-14l0 -126c0,-8 6,-14 14,-14l223 0z"/>
  <path class="fil2" d="M244 0l-223 0c-12,0 -21,9 -21,21l0 126c0,11 10,21 21,21l223 0c12,0 21,-10 21,-21l0 -126c0,-12 -9,-21 -21,-21l0 0zm0 7c8,0 14,6 14,14l0 126c0,7 -6,14 -14,14l-223 0c-8,0 -14,-7 -14,-14l0 -126c0,-8 6,-14 14,-14l223 0z"/>
  <g id="_1520634258016">
   <g>
    <path class="fil0" d="M186 133c1,0 3,0 4,0l-2 4c-1,0 -2,0 -2,0 -3,0 -5,1 -5,5l0 11 -4 0 0 -20 4 0 0 2c1,-1 3,-2 5,-2l0 0zm-15 4l-7 0 0 9c0,2 0,3 2,3 2,0 3,0 4,-1l1 4c-1,1 -3,1 -5,1 -5,0 -7,-2 -7,-7l0 -9 -4 0 0 -4 4 0 0 -6 5 0 0 6 7 0 0 4zm-55 4c0,-3 2,-5 5,-5 3,0 4,2 5,5l-10 0zm14 2c0,-6 -3,-10 -9,-10 -6,0 -10,4 -10,10 0,6 4,10 10,10 3,0 6,0 8,-3l-2 -3c-1,2 -3,2 -5,2 -3,0 -6,-1 -6,-4l14 0c0,-1 0,-2 0,-2l0 0zm19 -5c-1,-1 -3,-2 -6,-2 -2,0 -4,1 -4,3 0,1 2,1 4,2l2 0c4,1 7,2 7,6 0,4 -4,6 -9,6 -4,0 -7,-1 -9,-2l2 -4c2,1 4,2 7,2 3,0 4,0 4,-2 0,-1 -1,-2 -3,-2l-2 0c-5,-1 -7,-3 -7,-6 0,-4 3,-6 8,-6 3,0 6,0 8,2l-2 3zm53 -1c-1,0 -2,0 -2,0 -1,0 -2,1 -2,1 -1,1 -1,2 -2,2 0,1 0,2 0,3 0,1 0,2 0,3 1,0 1,1 2,2 0,0 1,1 2,1 0,0 1,0 2,0 1,0 2,0 3,0 0,0 1,-1 2,-1 0,-1 1,-2 1,-2 0,-1 0,-2 0,-3 0,-1 0,-2 0,-3 0,0 -1,-1 -1,-2 -1,0 -2,-1 -2,-1 -1,0 -2,0 -3,0l0 0zm0 -4c2,0 3,0 4,0 2,1 3,2 4,3 1,0 1,2 2,3 1,1 1,2 1,4 0,1 0,3 -1,4 -1,1 -1,2 -2,3 -1,1 -2,2 -4,3 -1,0 -2,0 -4,0 -1,0 -3,0 -4,0 -1,-1 -3,-2 -3,-3 -1,-1 -2,-2 -3,-3 0,-1 -1,-3 -1,-4 0,-2 1,-3 1,-4 1,-1 2,-3 3,-3 0,-1 2,-2 3,-3 1,0 3,0 4,0l0 0zm-111 10c0,-4 2,-6 6,-6 3,0 6,2 6,6 0,3 -3,6 -6,6 -4,0 -6,-3 -6,-6l0 0zm16 0l0 -10 -5 0 0 2c-1,-1 -3,-2 -6,-2 -5,0 -10,4 -10,10 0,6 5,10 10,10 3,0 5,-1 6,-3l0 3 5 0 0 -10zm-25 10l0 -13c0,-4 -3,-7 -7,-7 -3,-1 -5,0 -7,3 -2,-2 -4,-3 -7,-3 -2,0 -4,0 -6,2l0 -2 -4 0 0 20 4 0 0 -11c0,-4 2,-5 5,-5 3,0 5,1 5,5l0 11 4 0 0 -11c0,-4 2,-5 5,-5 3,0 4,1 4,5l0 11 4 0z"/>
   </g>
  </g>
 </g>
</svg>
