<?xml version="1.0" encoding="UTF-8"?>
<!DOCTYPE svg PUBLIC "-//W3C//DTD SVG 1.1//EN" "http://www.w3.org/Graphics/SVG/1.1/DTD/svg11.dtd">
<!-- Creator: CorelDRAW X8 -->
<svg xmlns="http://www.w3.org/2000/svg" xml:space="preserve" width="690px" height="436px" version="1.1" style="shape-rendering:geometricPrecision; text-rendering:geometricPrecision; image-rendering:optimizeQuality; fill-rule:evenodd; clip-rule:evenodd"
viewBox="0 0 1513 955"
 xmlns:xlink="http://www.w3.org/1999/xlink">
 <defs>
  <style type="text/css">
   <![CDATA[
    .fil1 {fill:#E6E7E8}
    .fil0 {fill:#D2D3D5}
    .fil2 {fill:#D2D3D5;fill-opacity:0.070588}
   ]]>
  </style>
 </defs>
 <g id="Layer_x0020_1">
  <metadata id="CorelCorpID_0Corel-Layer"/>
  <circle class="fil0" cx="560" cy="385" r="292"/>
  <circle class="fil1" cx="894" cy="385" r="292"/>
  <path class="fil1" d="M852 385c0,-100 -50,-188 -125,-238 -75,55 -125,142 -125,238 0,96 50,187 125,237 75,-50 125,-137 125,-237z"/>
  <path class="fil2" d="M1393 0l-1274 0c-67,0 -119,52 -119,119l0 717c0,68 56,119 119,119l1274 0c68,0 120,-51 120,-119l0 -717c0,-67 -56,-119 -120,-119l0 0zm0 40c44,0 80,36 80,79l0 717c0,44 -36,79 -80,79l-1274 0c-43,0 -79,-35 -79,-79l0 -717c0,-43 36,-79 79,-79l1274 0z"/>
  <path class="fil2" d="M1393 0l-1274 0c-67,0 -119,52 -119,119l0 717c0,68 56,119 119,119l1274 0c68,0 120,-51 120,-119l0 -717c0,-67 -56,-119 -120,-119l0 0zm0 40c44,0 80,36 80,79l0 717c0,44 -36,79 -80,79l-1274 0c-43,0 -79,-35 -79,-79l0 -717c0,-43 36,-79 79,-79l1274 0z"/>
  <g>
   <path class="fil0" d="M1403 857l0 3 2 0c1,0 1,-1 2,-1 0,0 0,0 0,-1 0,0 0,-1 0,-1 -1,0 -1,0 -2,0l-2 0zm2 -2c2,0 3,0 3,1 1,0 2,1 2,2 0,1 -1,2 -1,2 -1,1 -2,1 -3,1l4 4 -3 0 -3 -4 -1 0 0 4 -2 0 0 -10 4 0zm0 14c1,0 2,0 3,-1 1,0 2,-1 3,-2 1,0 1,-1 2,-2 0,-2 0,-3 0,-4 0,-1 0,-2 0,-3 -1,-1 -1,-2 -2,-3 -1,-1 -2,-1 -3,-2 -1,0 -2,-1 -3,-1 -1,0 -3,1 -4,1 -1,1 -2,1 -2,2 -1,1 -2,2 -2,3 -1,1 -1,2 -1,3 0,1 0,2 1,4 0,1 1,2 2,2 0,1 1,2 2,2 1,1 3,1 4,1l0 0zm0 -20c1,0 3,0 4,1 2,0 3,1 4,2 1,1 2,2 2,4 1,1 1,3 1,4 0,2 0,3 -1,4 0,2 -1,3 -2,4 -1,1 -2,2 -4,2 -1,1 -3,1 -4,1 -2,0 -3,0 -5,-1 -1,0 -2,-1 -3,-2 -1,-1 -2,-2 -3,-4 0,-1 -1,-2 -1,-4 0,-1 1,-3 1,-4 1,-2 2,-3 3,-4 1,-1 2,-2 3,-2 2,-1 3,-1 5,-1l0 0zm-1050 -40c0,-20 13,-36 35,-36 20,0 33,16 33,36 0,20 -13,36 -33,36 -22,0 -35,-16 -35,-36l0 0zm91 0l0 -56 -24 0 0 13c-8,-10 -19,-16 -35,-16 -32,0 -57,25 -57,59 0,34 25,59 57,59 16,0 27,-6 35,-16l0 13 24 0 0 -56zm827 0c0,-20 13,-36 34,-36 20,0 34,16 34,36 0,20 -14,36 -34,36 -21,0 -34,-16 -34,-36l0 0zm91 0l0 -101 -25 0 0 58c-7,-10 -19,-16 -35,-16 -32,0 -56,25 -56,59 0,34 24,59 56,59 16,0 28,-6 35,-16l0 13 25 0 0 -56zm-614 -37c16,0 26,10 29,27l-59 0c3,-16 13,-27 30,-27l0 0zm1 -22c-33,0 -56,24 -56,59 0,36 24,59 57,59 17,0 33,-4 46,-16l-12 -18c-9,8 -21,12 -32,12 -16,0 -31,-7 -34,-28l83 0c1,-3 1,-6 1,-9 0,-35 -22,-59 -53,-59l0 0zm295 59c0,-20 13,-36 34,-36 20,0 34,16 34,36 0,20 -14,36 -34,36 -21,0 -34,-16 -34,-36l0 0zm91 0l0 -56 -25 0 0 13c-7,-10 -19,-16 -35,-16 -32,0 -56,25 -56,59 0,34 24,59 56,59 16,0 28,-6 35,-16l0 13 25 0 0 -56zm-229 0c0,34 23,59 60,59 17,0 28,-4 40,-13l-12 -20c-9,6 -18,10 -29,10 -20,0 -34,-14 -34,-36 0,-22 14,-36 34,-36 11,0 20,4 29,10l12 -20c-12,-9 -23,-13 -40,-13 -37,0 -60,25 -60,59l0 0zm315 -59c-14,0 -23,7 -30,16l0 -13 -24 0 0 112 25 0 0 -63c0,-18 8,-29 24,-29 5,0 10,1 15,3l7 -23c-5,-2 -12,-3 -17,-3l0 0zm-656 12c-11,-8 -28,-12 -45,-12 -29,0 -47,14 -47,36 0,18 13,30 39,33l11 2c14,2 20,5 20,12 0,8 -9,13 -26,13 -17,0 -29,-5 -37,-12l-12 19c14,10 31,15 49,15 32,0 51,-15 51,-37 0,-19 -15,-30 -39,-33l-12 -2c-10,-1 -19,-3 -19,-11 0,-8 8,-13 22,-13 14,0 28,5 35,9l10 -19zm316 -12c-14,0 -23,7 -30,16l0 -13 -24 0 0 112 25 0 0 -63c0,-18 8,-29 24,-29 5,0 10,1 15,3l7 -23c-5,-2 -12,-3 -17,-3l0 0zm-209 3l-40 0 0 -34 -24 0 0 34 -23 0 0 22 23 0 0 51c0,27 10,42 39,42 10,0 22,-3 30,-9l-7 -21c-7,5 -15,7 -21,7 -13,0 -17,-8 -17,-19l0 -51 40 0 0 -22zm-365 112l0 -70c0,-27 -17,-45 -45,-45 -14,0 -29,4 -39,20 -8,-13 -20,-20 -37,-20 -12,0 -24,3 -33,17l0 -14 -25 0 0 112 25 0 0 -62c0,-20 11,-30 28,-30 16,0 24,11 24,30l0 62 25 0 0 -62c0,-20 11,-30 27,-30 17,0 25,11 25,30l0 62 25 0z"/>
  </g>
 </g>
</svg>
