<?xml version="1.0" encoding="utf-8"?>
<!-- Generator: Adobe Illustrator 19.0.0, SVG Export Plug-In . SVG Version: 6.00 Build 0)  -->
<svg version="1.1" id="Layer_1" xmlns="http://www.w3.org/2000/svg" xmlns:xlink="http://www.w3.org/1999/xlink" x="0px" y="0px"
	 viewBox="-1 2.6 296.5 297.4" style="enable-background:new -1 2.6 296.5 297.4;" xml:space="preserve">
<style type="text/css">
	.st0{fill:#D2D3D5;}
	.st1{fill:#E6E7E8;}
</style>
<path class="st0" d="M285.1,298h-0.6v1.5h-0.3V298h-0.6v-0.3h1.4V298z M287.3,299.5L287.3,299.5H287V298l-0.5,1.3h-0.3l-0.5-1.3v1.4
	h-0.3v-1.8h0.4l0.5,1.3l0.5-1.3h0.4V299.5z M19.1,299.5L19.1,299.5h-3.9v-44.6h3.9V299.5z M48.7,254.9L48.7,254.9
	c3.7,0,7,0.5,10,1.6c3,1,5.5,2.5,7.6,4.5c2.1,1.9,3.7,4.3,4.8,7c1.1,2.8,1.7,5.8,1.7,9.2c0,3.4-0.6,6.5-1.7,9.2
	c-1.1,2.8-2.7,5.1-4.8,7c-2.1,1.9-4.6,3.4-7.6,4.4c-3,1.1-6.3,1.6-10,1.6H32.5v-44.6H48.7z M36.4,258.6L36.4,258.6v37.2h12.4
	c3.2,0,6.1-0.4,8.6-1.3c2.5-0.9,4.6-2.1,6.3-3.7c1.7-1.6,3-3.6,3.9-5.9c0.9-2.3,1.3-4.9,1.3-7.7c0-2.8-0.4-5.4-1.3-7.7
	c-0.9-2.3-2.2-4.3-3.9-5.9c-1.7-1.6-3.8-2.9-6.3-3.7c-2.5-0.9-5.3-1.3-8.6-1.3H36.4z M120.5,254.4L120.5,254.4
	c1.9,0,3.8,0.2,5.5,0.6c1.8,0.4,3.4,1,5,1.8c1.6,0.8,3,1.8,4.2,2.9c1.3,1.1,2.3,2.4,3.2,3.8l-3.2,2.2c-0.8-1.2-1.7-2.2-2.7-3.1
	c-1.1-0.9-2.2-1.7-3.5-2.4c-1.3-0.6-2.6-1.2-4.1-1.5s-3-0.5-4.5-0.5c-2.6,0-5.1,0.5-7.4,1.4c-2.3,0.9-4.3,2.2-6,3.9
	c-1.7,1.7-3,3.7-4,6c-1,2.3-1.4,4.9-1.4,7.7c0,2.9,0.5,5.4,1.4,7.8c1,2.3,2.3,4.3,4,6c1.7,1.7,3.7,3,6,3.9c2.3,0.9,4.8,1.4,7.4,1.4
	c1.5,0,3.1-0.2,4.5-0.5c1.4-0.3,2.8-0.8,4.1-1.5s2.4-1.4,3.5-2.4c1-0.9,2-2,2.7-3.2l3.2,2.3c-0.9,1.4-2,2.6-3.3,3.7s-2.7,2-4.2,2.8
	c-1.5,0.8-3.2,1.4-4.9,1.8c-1.7,0.4-3.6,0.6-5.5,0.6c-3.2,0-6.3-0.6-9.1-1.7c-2.8-1.1-5.2-2.7-7.2-4.7c-2-2-3.6-4.4-4.8-7.2
	s-1.7-5.9-1.7-9.2c0-3.3,0.6-6.4,1.7-9.2c1.1-2.8,2.8-5.2,4.8-7.2c2-2,4.5-3.6,7.2-4.7C114.2,255,117.3,254.4,120.5,254.4z
	 M151.7,274.7L151.7,274.7c0.6-1,1.3-1.8,2.1-2.6c0.8-0.7,1.7-1.3,2.6-1.7c0.9-0.5,1.9-0.8,2.9-1c1-0.2,2-0.3,3.1-0.3
	c1.9,0,3.6,0.3,5.1,0.9c1.5,0.6,2.9,1.4,4,2.4c1.1,1,2,2.3,2.6,3.8c0.6,1.5,0.9,3.1,0.9,5v18.3h-3.6v-17.2c0-1.5-0.2-2.9-0.6-4.1
	c-0.4-1.2-1-2.2-1.9-3.1c-0.8-0.8-1.8-1.5-3-1.9c-1.2-0.5-2.5-0.7-4.1-0.7c-1.4,0-2.7,0.3-3.9,0.7c-1.2,0.5-2.3,1.2-3.2,2
	c-0.9,0.9-1.6,1.9-2.1,3.1c-0.5,1.2-0.8,2.6-0.8,4v17.1h-3.6v-45.8h3.6V274.7z M198.7,269.1L198.7,269.1c2,0,3.8,0.4,5.5,1.1
	c1.7,0.8,3.2,1.8,4.4,3.1c1.2,1.4,2.2,3,2.9,4.9c0.7,1.9,1.1,3.9,1.1,6.1c0,0.3,0,0.6,0,0.8c0,0.3,0,0.5,0,0.7h-25.1
	c0.1,1.7,0.5,3.3,1.2,4.6c0.6,1.4,1.5,2.5,2.5,3.5c1,0.9,2.2,1.7,3.6,2.1c1.3,0.5,2.8,0.7,4.3,0.7c2.1,0,4-0.4,5.6-1.1
	c1.7-0.8,3.1-1.8,4.5-3.1l1.9,2.5c-1,1-1.9,1.8-2.9,2.4c-1,0.6-2,1.1-3,1.5c-1,0.4-2.1,0.6-3.1,0.8c-1.1,0.2-2.1,0.2-3.2,0.2
	c-2.2,0-4.2-0.4-6-1.1c-1.9-0.8-3.4-1.8-4.8-3.2c-1.3-1.4-2.4-3-3.1-4.9c-0.7-1.9-1.1-4-1.1-6.3c0-2.3,0.4-4.3,1.1-6.2
	c0.8-1.9,1.8-3.5,3.1-4.9c1.3-1.4,2.9-2.4,4.7-3.2C194.6,269.5,196.6,269.1,198.7,269.1z M198.6,272.3L198.6,272.3
	c-1.5,0-2.9,0.3-4.2,0.8c-1.3,0.5-2.4,1.2-3.3,2.2c-0.9,0.9-1.7,2-2.3,3.3c-0.6,1.3-1,2.7-1.2,4.2H209c-0.1-1.6-0.5-3-1.1-4.3
	c-0.6-1.3-1.3-2.4-2.2-3.3c-0.9-0.9-2-1.6-3.2-2.1C201.3,272.6,200,272.3,198.6,272.3z M234.8,269.1L234.8,269.1
	c2.2,0,4.3,0.4,6.2,1.2c1.9,0.8,3.5,1.9,4.9,3.4l-2.3,2.5c-1.2-1.2-2.5-2.1-3.9-2.7c-1.5-0.6-3.1-1-4.9-1c-1.6,0-3.2,0.3-4.6,0.9
	c-1.4,0.6-2.6,1.4-3.7,2.5c-1,1.1-1.8,2.3-2.4,3.8c-0.6,1.5-0.9,3.1-0.9,4.8c0,1.7,0.3,3.3,0.9,4.8c0.6,1.5,1.4,2.8,2.4,3.8
	c1,1.1,2.3,1.9,3.7,2.5c1.4,0.6,2.9,0.9,4.6,0.9c1.8,0,3.4-0.3,4.9-1c1.5-0.7,2.8-1.6,4-2.7l2.3,2.5c-1.4,1.5-3,2.7-4.9,3.4
	c-1.9,0.8-3.9,1.2-6.2,1.2c-2.3,0-4.3-0.4-6.2-1.2c-1.9-0.8-3.5-1.9-4.9-3.2c-1.4-1.4-2.4-3-3.1-4.9c-0.8-1.9-1.1-3.9-1.1-6.1
	c0-2.2,0.4-4.3,1.1-6.2c0.7-1.9,1.8-3.5,3.1-4.9c1.4-1.4,3-2.5,4.9-3.2C230.5,269.5,232.6,269.1,234.8,269.1z M258.1,282.2
	L258.1,282.2h4.9l12.6-12.6h4.6l-14.3,14.1l14.5,15.8h-4.6l-12.8-14h-4.9v14h-3.6v-45.8h3.6V282.2z M53,232L53,232v-15.3
	c0-5.8-3.7-9.6-9.6-9.7c-3.1,0-6.3,0.9-8.6,4.3c-1.7-2.7-4.3-4.3-8-4.3c-2.6,0-5.1,0.8-7.1,3.6v-3h-5.3V232h5.3v-13.5
	c0-4.2,2.3-6.5,6-6.5c3.5,0,5.3,2.3,5.3,6.4V232h5.3v-13.5c0-4.2,2.5-6.5,6-6.5c3.6,0,5.4,2.3,5.4,6.4V232H53z M132.1,207.7
	L132.1,207.7h-8.7v-7.4h-5.3v7.4h-4.9v4.8h4.9v11.1c0,5.6,2.2,9,8.5,9c2.3,0,4.9-0.7,6.6-1.9l-1.5-4.5c-1.6,0.9-3.3,1.4-4.7,1.4
	c-2.6,0-3.5-1.6-3.5-4.1v-11h8.7V207.7z M177.2,207L177.2,207c-3.1,0-5,1.4-6.4,3.6v-2.9h-5.2V232h5.3v-13.6c0-4,1.7-6.3,5.2-6.3
	c1.1,0,2.2,0.2,3.3,0.6l1.6-5C179.8,207.2,178.3,207,177.2,207z M109,209.6L109,209.6c-2.6-1.7-6.1-2.6-9.9-2.6
	c-6.2,0-10.1,2.9-10.1,7.8c0,4,2.9,6.4,8.4,7.2l2.5,0.4c2.9,0.4,4.3,1.1,4.3,2.5c0,1.9-1.9,3-5.5,3c-3.7,0-6.3-1.2-8.1-2.6l-2.5,4.1
	c2.9,2.1,6.6,3.2,10.5,3.2c7,0,11.1-3.3,11.1-8c0-4.3-3.2-6.5-8.5-7.3l-2.5-0.3c-2.3-0.3-4.1-0.8-4.1-2.4c0-1.8,1.7-2.9,4.6-2.9
	c3.1,0,6.1,1.2,7.6,2.1L109,209.6z M250.8,207L250.8,207c-3.1,0-5,1.4-6.4,3.6v-2.9h-5.2V232h5.3v-13.6c0-4,1.7-6.3,5.2-6.3
	c1.1,0,2.2,0.2,3.3,0.6l1.6-5C253.4,207.2,251.8,207,250.8,207z M182.6,219.8L182.6,219.8c0,7.4,5.1,12.8,13,12.8
	c3.7,0,6.1-0.8,8.8-2.9l-2.5-4.3c-2,1.4-4.1,2.2-6.4,2.2c-4.2-0.1-7.3-3.1-7.3-7.8c0-4.7,3.1-7.7,7.3-7.8c2.3,0,4.4,0.8,6.4,2.2
	l2.5-4.3c-2.6-2.1-5.1-2.9-8.8-2.9C187.7,207,182.6,212.4,182.6,219.8z M232.1,219.8L232.1,219.8v-12.2h-5.3v2.9
	c-1.7-2.2-4.2-3.6-7.7-3.6c-6.8,0-12.2,5.3-12.2,12.8c0,7.4,5.3,12.8,12.2,12.8c3.5,0,6-1.4,7.7-3.6v2.9h5.3V219.8z M212.4,219.8
	L212.4,219.8c0-4.3,2.8-7.8,7.4-7.8c4.4,0,7.3,3.4,7.3,7.8c0,4.4-3,7.8-7.3,7.8C215.2,227.6,212.4,224.1,212.4,219.8z M148.5,207
	L148.5,207c-7.1,0-12.1,5.2-12.1,12.8c0,7.7,5.2,12.8,12.5,12.8c3.7,0,7-0.9,10-3.4l-2.6-3.9c-2,1.6-4.6,2.5-7.1,2.5
	c-3.4,0-6.5-1.6-7.3-6H160c0-0.6,0.1-1.3,0.1-2C160.1,212.2,155.4,207,148.5,207z M148.4,211.8L148.4,211.8c3.4,0,5.6,2.1,6.2,5.9
	H142C142.5,214.2,144.7,211.8,148.4,211.8z M281.3,219.8L281.3,219.8v-22H276v12.7c-1.7-2.2-4.2-3.6-7.7-3.6
	c-6.8,0-12.2,5.3-12.2,12.8c0,7.4,5.3,12.8,12.2,12.8c3.5,0,6-1.4,7.7-3.6v2.9h5.3V219.8z M261.6,219.8L261.6,219.8
	c0-4.3,2.8-7.8,7.4-7.8c4.4,0,7.3,3.4,7.3,7.8c0,4.4-3,7.8-7.3,7.8C264.4,227.6,261.6,224.1,261.6,219.8z M82.8,219.8L82.8,219.8
	v-12.2h-5.3v2.9c-1.7-2.2-4.2-3.6-7.7-3.6c-6.8,0-12.2,5.3-12.2,12.8c0,7.4,5.4,12.8,12.2,12.8c3.4,0,6-1.4,7.7-3.6v2.9h5.3V219.8z
	 M63.1,219.8L63.1,219.8c0-4.3,2.8-7.8,7.4-7.8c4.4,0,7.3,3.4,7.3,7.8c0,4.4-2.9,7.8-7.3,7.8C65.9,227.6,63.1,224.1,63.1,219.8z
	 M290.1,228.5L290.1,228.5c0.3,0,0.6,0,0.9,0.2c0.3,0.1,0.6,0.3,0.8,0.5c0.2,0.2,0.4,0.5,0.5,0.8c0.1,0.3,0.2,0.6,0.2,0.9
	c0,0.3-0.1,0.6-0.2,0.9c-0.1,0.3-0.3,0.5-0.5,0.8c-0.2,0.2-0.5,0.4-0.8,0.5c-0.3,0.1-0.6,0.2-0.9,0.2c-0.4,0-0.7-0.1-1-0.2
	c-0.3-0.1-0.6-0.3-0.8-0.5c-0.2-0.2-0.4-0.5-0.5-0.8c-0.1-0.3-0.2-0.6-0.2-0.9c0-0.3,0.1-0.6,0.2-0.9c0.1-0.3,0.3-0.6,0.5-0.8
	c0.2-0.2,0.5-0.4,0.8-0.5C289.4,228.5,289.7,228.5,290.1,228.5z M290.1,232.8L290.1,232.8c0.3,0,0.5,0,0.7-0.2
	c0.2-0.1,0.4-0.2,0.6-0.4c0.2-0.2,0.3-0.4,0.4-0.6c0.1-0.2,0.1-0.5,0.1-0.7s0-0.5-0.1-0.7c-0.1-0.2-0.2-0.4-0.4-0.6
	c-0.2-0.2-0.4-0.3-0.6-0.4c-0.2-0.1-0.5-0.1-0.7-0.1c-0.3,0-0.5,0-0.8,0.1c-0.2,0.1-0.4,0.2-0.6,0.4c-0.2,0.2-0.3,0.4-0.4,0.6
	c-0.1,0.2-0.2,0.5-0.2,0.7s0,0.5,0.2,0.7c0.1,0.2,0.2,0.4,0.4,0.6c0.2,0.2,0.4,0.3,0.6,0.4C289.6,232.7,289.8,232.8,290.1,232.8z
	 M290.2,229.7L290.2,229.7c0.3,0,0.5,0,0.7,0.2c0.2,0.1,0.2,0.3,0.2,0.5c0,0.2-0.1,0.3-0.2,0.5c-0.1,0.1-0.3,0.2-0.5,0.2l0.7,0.8
	h-0.6l-0.7-0.8h-0.2v0.8h-0.5v-2.2H290.2z M289.7,230.2L289.7,230.2v0.6h0.6c0.1,0,0.2,0,0.3-0.1c0.1,0,0.1-0.1,0.1-0.2
	s0-0.2-0.1-0.2c-0.1,0-0.2-0.1-0.3-0.1H289.7z"/>
<polygon class="st1" points="187.4,166.3 107.2,166.3 107.2,22.2 187.4,22.2 "/>
<path class="st0" d="M112.3,94.3c0-29.2,13.7-55.3,35-72.1C131.7,9.9,112,2.6,90.6,2.6C40,2.6-1,43.6-1,94.3
	c0,50.6,41,91.6,91.6,91.6c21.4,0,41.1-7.3,56.6-19.6C126,149.5,112.3,123.5,112.3,94.3z"/>
<path class="st0" d="M286.8,151v-2.9h1.2v-0.6h-3v0.6h1.2v2.9H286.8z M292.7,151L292.7,151v-3.6h-0.9l-1.1,2.5l-1.1-2.5h-0.9v3.6
	h0.7v-2.7l1,2.3h0.7l1-2.3v2.7H292.7z"/>
<path class="st1" d="M295.5,94.3c0,50.6-41,91.6-91.6,91.6c-21.4,0-41.1-7.3-56.6-19.6c21.3-16.8,35-42.8,35-72
	c0-29.2-13.7-55.3-35-72.1c15.6-12.3,35.3-19.6,56.6-19.6C254.5,2.6,295.5,43.6,295.5,94.3z"/>
</svg>
