<?xml version="1.0" encoding="UTF-8"?>
<!DOCTYPE svg PUBLIC "-//W3C//DTD SVG 1.1//EN" "http://www.w3.org/Graphics/SVG/1.1/DTD/svg11.dtd">
<!-- Creator: CorelDRAW X8 -->
<svg xmlns="http://www.w3.org/2000/svg" xml:space="preserve" width="185.661mm" height="30.8448mm" version="1.1" style="shape-rendering:geometricPrecision; text-rendering:geometricPrecision; image-rendering:optimizeQuality; fill-rule:evenodd; clip-rule:evenodd"
viewBox="0 0 17644 2931"
 xmlns:xlink="http://www.w3.org/1999/xlink">
 <defs>
  <style type="text/css">
   <![CDATA[
    .fil0 {fill:#E6E7E8}
   ]]>
  </style>
 </defs>
 <g id="Layer_x0020_1">
  <metadata id="CorelCorpID_0Corel-Layer"/>
  <polygon class="fil0" points="14855,4 15497,1928 16248,1928 15606,4 "/>
  <polygon class="fil0" points="16890,4 16247,1928 17000,1928 17644,4 "/>
  <polygon class="fil0" points="12818,4 13461,1928 12708,1928 12065,4 "/>
  <polygon class="fil0" points="14102,4 13127,2931 13880,2931 14855,4 "/>
  <path class="fil0" d="M9253 518c-397,0 -720,323 -720,721 0,398 323,721 720,721 398,0 721,-323 721,-721 0,-398 -323,-721 -721,-721zm0 1124c-53,0 -105,-10 -154,-31 -49,-20 -93,-49 -131,-87 -37,-37 -67,-82 -87,-131 -20,-49 -31,-101 -31,-154 0,-53 11,-106 31,-154 20,-49 50,-94 87,-131 38,-38 82,-67 131,-88 49,-20 101,-31 154,-31 53,0 106,11 155,31 49,21 93,50 130,88 38,37 68,82 88,131 20,48 30,101 30,154 0,53 -10,105 -30,154 -20,49 -50,94 -88,131 -37,37 -81,67 -130,87 -49,21 -102,31 -155,31l0 0zm-1983 -535l-231 -51c-96,-22 -144,-65 -144,-129 0,-70 78,-129 201,-129 141,0 255,59 345,174l220 -219c-160,-154 -343,-230 -556,-230 -315,0 -538,160 -538,410 0,227 151,370 448,435l195 44c135,34 180,76 180,135 0,79 -66,140 -225,140 -171,0 -312,-67 -420,-199l-217 208c151,176 355,266 610,266 372,0 583,-177 583,-426 0,-222 -150,-365 -451,-429zm-5115 -584c-227,0 -434,97 -538,271l240 164c65,-82 151,-146 295,-146 156,0 272,90 272,227l0 60 -290 0c-339,0 -568,145 -568,445 0,127 46,230 133,306 91,76 201,112 334,112 159,0 292,-45 396,-137l0 106 317 0 0 -889c0,-339 -232,-519 -591,-519zm269 1041c-82,78 -193,118 -326,118 -136,0 -209,-62 -209,-155 0,-108 95,-170 242,-171l293 0 0 208 0 0zm5862 -1562l-322 -2 1 322 322 2 -1 -322zm-2321 -2l2 322 322 2 -2 -322 -322 -2zm1 1931l322 0 0 -1374 -322 0 0 1374zm4910 -1408c-153,0 -271,64 -359,162l0 -128 -317 0 0 1374 323 0 0 -760c0,-222 110,-359 305,-359 173,0 274,126 274,320l0 799 323 0 0 -799c0,-384 -207,-609 -549,-609zm-2909 1408l322 0 0 -1374 -322 0 0 1374zm-2916 -296l-372 -1078 -346 0 475 1378 483 0 484 -1376 -346 -2 -378 1078zm-1452 20l-379 -1098 -346 0 475 1378 151 0 -191 538 345 0 679 -1916 -345 0 -389 1098zm-2889 -1132c-161,0 -294,70 -393,173l0 -139 -317 0 0 1919 323 0 0 -646c107,87 237,132 387,132 198,0 360,-67 487,-202 127,-137 189,-308 189,-516 0,-208 -62,-379 -189,-516 -128,-138 -289,-205 -487,-205l0 0zm249 1032c-65,85 -155,127 -271,127 -238,0 -371,-188 -371,-435 0,-247 133,-435 371,-435 115,0 206,42 271,126 65,84 99,188 99,309 0,121 -34,224 -99,308z"/>
 </g>
</svg>
