<?xml version="1.0" encoding="UTF-8"?>
<!DOCTYPE svg PUBLIC "-//W3C//DTD SVG 1.1//EN" "http://www.w3.org/Graphics/SVG/1.1/DTD/svg11.dtd">
<!-- Creator: CorelDRAW X8 -->
<svg xmlns="http://www.w3.org/2000/svg" xml:space="preserve" width="2381px" height="309px" version="1.1" style="shape-rendering:geometricPrecision; text-rendering:geometricPrecision; image-rendering:optimizeQuality; fill-rule:evenodd; clip-rule:evenodd"
viewBox="0 0 2451 318"
 xmlns:xlink="http://www.w3.org/1999/xlink">
 <defs>
  <style type="text/css">
   <![CDATA[
    .fil0 {fill:#E6E7E8}
   ]]>
  </style>
 </defs>
 <g id="Layer_x0020_1">
  <metadata id="CorelCorpID_0Corel-Layer"/>
  <path class="fil0" d="M298 81c2,-2 4,-5 5,-7 -5,7 -14,15 -26,26 0,0 -30,28 -51,47 -22,19 -91,77 -105,88 -13,10 -65,49 -69,51 -3,3 -13,11 -18,5 -3,-3 -2,-6 -1,-9 -2,3 -7,9 -2,14 5,5 15,-2 18,-5 1,0 5,-3 11,-8 27,22 62,35 99,35 88,0 159,-71 159,-159 0,-28 -7,-55 -20,-78zm-28 -37c-29,-27 -68,-44 -111,-44 -88,0 -159,71 -159,159 0,42 16,80 43,109 23,-32 103,-145 109,-153 0,0 19,-24 21,-27 1,-3 2,-5 -3,-8 -5,-3 -22,-13 -25,-16 -3,-2 -3,-11 7,-13 9,-2 80,-8 118,-7z"/>
  <path class="fil0" d="M551 29l0 199c0,44 -38,77 -89,77 -51,0 -89,-33 -89,-77l0 -152c0,-26 21,-47 46,-47l4 0 0 198c0,24 21,39 41,39 20,0 41,-14 41,-39l0 -154c0,-24 20,-44 44,-44l2 0z"/>
  <path class="fil0" d="M649 99c68,0 79,38 79,61l0 142 -2 0c-25,0 -47,-21 -47,-46l0 -95c0,-14 -5,-30 -32,-30 -12,0 -19,2 -27,5 0,3 0,166 0,166l-49 0 0 -188c21,-9 54,-15 78,-15z"/>
  <path class="fil0" d="M773 29c15,0 27,11 27,24 0,13 -12,24 -27,24 -14,0 -26,-11 -26,-24 0,-13 12,-24 26,-24zm24 70l0 157c0,26 -20,46 -45,46l-2 0 0 -203 47 0z"/>
  <path class="fil0" d="M935 25c23,0 45,5 62,16l0 48c-11,-14 -26,-24 -51,-24 -49,0 -80,48 -80,99 0,47 32,99 80,99 21,0 40,-6 51,-21l0 47c-14,10 -36,16 -62,16 -78,0 -120,-72 -120,-141 0,-68 42,-139 120,-139z"/>
  <path class="fil0" d="M1083 99c8,0 18,1 27,2l0 39c-16,-12 -38,-8 -48,-3l0 120c0,25 -21,45 -46,45l-2 0 0 -187c18,-9 38,-16 69,-16z"/>
  <path class="fil0" d="M1279 203l-121 17c4,33 21,50 51,50 34,0 51,-11 63,-20l0 41c-12,6 -35,14 -68,14 -59,0 -94,-40 -94,-104 0,-62 33,-102 86,-102 53,0 83,35 83,96l0 8zm-42 -28c-2,-40 -27,-44 -40,-44l-2 0c-27,0 -40,20 -40,56l82 -12z"/>
  <path class="fil0" d="M1453 29l0 271c-12,2 -50,5 -66,5l-3 0c-59,-1 -92,-35 -92,-96 0,-62 34,-102 86,-102 11,0 19,1 27,3l0 -35c0,-26 20,-46 45,-46l3 0zm-48 109c-5,-1 -10,-2 -16,-2 -40,0 -49,39 -49,70 0,45 15,67 45,67 5,0 17,-1 20,-2l0 -133z"/>
  <path class="fil0" d="M1499 29c15,0 26,11 26,24 0,13 -11,24 -26,24 -14,0 -26,-11 -26,-24 0,-13 12,-24 26,-24zm24 70l0 157c0,26 -20,46 -46,46l-2 0 0 -203 48 0z"/>
  <path class="fil0" d="M1608 29l0 70 31 0 0 39 -31 0 0 108c0,13 4,17 18,17 4,0 9,-1 13,-3l0 40c-2,1 -12,5 -24,5 -36,0 -55,-17 -55,-49l0 -118 -21 0 0 -39 21 0 0 -24c0,-25 20,-46 45,-46l3 0z"/>
  <path class="fil0" d="M1862 155l0 1c26,5 62,28 62,68 0,54 -44,78 -108,78 -61,0 -83,-1 -83,-1l0 -262c17,-8 46,-15 80,-15 68,0 102,30 102,70 0,37 -29,56 -53,61zm2 -58c0,-30 -17,-44 -51,-44 -12,0 -22,1 -31,4l0 87 16 0c50,2 66,-14 66,-47zm-66 72l-16 0 0 102c9,0 19,0 33,0 33,0 57,-13 57,-48 0,-38 -21,-56 -74,-54z"/>
  <path class="fil0" d="M2044 174l0 -14c0,-25 -16,-32 -39,-32 -20,0 -39,7 -60,18l0 -32c12,-6 36,-15 68,-15 41,0 75,20 75,71l0 130c-14,2 -45,5 -64,5l-10 0c-54,0 -82,-22 -82,-61 0,-52 51,-64 112,-70zm0 22c-43,4 -69,13 -69,47 0,25 16,36 42,36 10,0 22,0 27,-2l0 -81z"/>
  <path class="fil0" d="M2186 99c68,0 79,38 79,61l0 142 -2 0c-25,0 -46,-21 -46,-46l0 -96c0,-13 -6,-29 -32,-29 -13,0 -20,1 -28,4 0,4 0,167 0,167l-49 0 0 -188c21,-9 54,-15 78,-15z"/>
  <path class="fil0" d="M2335 255c0,26 -21,47 -48,47l0 0 0 -227c0,-26 20,-47 47,-47l1 0 0 165 60 -89 45 0 -62 91 73 107 -51 0 -65 -100 0 53z"/>
 </g>
</svg>
