<?xml version="1.0" encoding="UTF-8"?>
<!DOCTYPE svg PUBLIC "-//W3C//DTD SVG 1.1//EN" "http://www.w3.org/Graphics/SVG/1.1/DTD/svg11.dtd">
<!-- Creator: CorelDRAW X8 -->
<svg xmlns="http://www.w3.org/2000/svg" xml:space="preserve" width="690px" height="436px" version="1.1" style="shape-rendering:geometricPrecision; text-rendering:geometricPrecision; image-rendering:optimizeQuality; fill-rule:evenodd; clip-rule:evenodd"
viewBox="0 0 1641 1036"
 xmlns:xlink="http://www.w3.org/1999/xlink">
 <defs>
  <style type="text/css">
   <![CDATA[
    .fil1 {fill:#E6E7E8}
    .fil0 {fill:#D2D3D5;fill-opacity:0.070588}
   ]]>
  </style>
 </defs>
 <g id="Layer_x0020_1">
  <metadata id="CorelCorpID_0Corel-Layer"/>
  <path class="fil0" d="M1511 0l-1381 0c-74,0 -130,56 -130,130l0 777c0,73 60,129 130,129l1381 0c74,0 130,-56 130,-129l0 -777c0,-74 -61,-130 -130,-130l0 0zm0 43c48,0 87,39 87,87l0 777c0,47 -39,86 -87,86l-1381 0c-48,0 -87,-39 -87,-86l0 -777c0,-48 39,-87 87,-87l1381 0z"/>
  <g>
   <path class="fil1" d="M1222 436l-13 0c-17,43 -30,65 -43,130l82 0c-13,-65 -13,-95 -26,-130l0 0zm125 255l-73 0c-4,0 -4,0 -9,-4l-8 -39 -5 -9 -103 0c-5,0 -9,0 -9,9l-13 39c0,4 -4,4 -4,4l-91 0 9 -22 125 -293c0,-22 13,-31 34,-31l65 0c5,0 9,0 9,9l60 281c5,17 9,30 9,47 4,5 4,5 4,9zm-578 -13l17 -78c4,0 9,5 9,5 30,13 60,21 90,17 9,0 22,-4 30,-9 22,-8 22,-30 5,-47 -9,-9 -22,-13 -35,-22 -17,-9 -34,-17 -47,-30 -52,-43 -35,-104 -5,-134 26,-17 39,-35 74,-35 52,0 108,0 134,9l4 0c-4,26 -9,48 -17,74 -22,-9 -43,-18 -65,-18 -13,0 -26,0 -39,5 -9,0 -13,4 -17,8 -9,9 -9,22 0,30l21 18c18,8 35,17 48,26 21,13 43,34 47,60 9,39 -4,73 -38,99 -22,18 -31,26 -61,26 -60,0 -108,5 -147,-8 -4,8 -4,8 -8,4l0 0zm-151 13c4,-30 4,-30 8,-43 22,-95 43,-195 61,-290 4,-8 4,-13 13,-13l77 0c-8,52 -17,91 -30,139 -13,64 -26,129 -43,194 0,9 -4,9 -13,9l-73 4zm-402 -337c0,-4 9,-9 13,-9l147 0c21,0 39,13 43,35l39 190c0,4 0,4 4,9 0,-5 4,-5 4,-5l91 -220c-4,-4 0,-9 4,-9l91 0c0,5 0,5 -4,9l-134 315c-4,9 -4,13 -9,18 -4,4 -13,0 -21,0l-65 0c-4,0 -9,0 -9,-9l-69 -268c-8,-8 -21,-21 -39,-26 -26,-13 -73,-21 -82,-21l-4 -9z"/>
  </g>
 </g>
</svg>
