<?xml version="1.0" encoding="utf-8"?>
<!-- Generator: Adobe Illustrator 19.0.0, SVG Export Plug-In . SVG Version: 6.00 Build 0)  -->
<svg version="1.1" id="Layer_1" xmlns="http://www.w3.org/2000/svg" xmlns:xlink="http://www.w3.org/1999/xlink" x="0px" y="0px"
	 viewBox="48 -47.5 396.2 395.5" style="enable-background:new 48 -47.5 396.2 395.5;" xml:space="preserve">
<style type="text/css">
	.st0{fill:none;}
	.st1{fill:#D2D3D5;}
	.st2{fill:#FEFEFE;stroke:#FEFEFE;stroke-width:0.25;}
</style>
<rect x="48" y="-47.5" class="st0" width="396.2" height="198"/>
<rect x="48" y="150" class="st1" width="396.2" height="198"/>
<path class="st2" d="M164.7,224.5c-2.1-1-5.6-2.1-10.2-2.1c-9.6,0-15.7,5.4-15.7,12.6c0,6.2,4.9,10.3,12.1,13
	c5.8,2.2,8.2,4.6,8.2,8.5c0,4.1-3.2,6.9-9,6.9c-4,0-7.9-1.2-10.5-2.7l-1.6,5.8c2.4,1.5,7.2,2.7,11.7,2.7c10.9,0,16.9-5.7,16.9-13.3
	c0-6.2-3.7-10.2-11.5-13.5c-6.1-2.5-8.9-4.4-8.9-8.3c0-2.9,2.4-6.1,8.2-6.1c4,0,7,1.2,8.6,2L164.7,224.5z M200.7,262.9h-19v-15.1
	h16.9V242h-16.9v-13.2h17.9V223h-25.3v45.6h26.4V262.9z M238.2,261.8c-2.1,1-5.4,1.6-8.7,1.6c-10,0-16.2-6.3-16.2-17.5
	c0-11.8,7-17.8,16.3-17.8c3.6,0,6.4,0.8,8.5,1.7l1.6-5.6c-1.3-0.7-4.7-1.8-10.3-1.8c-13.4,0-23.7,8.5-23.7,23.9
	c0,14.5,9,22.9,22.5,22.9c5.2,0,9.4-1,11.4-1.9L238.2,261.8z M280.7,223h-7.4v27.6c0,9.1-3.8,13-9.8,13c-5.6,0-9.6-3.9-9.6-13V223
	h-7.3v27.2c0,13.6,6.7,19.1,16.6,19.1c10.3,0,17.5-5.7,17.5-19.2V223z M311.4,246.8c4.9-1.7,8.7-5.7,8.7-11.6c0-3.7-1.3-6.8-3.9-8.9
	c-3-2.6-7.4-3.6-13.8-3.6c-4.4,0-8.7,0.4-11.8,1v44.9h7.3v-19.3h4.4c5.1,0,7.5,2.3,8.8,8.4c1.2,5.6,2.3,9.6,3,10.9h7.6
	c-1-1.7-2.2-6.4-3.6-12.4c-1.2-4.8-3.2-8-6.8-9.3V246.8z M298,244.2v-15.6c0.9-0.2,2.7-0.4,5.1-0.4c5.2,0,9.7,2,9.7,7.9
	c0,4.9-3.8,8.2-9.9,8.2H298z M354.7,262.9h-19v-15.1h16.9V242h-16.9v-13.2h17.9V223h-25.3v45.6h26.3V262.9z"/>
<g>
	<path class="st1" d="M236.8,8l-19,88.8h-22.9l19-88.8H236.8z M333.5,65.4L345.6,32l7,33.4H333.5z M359.1,96.8h21.2L361.8,8h-19.6
		c-4.4,0-8.1,2.6-9.8,6.5l-34.5,82.3H322l4.8-13.3h29.5L359.1,96.8z M299.2,67.8c0.1-23.4-32.4-24.7-32.2-35.2
		c0.1-3.2,3.1-6.6,9.8-7.4c3.3-0.4,12.3-0.8,22.7,3.9l4-18.9c-5.5-2-12.7-4-21.5-4c-22.7,0-38.7,12.1-38.8,29.4
		c-0.1,12.8,11.4,19.9,20.2,24.2c8.9,4.4,11.9,7.2,11.9,11c-0.1,5.9-7.2,8.6-13.7,8.7c-11.6,0.2-18.3-3.1-23.6-5.6l-4.2,19.5
		c5.4,2.5,15.3,4.6,25.5,4.7C283.3,98.3,299,86.3,299.2,67.8L299.2,67.8z M204,8l-37.2,88.8h-24.3l-18.3-70.9c-1.1-4.4-2-6-5.4-7.8
		c-5.5-3-14.7-5.8-22.7-7.6L96.5,8h39.1c5,0,9.5,3.3,10.6,9.1l9.7,51.4L179.8,8L204,8L204,8z"/>
</g>
</svg>
