<?xml version="1.0" encoding="UTF-8"?>
<!DOCTYPE svg PUBLIC "-//W3C//DTD SVG 1.1//EN" "http://www.w3.org/Graphics/SVG/1.1/DTD/svg11.dtd">
<!-- Creator: CorelDRAW X8 -->
<svg xmlns="http://www.w3.org/2000/svg" xml:space="preserve" width="205.261mm" height="41.0015mm" version="1.1" style="shape-rendering:geometricPrecision; text-rendering:geometricPrecision; image-rendering:optimizeQuality; fill-rule:evenodd; clip-rule:evenodd"
viewBox="0 0 20371 4069"
 xmlns:xlink="http://www.w3.org/1999/xlink">
 <defs>
  <style type="text/css">
   <![CDATA[
    .fil1 {fill:#E6E7E8;fill-rule:nonzero}
    .fil0 {fill:#E6E7E8;fill-rule:nonzero}
   ]]>
  </style>
 </defs>
 <g id="Layer_x0020_1">
  <metadata id="CorelCorpID_0Corel-Layer"/>
  <polygon id="path44123" class="fil0" points="4455,0 5090,0 5090,634 4455,634 "/>
  <polygon id="path44127" class="fil1" points="4455,1119 4455,3991 5090,3991 5090,1119 "/>
  <polygon id="path44131" class="fil1" points="0,1104 676,1104 1240,3259 1251,3259 1793,1104 2435,1104 2954,3259 2966,3259 3552,1104 4200,1104 3295,3991 2642,3991 2106,1846 2094,1846 1564,3991 894,3991 "/>
  <path id="path44135" class="fil1" d="M5441 1104l597 0 0 558 11 0c73,-307 453,-636 844,-636 145,0 184,11 240,16l0 615c-90,-12 -184,-28 -274,-28 -436,0 -782,352 -782,988l0 1374 -636 0 0 -2887z"/>
  <path id="path44139" class="fil1" d="M9122 2293c-22,-402 -296,-765 -726,-765 -442,0 -743,335 -760,765l1486 0zm-1486 419c0,452 246,855 777,855 368,0 592,-162 703,-481l604 0c-140,631 -676,983 -1307,983 -905,0 -1413,-631 -1413,-1519 0,-821 536,-1524 1396,-1524 910,0 1469,820 1363,1686l-2123 0z"/>
  <path id="path44143" class="fil1" d="M12026 2070c-50,-352 -307,-542 -659,-542 -329,0 -793,173 -793,1050 0,480 212,989 765,989 369,0 626,-246 687,-659l637 0c-117,748 -581,1161 -1324,1161 -905,0 -1402,-642 -1402,-1491 0,-871 475,-1552 1425,-1552 670,0 1239,334 1301,1044l-637 0z"/>
  <path id="path44147" class="fil1" d="M14796 2545c-195,128 -502,122 -782,173 -273,44 -519,145 -519,480 0,285 363,369 586,369 280,0 715,-145 715,-548l0 -474zm637 804c0,156 34,218 151,218 39,0 89,0 156,-12l0 442c-95,33 -296,72 -402,72 -257,0 -441,-89 -491,-352 -252,246 -659,352 -1000,352 -520,0 -989,-279 -989,-843 0,-721 576,-838 1112,-899 458,-84 865,-34 865,-408 0,-330 -340,-391 -597,-391 -358,0 -609,145 -637,458l-636 0c44,-743 675,-960 1312,-960 564,0 1156,228 1156,837l0 1486z"/>
  <path id="path44151" class="fil1" d="M15952 1104l598 0 0 558 11 0c73,-307 453,-636 844,-636 145,0 184,11 240,16l0 615c-90,-12 -185,-28 -274,-28 -436,0 -782,352 -782,988l0 1374 -637 0 0 -2887z"/>
  <path id="path44155" class="fil1" d="M18947 3567c570,0 810,-520 810,-1022 0,-637 -307,-1017 -799,-1017 -597,0 -810,531 -810,1050 0,497 246,989 799,989zm1424 424l-603 0 0 -391 -11 0c-168,330 -531,469 -894,469 -910,0 -1351,-676 -1351,-1541 0,-1045 620,-1502 1251,-1502 363,0 765,134 960,452l11 0 0 -1475 637 0 0 3988z"/>
 </g>
</svg>
